<svg width="148" height="142" viewBox="0 0 148 142" fill="none" xmlns="http://www.w3.org/2000/svg">
<path d="M99.7201 129.68C103.03 127.71 105.89 125.88 108.15 122.75C109.89 120.3 111.32 118.18 111.93 117.28C110.98 116.12 110.03 114.97 109.05 113.85C106.98 117.16 105.28 120.33 102.92 123.44C100.68 126.4 96.7901 129.03 92.8601 129.76C90.7001 130.16 62.6801 132.16 54.7001 131.81C51.6501 131.68 48.4401 131.71 45.4001 131.51C43.5701 131.39 34.4401 131.82 30.9201 128.39C29.6401 127.15 20.3101 112.27 16.7201 106.78C16.1301 105.88 15.4601 104.93 14.7801 104.14C13.7301 102.92 11.7901 104.28 12.5801 105.67C12.9501 106.32 13.4401 106.97 13.9601 107.61C18.3801 113.05 21.8101 119.2 25.8701 124.91C29.1801 129.58 30.7001 131.47 32.5601 132.01C42.4701 134.88 83.8101 132.69 86.6101 132.48C91.3401 132.13 96.3401 131.69 99.7201 129.68Z" fill="url(#paint0_linear_2093_3)"/>
<path d="M35.71 122.48C39.07 124.36 42.09 125.93 45.93 126.31C48.92 126.59 51.47 126.77 52.56 126.85C53.09 125.45 53.61 124.05 54.09 122.64C50.19 122.5 46.6 122.62 42.72 122.13C39.04 121.67 34.81 119.62 32.22 116.58C30.8 114.91 15.05 91.64 11.36 84.56C9.95003 81.85 8.32003 79.09 6.97003 76.36C6.16003 74.72 1.22003 67.03 2.43003 62.25C2.87003 60.53 11.08 45 14.05 39.15C14.54 38.19 15.02 37.13 15.37 36.14C15.9 34.63 13.76 33.62 12.95 35C12.57 35.64 12.25 36.39 11.96 37.16C9.46003 43.71 5.85003 49.76 2.93003 56.13C0.540028 61.35 -0.339972 63.61 0.120028 65.48C2.60003 75.5 25.15 110.2 26.74 112.53C29.4 116.45 32.29 120.56 35.72 122.48H35.71Z" fill="url(#paint1_linear_2093_3)"/>
<path d="M9.95009 63.45C10.0001 67.3 10.1501 70.69 11.7401 74.22C12.9901 76.95 14.1101 79.25 14.5901 80.23C16.0701 79.99 17.5401 79.74 19.0001 79.45C17.1701 76 15.2701 72.95 13.7601 69.35C12.3201 65.94 11.9801 61.24 13.3201 57.48C14.0501 55.41 26.3301 30.14 30.6201 23.41C32.2601 20.84 33.8301 18.04 35.5301 15.5C36.5501 13.98 40.7401 5.86 45.4801 4.52C47.1901 4.04 64.7401 3.39 71.2901 3.03C72.3701 2.97 73.5201 2.86 74.5501 2.67C76.1301 2.37 75.9301 0.01 74.3201 0C73.5701 0 72.7601 0.09 71.9501 0.22C65.0301 1.33 57.9901 1.23 51.0101 1.89C45.3101 2.43 42.9101 2.79 41.5201 4.13C34.0801 11.28 15.3101 48.17 14.0801 50.7C12.0201 54.97 9.90009 59.52 9.95009 63.45Z" fill="url(#paint2_linear_2093_3)"/>
<path d="M48.18 11.62C44.87 13.59 42.01 15.42 39.75 18.55C38.01 21 36.58 23.12 35.97 24.02C36.92 25.18 37.87 26.33 38.85 27.45C40.92 24.14 42.62 20.97 44.98 17.86C47.22 14.9 51.11 12.27 55.04 11.54C57.2 11.14 85.22 9.14 93.2 9.49C96.25 9.62 99.46 9.59 102.5 9.79C104.33 9.91 113.46 9.48 116.98 12.91C118.26 14.15 127.59 29.03 131.18 34.52C131.77 35.42 132.44 36.37 133.12 37.16C134.17 38.38 136.11 37.02 135.32 35.63C134.95 34.98 134.46 34.33 133.94 33.69C129.52 28.25 126.09 22.1 122.03 16.39C118.71 11.72 117.2 9.83 115.34 9.29C105.43 6.42 64.09 8.61 61.29 8.82C56.56 9.17 51.56 9.61 48.18 11.62Z" fill="url(#paint3_linear_2093_3)"/>
<path d="M147.78 75.82C145.3 65.7999 122.75 31.1 121.16 28.77C118.5 24.85 115.61 20.74 112.18 18.82C108.82 16.94 105.8 15.37 101.96 14.99C98.97 14.71 96.42 14.53 95.33 14.45C94.8 15.85 94.28 17.25 93.8 18.66C97.7 18.8 101.29 18.68 105.17 19.17C108.85 19.63 113.08 21.68 115.67 24.72C117.09 26.39 132.84 49.66 136.53 56.74C137.94 59.45 139.57 62.21 140.92 64.94C141.73 66.58 146.67 74.27 145.46 79.05C145.02 80.77 136.81 96.3 133.84 102.15C133.35 103.11 132.87 104.17 132.52 105.16C131.99 106.67 134.13 107.68 134.94 106.3C135.32 105.66 135.64 104.91 135.94 104.14C138.44 97.59 142.05 91.54 144.97 85.17C147.35 79.97 148.24 77.7 147.78 75.83V75.82Z" fill="url(#paint4_linear_2093_3)"/>
<path d="M137.96 77.8499C137.91 73.9999 137.76 70.6099 136.17 67.0799C134.92 64.3499 133.8 62.0499 133.32 61.0699C131.84 61.3099 130.37 61.5599 128.91 61.8499C130.74 65.2999 132.64 68.3499 134.15 71.9499C135.59 75.3599 135.93 80.0599 134.59 83.8199C133.86 85.8899 121.58 111.16 117.29 117.89C115.65 120.46 114.08 123.26 112.38 125.8C111.36 127.32 107.17 135.44 102.43 136.78C100.72 137.26 83.1701 137.91 76.6201 138.27C75.5401 138.33 74.3901 138.44 73.3601 138.63C71.7801 138.93 71.9801 141.29 73.5901 141.3C74.3401 141.3 75.1501 141.21 75.9601 141.08C82.8801 139.97 89.9201 140.07 96.9001 139.41C102.6 138.87 105 138.51 106.39 137.17C113.83 130.02 132.6 93.1299 133.83 90.5999C135.89 86.3299 138.01 81.7799 137.96 77.8499Z" fill="url(#paint5_linear_2093_3)"/>
<defs>
<linearGradient id="paint0_linear_2093_3" x1="-54.9999" y1="118.16" x2="239.79" y2="119.51" gradientUnits="userSpaceOnUse">
<stop stop-color="white"/>
<stop offset="1" stop-color="white"/>
</linearGradient>
<linearGradient id="paint1_linear_2093_3" x1="-54.82" y1="80.19" x2="239.97" y2="81.55" gradientUnits="userSpaceOnUse">
<stop stop-color="white"/>
<stop offset="1" stop-color="white"/>
</linearGradient>
<linearGradient id="paint2_linear_2093_3" x1="-54.6399" y1="39.66" x2="240.16" y2="41.02" gradientUnits="userSpaceOnUse">
<stop stop-color="white"/>
<stop offset="1" stop-color="white"/>
</linearGradient>
<linearGradient id="paint3_linear_2093_3" x1="-54.55" y1="21.96" x2="240.24" y2="23.32" gradientUnits="userSpaceOnUse">
<stop stop-color="white"/>
<stop offset="1" stop-color="white"/>
</linearGradient>
<linearGradient id="paint4_linear_2093_3" x1="-54.7299" y1="59.92" x2="240.06" y2="61.28" gradientUnits="userSpaceOnUse">
<stop stop-color="white"/>
<stop offset="1" stop-color="white"/>
</linearGradient>
<linearGradient id="paint5_linear_2093_3" x1="-54.9199" y1="100.46" x2="239.88" y2="101.81" gradientUnits="userSpaceOnUse">
<stop stop-color="white"/>
<stop offset="1" stop-color="white"/>
</linearGradient>
</defs>
</svg>
