<svg width="200" height="200" viewBox="0 0 200 200" fill="none" xmlns="http://www.w3.org/2000/svg">
<path d="M87.9008 61.2903H145.433L146.237 62.1736L146.147 160.215L142.484 160.117L142.395 64.4308L121.759 65.1178L141.591 65.7066L141.234 159.921H140.519L140.43 66.5899L92.6355 66.688V159.921H91.7422L91.5635 65.7066C91.9662 64.7099 107.166 66.0785 108.091 65.4122C108.208 65.3278 108.226 64.79 108.18 64.7252C107.646 63.9689 92.9357 65.1837 90.7595 64.4308L90.6702 135.582C90.1795 136.311 90.0439 135.382 89.5088 135.288C88.9415 135.539 89.5312 147.105 89.6875 148.635C90.3839 148.637 89.6439 138.284 89.7768 137.349C89.849 136.841 90.0877 135.678 90.6702 136.367V160.117H87.0968V61.9773L87.9008 61.2903ZM121.491 63.6457C121.275 63.7736 121.304 64.0993 121.669 64.2345C122.651 64.5974 125.433 64.008 126.583 63.9401C126.014 63.5283 121.715 63.5124 121.491 63.6457ZM117.56 64.6271C116.352 64.5986 111.287 64.6076 110.413 64.8233C110.201 64.8757 109.629 64.8651 109.967 65.314C110.311 65.7718 119.499 65.1682 120.776 65.4122C121.802 64.8481 117.809 64.6329 117.56 64.6271ZM88.4368 71.1043L88.7941 96.4243L89.2408 71.3987C89.1236 71.1217 88.6417 70.9971 88.4368 71.1043ZM141.144 77.3852C141.016 77.3856 140.993 78.7654 141.144 78.9554C141.284 78.9549 141.283 77.3846 141.144 77.3852ZM143.289 101.92L143.02 120.665C143.163 120.877 143.399 121.069 143.646 120.959C144.449 120.601 143.521 103.938 143.289 101.92ZM89.5088 117.034C88.998 117.775 89.2587 119.122 89.3301 119.978C89.8794 119.338 89.5515 117.822 89.5088 117.034ZM89.5088 122.529C89.3171 125.146 89.0725 128.184 89.5088 130.773C89.889 130.774 89.9675 123.176 89.5088 122.529ZM88.6155 123.118C88.4525 123.817 88.4218 124.656 88.7941 125.277C88.8531 124.767 89.142 123.419 88.6155 123.118ZM143.289 123.315C142.946 123.413 142.894 129.475 143.02 129.89C143.743 132.265 143.848 124.312 143.735 123.805C143.671 123.519 143.609 123.293 143.289 123.315ZM88.4368 126.259C88.4775 127.76 87.7675 129.569 88.4368 130.969C88.7934 130.97 88.9163 126.656 88.4368 126.259ZM88.6155 135.288C88.0076 135.288 88.4656 147.638 88.4368 148.635C89.2135 146.721 88.884 144.126 88.8835 142.059C88.8829 139.798 89.0078 137.523 88.6155 135.288ZM143.289 138.624C143.461 139.815 142.838 147.109 143.02 147.555C143.121 147.802 143.408 147.904 143.646 147.849L143.289 138.624ZM144.718 139.213L144.361 143.335C144.607 141.962 145.041 140.632 144.718 139.213ZM144.718 145.494L144.539 148.046C144.934 147.639 145.283 145.884 144.718 145.494ZM89.5088 150.009C89.0721 150.684 89.1059 158.842 89.5088 158.841C89.8249 157.597 89.9232 155.72 89.9555 154.425C89.9846 153.261 90.2851 150.907 89.5088 150.009ZM143.289 154.916C142.827 155.075 142.803 160.422 143.646 159.626C143.589 159.132 144.392 154.533 143.289 154.916Z" fill="#FBFBFB"/>
<path d="M106.675 63.5435C107.044 63.36 114.118 63.3819 115.054 63.9491C113.162 64.0426 108.583 64.8546 106.969 64.3547C106.367 64.1684 106.32 63.7198 106.675 63.5435Z" fill="#13100D"/>
<path d="M101.198 64.5305C101.585 64.5377 107.783 64.8018 106.191 65.4945C104.208 65.1949 89.9438 65.9361 89.4093 65.374C88.885 64.8228 89.7729 64.8358 90.1027 64.7715C91.4588 64.5066 99.3221 64.4955 101.198 64.5305Z" fill="#12110E"/>
<path d="M94.1077 67.7419L139.785 68.0371L138.853 160.215L93.5484 160.117L94.1077 67.7419ZM132.887 73.8412C129.051 76.1239 99.5718 88.0284 98.7687 89.483C98.5591 89.8627 98.7705 92.62 99.328 92.7294L133.073 76.6941L132.887 73.8412ZM134.378 81.121C124.871 86.0522 114.014 90.3487 104.548 95.2871C103.199 95.9909 98.3495 98.0324 99.8873 98.927C109.496 93.986 120.851 89.4466 130.277 84.4658C131.286 83.9322 136.117 81.8207 134.378 81.121ZM134.378 87.4171L100.26 104.239L100.819 108.863L134.938 92.8277L134.378 87.4171ZM104.921 110.634C102.939 110.519 97.5188 110.703 96.9043 111.913C96.484 112.739 96.4878 128.203 96.9043 129.03C97.6224 130.456 106.754 130.179 107.345 129.227V111.322C106.446 110.747 106.3 110.714 104.921 110.634Z" fill="#F6F6F7"/>
<path d="M88.1721 71.0066C88.4461 70.8976 89.0906 71.0244 89.2473 71.3062L88.65 96.7742L88.1721 71.0066Z" fill="#070706"/>
<path d="M132.077 74.1935L132.258 76.9545L99.544 92.4731C99.0036 92.3672 98.7986 89.6988 99.0017 89.3313C99.7804 87.9236 128.359 76.4027 132.077 74.1935Z" fill="black"/>
<path d="M134.043 81.7204C135.744 82.3964 131.017 84.4366 130.029 84.9522C120.806 89.7646 109.694 94.1507 100.291 98.9247C98.7867 98.0603 103.532 96.0878 104.852 95.4078C114.115 90.6362 124.739 86.485 134.043 81.7204Z" fill="#010101"/>
<path d="M133.854 88.1721L134.409 93.3264L100.555 108.602L100 104.198L133.854 88.1721Z" fill="black"/>
<path d="M141.165 102.151C141.429 104.084 142.483 120.056 141.571 120.399C141.291 120.505 141.023 120.321 140.86 120.117L141.165 102.151Z" fill="#0A0908"/>
<path d="M105.346 110.782C106.587 110.862 106.718 110.895 107.527 111.468V129.316C106.995 130.266 98.7781 130.541 98.1318 129.12C97.757 128.296 97.7537 112.881 98.1318 112.057C98.6848 110.851 103.562 110.667 105.346 110.782ZM101.655 111.959C101.578 111.946 100.186 112.213 100.145 112.253C99.4116 112.962 100.341 126.862 100.648 128.826L102.158 128.532C101.63 126.854 103.024 112.174 101.655 111.959ZM104.004 112.155C104.335 114.129 103.027 127.863 103.836 128.532C104.081 128.734 104.929 128.589 105.346 128.63C105.014 126.656 106.323 112.921 105.514 112.253C105.268 112.05 104.42 112.195 104.004 112.155Z" fill="#020100"/>
<path d="M100.519 111.828C101.741 112.048 100.497 127.021 100.968 128.732L99.6201 129.032C99.3457 127.029 98.5157 112.852 99.1707 112.128C99.2075 112.088 100.45 111.816 100.519 111.828Z" fill="#F9F9FA"/>
<path d="M104.725 111.841C105.129 111.884 105.953 111.732 106.191 111.944C106.976 112.641 105.706 126.961 106.028 129.019C105.623 128.977 104.8 129.128 104.562 128.917C103.776 128.219 105.047 113.899 104.725 111.841Z" fill="#F9F9F8"/>
<path d="M141.296 123.657C141.719 123.638 141.8 123.846 141.884 124.108C142.034 124.574 141.895 131.885 140.943 129.701C140.777 129.32 140.845 123.748 141.296 123.657Z" fill="#050403"/>
<path d="M141.353 138.71L141.935 147.299C141.547 147.349 141.08 147.254 140.915 147.024C140.618 146.609 141.634 139.819 141.353 138.71Z" fill="#0E0E0C"/>
<path d="M143.821 145.161C146.381 145.654 144.8 147.873 143.011 148.387L143.821 145.161Z" fill="#171513"/>
<path d="M131.561 154.859C132.872 154.517 131.918 158.626 131.986 159.068C130.984 159.779 131.013 155.002 131.561 154.859Z" fill="#040403"/>
</svg>
