<svg width="84" height="122" viewBox="0 0 84 122" fill="none" xmlns="http://www.w3.org/2000/svg">
<path d="M1.91016 0.210938C3.15273 0.789648 5.33144 0.444531 5.71875 2.06641C5.41094 14.5049 6.06562 26.9463 6.10937 39.3711C6.11289 40.3922 6.27207 46.6439 6.10937 46.9883C5.93066 47.3666 4.67812 47.3852 4.25391 47.6719C2.63066 48.7689 3.25977 52.1994 5.52344 52.2617L5.71875 78.8242C2.56484 79.6305 2.58184 83.334 5.71875 84.0977V107.535L2.69141 109.781L1.91016 0.210938Z" fill="#FDFDFD"/>
<path d="M81.9883 0.210938L81.5976 109.781L78.375 107.34V84.0977C81.2738 83.1424 81.356 79.7979 78.375 78.8242V52.457C80.6008 51.8588 81.3955 49.1855 79.6445 47.6719C79.4308 47.4871 78.2558 47.325 78.1797 47.1836C77.8183 46.5131 78.1594 33.8645 78.1797 31.9492C78.2869 21.8021 78.8611 11.643 78.5703 1.48047L81.9883 0.210938Z" fill="#FDFDFD"/>
<path d="M37.457 23.2578C38.5877 23.2928 39.7705 23.1369 40.4844 24.1367L40.0938 46.9883L15.7773 47.4766L15.4844 24.332C16.291 22.7078 23.3674 23.7551 25.1523 23.4531C25.9348 23.8004 24.7729 29.6656 25.9336 29.8984C26.2158 29.9551 27.3742 28.5461 27.4961 28.5313C28.1416 28.4523 29.1512 30.4701 29.9375 29.4102L30.4258 23.4531C32.7355 23.7145 35.1793 23.1873 37.457 23.2578ZM24.3711 37.125C23.742 37.0961 18.4182 37.2231 18.1211 37.3203C17.0105 37.684 17.1828 44.3963 18.1211 44.7422C18.5061 44.8842 25.8287 44.6566 26.3242 44.5469C28.3355 44.1014 27.2342 37.5922 26.5195 37.3203C26.4187 37.282 24.6898 37.1397 24.3711 37.125Z" fill="#FEFEFE"/>
<path d="M45.0742 23.2578C47.1584 22.827 51.3109 23.9436 53.668 23.4531C54.2992 23.7922 53.5289 29.5291 54.6445 29.7031C56.2664 28.3479 56.3982 27.91 57.9648 29.7031C59.3768 29.7813 58.0898 23.8311 58.9414 23.4531C60.799 23.7893 67.8312 22.6512 68.6094 24.332L68.5117 47.2813L43.8047 46.9883L43.6094 24.1367C43.9678 23.6482 44.5051 23.3754 45.0742 23.2578ZM57.3789 37.125C56.3889 37.4783 56.3994 43.6703 57.1836 44.1563C57.5572 44.3877 65.5447 44.5092 65.9727 44.3516C66.9707 43.984 67.0229 37.4803 65.9727 37.125C65.5656 36.9873 57.7836 36.9805 57.3789 37.125Z" fill="#FEFEFE"/>
<path d="M26.3242 23.4531C26.4478 23.3656 29.2638 23.4273 29.3515 23.5508C29.2158 24.2877 29.6525 28.558 29.0586 28.7266C28.9846 28.7477 27.9621 27.7621 27.8867 27.75C27.0762 27.6199 26.2765 29.1701 26.0312 28.4336C25.9867 27.8086 26.0783 23.6275 26.3242 23.4531Z" fill="#FCFDFD"/>
<path d="M54.8398 23.4531L57.8672 23.5508L57.7695 28.5312C56.3205 26.4531 56.0307 28.5184 54.7422 28.2383L54.8398 23.4531Z" fill="#FCFCFC"/>
<path d="M24.3711 37.125C24.6899 37.1396 26.4188 37.282 26.5195 37.3203C27.2342 37.5922 28.3356 44.1014 26.3242 44.5469C25.8287 44.6566 18.5061 44.8842 18.1211 44.7422C17.1828 44.3963 17.0106 37.684 18.1211 37.3203C18.4182 37.223 23.742 37.0961 24.3711 37.125ZM18.707 37.9062C18.6197 37.9389 18.4008 38.1613 18.2188 38.1992L18.5117 43.9609L26.6172 43.668C26.3881 41.8432 27.142 39.4047 26.1289 37.9062C25.7848 37.7676 19.0545 37.7762 18.707 37.9062Z" fill="#050506"/>
<path d="M57.3789 37.125C57.7836 36.9805 65.5656 36.9873 65.9727 37.125C67.0229 37.4803 66.9707 43.984 65.9727 44.3516C65.5448 44.5092 57.5573 44.3877 57.1836 44.1562C56.3994 43.6703 56.3889 37.4783 57.3789 37.125ZM57.7696 37.7109L57.5742 43.5703L65.875 43.2773L65.5821 37.7109H57.7696Z" fill="#070809"/>
<path d="M57.7695 37.7109H65.582L65.875 43.2773L57.5742 43.5703L57.7695 37.7109ZM59.7227 39.2734C58.3178 39.6199 58.7744 42.2109 59.1367 42.3984C59.408 42.5389 64.4855 42.4729 64.7031 42.1055C64.9127 41.7516 65.0732 39.5303 64.4102 39.2734C64.1916 39.1889 60.0266 39.1984 59.7227 39.2734Z" fill="#FAFBFB"/>
<path d="M18.707 37.9062C19.0545 37.7762 25.7848 37.7676 26.1289 37.9062C27.142 39.4047 26.3881 41.8432 26.6172 43.668L18.5117 43.9609L18.2188 38.1992C18.4008 38.1613 18.6197 37.9389 18.707 37.9062ZM19.6836 39.4687C18.9119 39.7572 19.1252 42.2311 19.4883 42.5938C19.6854 42.7908 24.8932 42.6645 25.0547 42.3008C25.132 42.1264 25.0705 39.7445 24.957 39.6641C24.7418 39.5113 20.0033 39.3492 19.6836 39.4687Z" fill="#FBFCFC"/>
<path d="M59.7227 39.2734C60.0266 39.1984 64.1916 39.1889 64.4102 39.2734C65.0733 39.5303 64.9127 41.7516 64.7031 42.1055C64.4856 42.4729 59.408 42.5389 59.1367 42.3984C58.7744 42.2109 58.3178 39.6199 59.7227 39.2734ZM59.7227 40.0547C58.0572 42.6092 63.9447 41.9074 64.1172 41.5195C65.161 39.1707 61.0299 40.3057 59.7227 40.0547Z" fill="#070708"/>
<path d="M19.6836 39.4687C20.0033 39.3492 24.7418 39.5113 24.9571 39.6641C25.0705 39.7445 25.1321 42.1264 25.0547 42.3008C24.8932 42.6644 19.6854 42.7908 19.4883 42.5937C19.1252 42.231 18.9119 39.7572 19.6836 39.4687ZM20.0742 40.25C18.8791 42.8687 22.886 42.0857 24.4688 41.7148C25.0555 39.2078 21.5698 40.5969 20.0742 40.25Z" fill="#080809"/>
<path d="M59.7226 40.0547C61.0299 40.3057 65.1609 39.1707 64.1172 41.5195C63.9447 41.9074 58.0572 42.6092 59.7226 40.0547Z" fill="#FCFDFD"/>
<path d="M20.0742 40.25C21.5697 40.5969 25.0555 39.2078 24.4688 41.7148C22.886 42.0857 18.8791 42.8688 20.0742 40.25Z" fill="#FCFCFD"/>
<path d="M5.03514 48.4531H78.8633C80.3789 49.4406 79.8642 50.8355 78.2773 51.3828H5.62107C4.06717 50.8289 3.62049 49.5316 5.03514 48.4531Z" fill="#FDFDFD"/>
<path d="M17.5352 54.8984C19.8229 54.5797 22.7859 55.135 25.1523 54.8984C25.9805 55.266 24.8193 61.1297 25.9336 61.3437C26.5756 61.467 27.3289 58.7174 29.4492 61.3437C30.7063 60.6863 29.6641 55.2365 30.4258 54.8984C32.025 55.1428 39.6451 54.375 40.2891 55.3867C41.0893 56.6439 39.7279 75.9117 39.9961 78.9219L15.2891 78.8242V56.3633C15.5332 55.2486 16.5582 55.0346 17.5352 54.8984ZM18.1211 68.7656C16.9904 69.1357 17.2793 75.7197 17.9258 75.9922C19.4539 75.7221 26.9529 76.625 27.3984 75.3086C27.6527 74.557 27.2836 69.024 26.5195 68.7656C26.1217 68.631 18.5201 68.635 18.1211 68.7656Z" fill="#FEFEFE"/>
<path d="M26.5195 54.8984C26.6357 54.8475 28.9408 54.851 29.0586 54.8984C29.7891 55.1922 29.3574 60.0869 29.0586 60.1719C28.9031 60.216 27.5025 58.2467 26.4219 60.0742L26.0313 59.8789C26.0359 59.132 25.933 55.1555 26.5195 54.8984Z" fill="#FDFDFD"/>
<path d="M44.4883 54.8984C44.935 54.7769 53.0561 54.7307 53.4727 54.8984C54.5984 55.6947 53.2844 61.1246 54.6445 61.3437C55.3521 61.4578 56.0615 58.6244 57.9648 61.3437C59.2498 61.4143 58.3258 55.8859 58.7461 54.8984C60.832 55.326 68.2184 53.7686 68.8047 56.3633V78.8242L44.0977 78.9219L43.6094 55.7773C43.8182 55.4361 44.0697 55.0123 44.4883 54.8984ZM57.5742 68.7656C56.2371 69.1859 56.5654 74.5197 56.9883 75.7969C58.6717 75.873 65.7359 76.9021 66.4609 75.5039C66.8631 74.7285 66.9254 69.0879 65.9727 68.7656C65.5748 68.631 57.9748 68.6396 57.5742 68.7656Z" fill="#FEFEFE"/>
<path d="M55.0352 54.8984C55.3084 54.7922 57.6955 54.8047 57.8672 55.1914L57.7696 60.1719C56.7748 59.0855 56.1811 58.9113 55.1328 60.0742L54.7422 59.8789C55.0612 58.8115 53.9541 55.3186 55.0352 54.8984Z" fill="#FCFCFC"/>
<path d="M18.1211 68.7656C18.5201 68.635 26.1217 68.6311 26.5196 68.7656C27.2836 69.024 27.6528 74.557 27.3985 75.3086C26.9529 76.625 19.4539 75.7221 17.9258 75.9922C17.2793 75.7197 16.9904 69.1357 18.1211 68.7656ZM18.7071 69.3516C18.6197 69.3842 18.4008 69.6066 18.2188 69.6445L18.3164 75.2109L26.6172 75.1133C26.4145 73.2576 27.1022 70.9486 26.1289 69.3516C25.7869 69.2074 19.0545 69.2215 18.7071 69.3516Z" fill="#060608"/>
<path d="M57.5742 68.7656C57.9748 68.6397 65.5748 68.6311 65.9727 68.7656C66.9254 69.0879 66.8631 74.7285 66.461 75.5039C65.736 76.9022 58.6717 75.8731 56.9883 75.7969C56.5655 74.5197 56.2371 69.1859 57.5742 68.7656ZM57.7696 69.3516V75.4063L65.875 75.1133L65.5821 69.3516H57.7696Z" fill="#070709"/>
<path d="M18.707 69.3516C19.0545 69.2215 25.7869 69.2074 26.1289 69.3516C27.1021 70.9486 26.4145 73.2576 26.6172 75.1133L18.3164 75.2109L18.2188 69.6445C18.4008 69.6066 18.6197 69.3842 18.707 69.3516ZM19.6836 70.9141C18.8494 71.2377 19.1787 73.9979 19.6836 74.2344C20.0232 74.3936 24.8859 74.2272 25.0547 73.9414C25.1268 73.8193 25.0779 71.1951 24.957 71.1094C24.7418 70.9566 19.9295 70.8186 19.6836 70.9141Z" fill="#FBFCFC"/>
<path d="M57.7695 69.3516H65.582L65.875 75.1133L57.7695 75.4062V69.3516ZM60.5039 70.9141C60.1885 70.9562 58.9535 71.1525 58.8438 71.4023C57.2402 75.051 62.6793 74.2664 64.7031 73.9414C65.6687 70.3637 63.4795 70.5156 60.5039 70.9141Z" fill="#FCFCFC"/>
<path d="M19.6836 70.9141C19.9295 70.8186 24.7418 70.9566 24.957 71.1094C25.0779 71.1951 25.1268 73.8193 25.0547 73.9414C24.8859 74.2271 20.0232 74.3936 19.6836 74.2344C19.1787 73.9979 18.8494 71.2377 19.6836 70.9141ZM20.0742 71.6953C18.2633 74.2287 24.2863 73.567 24.4688 73.1602C25.0555 70.6531 21.5697 72.0422 20.0742 71.6953Z" fill="#060707"/>
<path d="M60.5039 70.9141C63.4795 70.5156 65.6688 70.3637 64.7031 73.9414C62.6793 74.2664 57.2402 75.051 58.8438 71.4023C58.9535 71.1525 60.1885 70.9562 60.5039 70.9141ZM59.7227 71.6953C57.9795 74.2887 63.9529 73.5297 64.1172 73.1602C65.1609 70.8115 61.0299 71.9463 59.7227 71.6953Z" fill="#070708"/>
<path d="M20.0742 71.6953C21.5697 72.0422 25.0555 70.6531 24.4688 73.1602C24.2863 73.567 18.2633 74.2287 20.0742 71.6953Z" fill="#FBFCFC"/>
<path d="M59.7226 71.6953C61.0299 71.9463 65.1609 70.8115 64.1172 73.1602C63.9529 73.5297 57.9795 74.2887 59.7226 71.6953Z" fill="#FBFCFD"/>
<path d="M5.23047 80.0938H78.668C80.1766 80.8721 79.9498 82.2947 78.4727 83.0234H5.42578C4.0584 82.4492 3.8707 80.8043 5.23047 80.0938Z" fill="#FCFDFD"/>
<path d="M23.5898 86.3437C24.0258 86.348 25.2426 86.1793 25.4453 86.6367L25.7383 92.7891C26.4627 93.141 27.1941 91.6645 27.4961 91.6172C28.0939 91.5236 29.1232 93.2342 29.7422 92.6914L30.4258 86.5391C32.2418 86.9197 39.4719 85.4945 40.2891 87.0273L39.9961 110.562L15.2891 110.465V87.8086C15.5629 87.2908 15.9428 86.6889 16.5586 86.5391C17.3252 86.3525 22.4295 86.3322 23.5898 86.3437ZM18.1211 100.406C17.0588 100.754 17.1906 107.172 17.9258 107.633C18.7459 108.146 27.1158 107.847 27.3984 107.145C27.2377 105.095 27.6121 102.34 26.7148 100.602C26.3506 100.373 18.6326 100.239 18.1211 100.406Z" fill="#FEFEFE"/>
<path d="M26.7148 86.3437C27.1691 86.1744 29.315 86.2998 29.5469 86.832L29.0586 91.8125C28.0904 90.6807 27.3726 90.4359 26.4219 91.7148L26.0312 91.5195C26.1078 90.4332 25.7533 86.7021 26.7148 86.3437Z" fill="#FDFDFD"/>
<path d="M44.6836 86.3437C45.1318 86.2234 53.065 86.1795 53.4727 86.3437C54.568 87.1 53.3342 92.5719 54.6445 92.7891C56.4248 91.3236 56.1588 91.0584 57.9648 92.7891C59.3857 92.8654 58.083 86.7248 58.9414 86.3437C60.6125 86.5734 67.8287 85.7215 68.6094 87.2226L68.5117 110.758L43.8047 110.27L43.6094 87.2226C43.6594 87.0635 44.4994 86.3932 44.6836 86.3437ZM57.7695 100.211C55.9229 100.711 56.9688 105.49 56.6953 106.949C56.8549 107.053 57.052 107.386 57.1836 107.437C57.6361 107.613 65.3164 107.773 65.7773 107.633C67.0334 107.251 67.0453 100.978 65.9727 100.406C65.5469 100.179 58.352 100.053 57.7695 100.211Z" fill="#FEFEFE"/>
<path d="M55.0352 86.3437C55.2981 86.2375 57.6957 86.2502 57.8672 86.6367C57.9682 86.8644 57.9631 91.4605 57.7695 91.6172C56.4959 90.648 56.5069 90.3221 55.1328 91.5195L54.7422 91.3242C55.0418 90.3348 54.0645 86.7355 55.0352 86.3437Z" fill="#FCFDFD"/>
<path d="M57.7695 100.211C58.3519 100.053 65.5469 100.179 65.9726 100.406C67.0453 100.978 67.0334 107.251 65.7773 107.633C65.3164 107.773 57.6361 107.613 57.1836 107.437C57.0519 107.386 56.8549 107.053 56.6953 106.949C56.9687 105.49 55.9228 100.711 57.7695 100.211ZM57.9648 100.797C57.0674 101.156 57.5603 105.748 57.5742 106.852L65.875 106.559L65.582 100.992C64.2549 101.412 58.7277 100.491 57.9648 100.797Z" fill="#040405"/>
<path d="M18.1211 100.406C18.6326 100.239 26.3506 100.373 26.7148 100.602C27.6121 102.34 27.2377 105.095 27.3984 107.145C27.1158 107.847 18.7459 108.146 17.9258 107.633C17.1906 107.172 17.0588 100.754 18.1211 100.406ZM22.418 100.992C21.8713 101.005 18.3391 101.209 18.2188 101.48V106.754L26.3242 107.047L26.4219 101.285C26.0324 100.799 23.1611 100.975 22.418 100.992Z" fill="#060708"/>
<path d="M57.9649 100.797C58.7277 100.491 64.2549 101.412 65.582 100.992L65.875 106.559L57.5742 106.852C57.5604 105.748 57.0674 101.156 57.9649 100.797ZM59.1367 102.555C58.6158 102.786 58.7127 105.43 59.332 105.68C59.6902 105.824 64.5402 105.754 64.7031 105.387C64.7795 105.215 65.0799 102.812 64.6055 102.555C63.5233 102.799 59.8735 102.228 59.1367 102.555Z" fill="#FBFBFC"/>
<path d="M22.418 100.992C23.1611 100.975 26.0324 100.799 26.4219 101.285L26.3242 107.047L18.2188 106.754V101.48C18.3391 101.209 21.8713 101.005 22.418 100.992ZM19.4883 102.75C18.9277 102.998 19.1496 105.65 19.6836 105.875C20.0215 106.017 24.8908 105.95 25.0547 105.582C25.1596 105.346 25.1488 102.922 24.7617 102.75C24.5207 102.643 19.7293 102.643 19.4883 102.75Z" fill="#FBFBFB"/>
<path d="M59.1367 102.555C59.8734 102.228 63.5233 102.799 64.6055 102.555C65.0799 102.812 64.7795 105.215 64.7031 105.387C64.5402 105.754 59.6902 105.824 59.332 105.68C58.7127 105.43 58.6158 102.786 59.1367 102.555ZM59.7227 103.336C57.9588 105.721 63.9238 105.236 64.1172 104.801C65.1609 102.452 61.0299 103.587 59.7227 103.336Z" fill="#080809"/>
<path d="M19.4883 102.75C19.7293 102.643 24.5207 102.643 24.7617 102.75C25.1488 102.922 25.1596 105.346 25.0547 105.582C24.8908 105.95 20.0215 106.017 19.6836 105.875C19.1496 105.65 18.9277 102.998 19.4883 102.75ZM24.1758 103.336C23.231 103.915 20.8578 103.216 20.0742 103.531C19.6476 103.703 19.924 104.925 19.9765 104.996C20.1963 105.292 26.2687 105.738 24.1758 103.336Z" fill="#09080A"/>
<path d="M24.1758 103.336C26.2688 105.738 20.1963 105.292 19.9766 104.996C19.924 104.925 19.6477 103.703 20.0742 103.531C20.8578 103.216 23.2311 103.915 24.1758 103.336Z" fill="#FBFBFC"/>
<path d="M59.7227 103.336C61.0299 103.587 65.1609 102.452 64.1172 104.801C63.9238 105.236 57.9588 105.721 59.7227 103.336Z" fill="#FAFAFB"/>
<path d="M8.16013 108.414C8.56501 108.328 13.3789 108.303 13.6289 108.414C14.3103 108.716 13.35 111.499 14.8008 111.93H69.2929C71.0138 111.473 69.8945 108.641 70.4648 108.414C72.05 108.68 74.9129 108.056 76.3242 108.414C76.6261 108.491 81.3933 111.499 81.5976 111.734C81.8009 111.968 81.9767 112.021 81.8906 112.418L2.30075 112.711C2.15739 112.614 2.16891 112.197 2.20309 112.027C2.27243 111.685 7.81833 108.487 8.16013 108.414Z" fill="#FBFCFC"/>
<path d="M2.30078 113.883H81.5977L81.8906 115.738L2.30078 115.836V113.883Z" fill="#FBFBFC"/>
<path d="M57.5742 117.203C65.9646 117.183 74.3709 117.274 82.7695 117.203C83.3645 117.407 83.6795 121.27 83.1602 121.5L0.640625 121.207L1.12891 117.398C19.9432 117.576 38.7666 117.248 57.5742 117.203Z" fill="#FDFDFD"/>
</svg>
