<svg width="200" height="200" viewBox="0 0 200 200" fill="none" xmlns="http://www.w3.org/2000/svg">
<path d="M99.3164 42.3828C100.071 42.3199 100.763 42.558 101.465 42.7734L157.227 96.1914C159.036 100.685 154.029 103.078 150.684 100.195C134.975 84.6594 118.325 70.0422 102.637 54.4922C101.647 53.5111 101.212 51.5539 99.5117 51.7578L48.5352 100.586C45.6754 102.181 41.4281 101.049 41.9922 97.168C59.7197 78.6768 79.1555 61.6625 97.168 43.3594C97.6783 43.0004 98.7279 42.432 99.3164 42.3828ZM99.5117 47.0703C81.8521 63.9396 63.7856 80.6752 46.6797 97.9492C47.0875 98.7574 47.4221 98.9482 48.3398 98.8281L99.707 49.6094L151.465 98.8281C154.593 98.598 152.046 96.542 151.074 95.5078C135.474 78.8969 116.484 64.0479 100.684 47.4609L99.5117 47.0703Z" fill="#FDFDFD"/>
<path d="M54.0039 43.1641H74.5117L74.8047 48.7305L54.0039 48.8281V43.1641ZM55.1758 44.3359C53.0453 44.8682 56.6941 46.543 57.6172 45.2148C58.018 44.4547 55.4738 44.2615 55.1758 44.3359ZM54.9805 46.2891C54.8732 46.3172 54.6416 46.6826 54.4922 46.7773L54.7852 47.6562C55.3633 47.6719 57.4404 47.8322 57.4219 46.9727C57.4113 46.4861 55.2027 46.2307 54.9805 46.2891Z" fill="#FEFDFE"/>
<path d="M55.1758 44.3359C55.4738 44.2615 58.018 44.4547 57.6172 45.2148C56.6941 46.543 53.0453 44.8682 55.1758 44.3359Z" fill="#040403"/>
<path d="M54.9805 46.2891C55.2027 46.2307 57.4113 46.4861 57.4219 46.9727C57.4404 47.8322 55.3633 47.6719 54.7852 47.6563L54.4922 46.7773C54.6416 46.6826 54.8732 46.3172 54.9805 46.2891Z" fill="#050504"/>
<path d="M112.402 46.875C112.472 46.8449 113.07 46.8459 113.184 46.875C113.722 47.0129 119.967 53.9949 120.703 54.9805L120.215 55.4687C119.48 55.6586 112.128 48.1311 112.109 47.5586C112.101 47.2879 112.12 46.9977 112.402 46.875Z" fill="#020202"/>
<path d="M99.5117 47.0703L100.684 47.4609C116.484 64.0479 135.474 78.8969 151.074 95.5078C152.046 96.542 154.593 98.598 151.465 98.8281L99.707 49.6094L48.3398 98.8281C47.4221 98.9482 47.0875 98.7574 46.6797 97.9492C63.7855 80.6752 81.8521 63.9396 99.5117 47.0703Z" fill="#010101"/>
<path d="M56.9336 50.7813C57.6684 50.9199 61.7094 50.476 61.9141 51.0742C61.9383 51.1449 61.6822 52.4961 61.6211 52.5391C61.2578 52.7945 58.6666 52.1498 58.2031 52.832C57.5557 53.785 58.9115 56.5318 56.9336 56.4453V50.7813Z" fill="#FBFCFC"/>
<path d="M63.1836 50.7812C63.6078 50.593 72.2727 50.65 72.4609 51.0742L72.6562 64.1602L56.7383 79.2969C56.5371 79.1342 56.5357 74.3576 56.6406 74.1211C57.0043 73.3012 61.0645 75.1609 59.7656 70.2148C66.3438 70.0623 62.5035 68.5467 63.6719 65.918C70.1523 65.8422 66.6658 64.0896 67.7734 62.207C68.1248 61.61 70.9957 62.3887 71.2891 61.6211C71.0838 60.718 71.5627 57.0723 71.2891 56.543C70.9717 55.9291 67.9766 56.4637 67.6758 56.25C67.3453 56.0152 67.7781 53.3285 67.5781 52.832C67.217 51.9352 64.0104 52.9061 63.1836 52.5391C62.7459 52.3447 62.7459 50.9754 63.1836 50.7812Z" fill="#FDFDFD"/>
<path d="M59.4727 53.7109C61.9271 54.3158 67.5227 51.9449 66.4062 56.1523L59.4727 56.25V53.7109Z" fill="#FCFCFC"/>
<path d="M99.707 54.8828L145.898 98.5352L145.801 146.875L113.086 146.582V113.379L112.402 112.695L86.5234 113.184L86.2305 146.875L58.3984 146.777C60.0354 142.971 59.6842 138.655 57.6172 135.059C57.2695 134.454 55.1229 132.13 55.0781 131.934C54.9545 131.39 55.9512 129.394 56.0547 128.613C56.4189 125.866 56.2246 123.028 55.2734 120.41C55.0031 119.666 53.366 117.283 53.3203 117.09C52.275 112.677 54.1154 104.005 53.3203 99.1211L99.707 54.8828ZM97.9492 63.6719C95.9445 63.9389 92.9971 65.8957 91.7969 67.4805C88.1338 72.3172 90.5391 81.3635 89.8438 87.207C84.6701 87.2891 87.0711 88.6725 85.9375 90.1367C85.5395 90.651 84.677 90.2076 84.375 90.918C84.1799 91.3771 83.6268 100.306 83.7891 100.879C83.9033 101.282 84.8897 102.548 85.2539 102.734C88.7814 104.537 108.605 102.321 113.77 102.93C115.875 101.786 116.07 99.7713 115.82 97.5586C115.795 97.3301 115.099 96.1055 115.039 95.6055C114.912 94.5486 115.289 91.5826 115.039 90.918C114.767 90.1949 113.684 90.5631 113.477 90.332C113.275 90.1072 113.502 88.1057 112.988 87.6953C112.394 87.2207 109.999 87.7316 109.766 87.4023C109.331 86.7887 110.026 74.4955 109.766 72.3633C109.059 66.5863 103.584 62.9213 97.9492 63.6719ZM69.2383 86.1328C67.7816 87.9967 55.4363 99.5002 55.2734 100.488C55.2301 100.751 55.3107 101.058 55.5664 101.172C56.4877 101.581 68.1027 88.2602 69.9219 87.0117C70.2199 86.5377 69.8605 86.1033 69.2383 86.1328ZM143.848 102.148C143.511 102.292 143.438 109.125 143.555 109.473C143.749 110.05 144.537 110.036 144.727 109.473C144.829 109.167 144.801 103.357 144.727 103.027C144.662 102.742 144.351 101.934 143.848 102.148ZM62.5977 108.789C61.7348 109.051 61.7975 110.887 61.7188 111.816C61.0582 119.624 62.2127 128.328 61.7188 136.23C59.5393 135.858 59.2547 139.339 59.9609 140.527C60.5209 141.469 78.9492 140.961 81.3477 140.82C82.135 140.327 82.1068 136.965 81.1523 136.328C81.0006 136.227 80.2506 136.474 80.0781 136.23C79.2994 135.13 80.6766 112.485 80.0781 109.277L62.5977 108.789ZM120.02 108.789L119.336 109.863C118.75 113.003 120.098 135.155 119.336 136.23C119.156 136.485 118.315 136.216 118.066 136.328C117.298 136.675 117.338 140.675 118.262 141.016H139.551C140.692 140.677 141.041 136.624 139.453 136.426V109.277L120.02 108.789ZM144.043 119.922C143.319 120.126 143.546 122.059 144.238 121.875C144.574 121.786 145.161 119.606 144.043 119.922ZM144.238 125.391C143.523 125.446 143.489 133.023 143.848 133.203C144.068 133.314 144.599 133.183 144.727 132.91C144.876 132.592 144.825 126.233 144.727 125.879C144.649 125.601 144.593 125.363 144.238 125.391ZM67.6758 142.773C65.4141 143.779 72.6275 144.173 73.0469 143.457C73.3711 142.486 68.0189 142.621 67.6758 142.773ZM60.2539 143.164C58.2496 143.89 64.9477 144.268 65.332 144.141C68.1369 143.208 60.9281 142.92 60.2539 143.164ZM137.598 143.359C135.112 144.375 142.314 144.565 142.676 144.531C143.364 144.467 145.701 144.228 144.238 143.359C142.753 143.823 138.681 142.917 137.598 143.359ZM59.8633 144.727C58.5266 145.321 61.2574 146.358 61.9141 145.215C61.9141 144.807 60.1961 144.579 59.8633 144.727ZM62.793 144.727C62.6762 144.763 62.4582 145.117 62.3047 145.215C65.4229 146.934 66.3752 143.608 62.793 144.727ZM132.129 144.727C129.902 145.428 135.684 146.44 136.133 145.215C136.075 144.815 132.528 144.601 132.129 144.727ZM141.895 144.727C141.345 144.719 137.55 144.857 137.695 145.41C138.595 145.92 144.99 145.814 145.117 145.41C144.779 144.607 142.782 144.739 141.895 144.727Z" fill="#FEFEFE"/>
<path d="M121.582 56.25C122.552 55.8434 127.027 60.6025 125.488 60.9375C124.535 61.0514 120.604 56.66 121.582 56.25Z" fill="#020202"/>
<path d="M56.9336 57.4219C57.1566 57.3229 61.5932 57.3229 61.8164 57.4219C62.3939 57.6781 61.9887 60.0504 62.1094 60.6445L56.7383 60.7422C56.6486 60.1748 56.4109 57.6539 56.9336 57.4219Z" fill="#FDFDFD"/>
<path d="M63.9648 57.4219C64.2508 57.3381 69.5564 57.3031 69.8242 57.4219C70.4018 57.6781 69.9965 60.0504 70.1172 60.6445L63.3789 60.7422C63.3695 59.6291 62.7598 57.7748 63.9648 57.4219Z" fill="#FDFDFD"/>
<path d="M56.9336 61.9141C58.5252 61.1885 59.1072 65.5018 56.6406 64.3555C56.7402 63.8355 56.3832 62.165 56.9336 61.9141Z" fill="#FAFBFB"/>
<path d="M59.668 61.9141C59.9625 61.7834 65.8119 61.7998 66.1133 61.9141C66.7334 62.1492 66.7557 64.2191 66.3086 64.4531C65.6541 64.7957 60.6219 64.1945 59.4727 64.4531C59.3295 64.3518 59.1986 62.1225 59.668 61.9141Z" fill="#FCFCFC"/>
<path d="M127.051 62.1094C127.83 61.7877 129.59 63.4465 128.613 64.2578C127.894 64.5953 126.099 62.5023 127.051 62.1094Z" fill="#020302"/>
<path d="M97.9492 63.6719C103.584 62.9213 109.059 66.5863 109.766 72.3633C110.026 74.4955 109.331 86.7887 109.766 87.4023C109.999 87.7316 112.394 87.2207 112.988 87.6953C113.502 88.1057 113.275 90.1072 113.477 90.332C113.684 90.5631 114.767 90.1949 115.039 90.918C115.289 91.5826 114.912 94.5486 115.039 95.6055C115.099 96.1055 115.795 97.3301 115.82 97.5586C116.07 99.7713 115.875 101.786 113.77 102.93C108.605 102.321 88.7814 104.537 85.2539 102.734C84.8896 102.548 83.9033 101.282 83.7891 100.879C83.6268 100.306 84.1799 91.3772 84.375 90.918C84.677 90.2076 85.5395 90.651 85.9375 90.1367C87.0711 88.6725 84.6701 87.2891 89.8437 87.207C90.5391 81.3635 88.1338 72.3172 91.7969 67.4805C92.9971 65.8957 95.9445 63.9389 97.9492 63.6719ZM99.5117 65.8203C98.2051 65.8549 96.0613 66.7766 95.0195 67.5781C89.6402 71.717 92.5262 81.2943 91.7969 87.207L107.52 87.5C107.114 82.4232 109.013 73.4379 106.055 69.2383C104.738 67.3688 101.814 65.7594 99.5117 65.8203ZM87.4023 88.4766L87.207 90.625C90.1307 89.9467 111.576 91.5488 112.305 90.5273C112.365 90.443 112.43 88.6734 112.012 88.4766H87.4023ZM91.6992 92.1875L91.8945 96.6797L107.812 96.582C107.671 95.8914 108.122 92.4563 107.52 92.1875C104.106 90.6648 106.379 96.2357 104.785 95.8984C103.641 95.6563 105.463 90.7527 102.246 92.1875C101.469 92.534 102.588 96.4377 101.27 95.8984C100.607 95.6272 101.212 93.0111 100.977 92.4805C100.811 92.1076 98.9787 92.0768 98.7305 92.1875C97.9535 92.5338 99.0721 96.4377 97.7539 95.8984C96.9271 95.5602 98.5875 90.7703 95.4102 92.1875C94.5133 92.5875 95.9963 96.2676 94.2383 95.8984C93.2389 93.7865 95.3613 91.6295 91.6992 92.1875ZM86.4258 92.3828C85.975 95.9172 85.4771 97.2008 89.7461 96.6797L89.8437 92.6758L86.4258 92.3828ZM109.863 92.5781C109.343 92.8092 109.599 96.4068 109.766 96.582C109.871 96.6926 112.603 96.7643 112.793 96.6797C113.389 96.415 112.95 93.3287 113.086 92.6758C112.993 92.5443 110.037 92.501 109.863 92.5781ZM85.8398 98.6328C85.4268 98.7959 85.7244 100.747 86.4258 100.977H112.988C113.741 100.4 114.322 99.5406 113.574 98.6328H85.8398Z" fill="#010101"/>
<path d="M130.566 65.0391C130.879 64.9805 132.909 67.0709 132.812 67.4805L132.324 67.9687C131.494 68.2504 129.942 66.0883 130.078 65.5273C130.221 65.4363 130.473 65.0564 130.566 65.0391Z" fill="#030303"/>
<path d="M56.7383 65.8203H62.4023L62.5 68.6523L56.7383 68.75V65.8203Z" fill="#FCFCFC"/>
<path d="M99.5117 65.8203C101.814 65.7594 104.738 67.3687 106.055 69.2383C109.013 73.4379 107.114 82.4232 107.52 87.5L91.7969 87.207C92.5262 81.2943 89.6402 71.717 95.0195 67.5781C96.0613 66.7766 98.2051 65.8549 99.5117 65.8203ZM98.9258 67.5781C97.3756 67.7305 95.282 69.4578 94.5313 70.8008C93.9912 71.767 92.9504 75.348 93.5547 76.2695C94.7248 78.0537 94.4887 74.1146 94.5313 73.9258C95.06 71.5816 96.2998 69.435 98.7305 68.75C99.368 68.9859 98.8539 75.3771 99.2188 76.2695C99.3816 76.6678 100.032 76.6678 100.195 76.2695C100.53 75.451 100.02 68.993 100.684 68.75C103.166 69.3867 104.328 71.5967 104.883 73.9258C105.072 74.7215 104.428 77.551 106.055 76.0742C106.225 71.8703 103.754 67.1037 98.9258 67.5781ZM93.8477 78.125C93.4129 78.318 93.2736 85.9937 94.043 86.1328C95.3385 86.367 94.3992 80.2826 94.8242 79.2969L99.2188 79.5898C98.7561 88.6877 100.655 88.7482 100.195 79.5898L104.59 79.2969C105.025 78.9725 104.614 88.8879 105.859 85.8398C105.996 85.5053 105.97 78.9572 105.859 78.6133L105.371 78.125H93.8477Z" fill="#FDFDFD"/>
<path d="M98.9258 67.5781C103.754 67.1037 106.225 71.8703 106.055 76.0742C104.428 77.551 105.072 74.7215 104.883 73.9258C104.328 71.5967 103.166 69.3867 100.684 68.75C100.02 68.993 100.53 75.451 100.195 76.2695C100.032 76.6678 99.3816 76.6678 99.2188 76.2695C98.8539 75.3772 99.368 68.9859 98.7305 68.75C96.2998 69.435 95.06 71.5816 94.5313 73.9258C94.4887 74.1147 94.7248 78.0537 93.5547 76.2695C92.9504 75.3481 93.9912 71.767 94.5313 70.8008C95.282 69.4578 97.3756 67.7305 98.9258 67.5781Z" fill="#020302"/>
<path d="M133.887 68.5547C134.431 68.4238 136.318 70.4398 135.059 70.8984C134.318 71.0924 133.403 69.7293 133.398 69.043C133.546 68.9494 133.784 68.5793 133.887 68.5547Z" fill="#020202"/>
<path d="M56.9336 69.9219C57.1314 69.8334 58.392 69.8291 58.5937 70.2148C58.6721 71.9377 58.8869 73.4424 56.6406 72.3633C56.7395 71.8467 56.3842 70.1674 56.9336 69.9219Z" fill="#FCFCFC"/>
<path d="M93.8477 78.125H105.371L105.859 78.6133C105.97 78.9572 105.996 85.5053 105.859 85.8398C104.614 88.8879 105.025 78.9725 104.59 79.2969L100.195 79.5898C100.655 88.7482 98.7561 88.6877 99.2188 79.5898L94.8242 79.2969C94.3992 80.2826 95.3385 86.367 94.043 86.1328C93.2736 85.9938 93.4129 78.318 93.8477 78.125Z" fill="#020302"/>
<path d="M69.2383 86.1328C69.8605 86.1033 70.2199 86.5377 69.9219 87.0117C68.1027 88.2602 56.4877 101.581 55.5664 101.172C55.3107 101.058 55.2301 100.751 55.2734 100.488C55.4363 99.5002 67.7816 87.9967 69.2383 86.1328Z" fill="#010202"/>
<path d="M87.4023 88.4766H112.012C112.43 88.6734 112.365 90.443 112.305 90.5273C111.576 91.5488 90.1307 89.9467 87.207 90.625L87.4023 88.4766Z" fill="#FCFCFC"/>
<path d="M91.6992 92.1875C95.3613 91.6295 93.2389 93.7865 94.2383 95.8984C95.9963 96.2676 94.5133 92.5875 95.4102 92.1875C98.5875 90.7703 96.9271 95.5602 97.7539 95.8984C99.0721 96.4377 97.9535 92.5338 98.7305 92.1875C98.9787 92.0768 100.811 92.1076 100.977 92.4805C101.212 93.0111 100.607 95.6271 101.27 95.8984C102.588 96.4377 101.469 92.534 102.246 92.1875C105.463 90.7527 103.641 95.6562 104.785 95.8984C106.379 96.2357 104.106 90.6648 107.52 92.1875C108.122 92.4562 107.671 95.8914 107.812 96.582L91.8945 96.6797L91.6992 92.1875Z" fill="#FDFDFC"/>
<path d="M86.4258 92.3828L89.8437 92.6758L89.7461 96.6797C85.4771 97.2008 85.975 95.9172 86.4258 92.3828Z" fill="#FCFCFC"/>
<path d="M109.863 92.5781C110.037 92.501 112.993 92.5443 113.086 92.6758C112.95 93.3287 113.389 96.415 112.793 96.6797C112.603 96.7643 109.871 96.6926 109.766 96.582C109.599 96.4068 109.343 92.8092 109.863 92.5781Z" fill="#FCFCFB"/>
<path d="M85.8398 98.6328H113.574C114.322 99.5406 113.741 100.4 112.988 100.977H86.4258C85.7244 100.747 85.4268 98.7959 85.8398 98.6328Z" fill="#FDFDFD"/>
<path d="M143.848 102.148C144.351 101.934 144.662 102.742 144.727 103.027C144.801 103.357 144.829 109.167 144.727 109.473C144.537 110.036 143.749 110.05 143.555 109.473C143.438 109.125 143.511 102.292 143.848 102.148Z" fill="#010202"/>
<path d="M62.5977 108.789L80.0781 109.277C80.6766 112.485 79.2994 135.13 80.0781 136.23C80.2506 136.474 81.0006 136.227 81.1523 136.328C82.1068 136.965 82.135 140.327 81.3477 140.82C78.9492 140.961 60.5209 141.469 59.9609 140.527C59.2547 139.339 59.5393 135.858 61.7187 136.23C62.2127 128.328 61.0582 119.624 61.7187 111.816C61.7975 110.887 61.7348 109.051 62.5977 108.789ZM63.7695 110.156L63.6719 136.035L78.418 136.328L78.7109 110.449L63.7695 110.156ZM64.1602 137.695C62.6451 137.82 60.4221 137.684 61.4258 139.648C63.5984 139.299 80.0801 140.225 80.4687 139.355C80.5674 139.135 80.5418 137.857 80.1758 137.695C79.4436 137.371 65.8574 137.556 64.1602 137.695Z" fill="#020303"/>
<path d="M120.02 108.789L139.453 109.277V136.426C141.041 136.624 140.692 140.677 139.551 141.016H118.262C117.338 140.675 117.298 136.675 118.066 136.328C118.315 136.216 119.156 136.485 119.336 136.23C120.098 135.155 118.75 113.003 119.336 109.863L120.02 108.789ZM120.996 110.156C119.831 110.72 121.28 133.09 120.703 136.035C120.841 136.35 121.563 136.432 121.777 136.328C122.942 135.765 121.494 113.395 122.07 110.449C121.932 110.135 121.21 110.053 120.996 110.156ZM123.535 110.156L123.242 136.035L137.988 136.328L138.086 110.254L123.535 110.156ZM119.238 137.695C118.792 138.033 118.796 139.452 119.238 139.648L138.867 139.551L138.77 137.695C136.42 138.148 120.017 137.106 119.238 137.695Z" fill="#030403"/>
<path d="M63.7695 110.156L78.7109 110.449L78.418 136.328L63.6719 136.035L63.7695 110.156ZM66.1133 111.914C65.3102 112.225 65.5055 117.322 65.918 118.359C67.3957 119.756 66.3885 113.359 67.0898 113.086C72.6016 112.4 69.9139 114.759 70.9961 118.359C72.5785 119.114 71.5787 114.046 71.875 113.379C72.2645 112.826 75.7156 113.165 75.8789 113.281C76.359 113.622 75.3227 118.742 76.6602 118.555C77.3768 118.454 77.4465 112.219 76.6602 111.914C76.1686 111.723 66.6049 111.723 66.1133 111.914ZM65.918 120.117C64.6141 125.725 67.0795 131.125 66.8945 121.289L70.7031 121.387C71.0477 121.872 69.9475 127.342 71.582 126.562L71.875 121.387C71.9854 121.231 75.5096 121.212 75.6836 121.289C76.5551 121.676 75.3324 126.445 76.2695 126.758L77.1484 126.465C76.9418 125.325 77.6242 120.491 76.6602 120.117C76.1594 119.923 66.4088 119.899 65.918 120.117ZM66.3086 128.32C65.127 128.679 65.4852 134.828 66.1133 134.961C67.4609 135.246 66.4359 130.605 66.8945 129.688L70.7031 129.785C70.1877 136.595 72.3908 136.589 71.875 129.785C71.9852 129.63 75.5096 129.61 75.6836 129.688C76.7854 130.177 74.7217 135.258 76.9531 134.863C77.1613 133.788 77.515 128.847 76.6602 128.516C76.1775 128.329 66.8039 128.17 66.3086 128.32Z" fill="#FDFDFD"/>
<path d="M120.996 110.156C121.21 110.053 121.932 110.135 122.07 110.449C121.494 113.395 122.942 135.765 121.777 136.328C121.563 136.432 120.841 136.35 120.703 136.035C121.28 133.09 119.831 110.72 120.996 110.156Z" fill="#FCFCFC"/>
<path d="M123.535 110.156L138.086 110.254L137.988 136.328L123.242 136.035L123.535 110.156ZM125.293 111.914C124.51 112.218 124.659 117.349 125.098 118.359C126.766 119.155 125.553 113.456 126.074 113.086C131.212 112.482 129.704 114.087 129.883 118.066L130.762 118.359L131.055 113.379C131.224 112.998 134.591 112.965 134.863 113.086C135.709 113.462 134.432 118.752 135.84 118.555C136.556 118.454 136.626 112.219 135.84 111.914C135.348 111.723 125.785 111.723 125.293 111.914ZM125.879 119.922C125.721 119.944 124.891 120.226 124.805 120.41L125.098 126.562C126.528 127.878 125.732 121.531 126.074 121.289L129.883 121.387C130.227 121.872 129.127 127.342 130.762 126.562L131.055 121.387C131.165 121.231 134.689 121.212 134.863 121.289C135.952 121.772 133.876 128.025 136.328 126.465C136.121 125.325 136.804 120.491 135.84 120.117C135.375 119.937 126.51 119.833 125.879 119.922ZM125.488 128.32C124.307 128.656 124.666 134.854 125.293 134.961C125.494 134.995 125.754 134.743 125.977 134.668L126.074 129.688L129.883 129.785C129.367 136.595 131.571 136.589 131.055 129.785C137.789 128.751 134.096 131.572 135.156 134.473C135.304 134.877 136.085 135.223 136.328 134.668C136.482 134.316 136.379 128.693 136.035 128.516L125.488 128.32Z" fill="#FDFDFD"/>
<path d="M66.1133 111.914C66.6049 111.723 76.1686 111.723 76.6602 111.914C77.4465 112.219 77.3768 118.454 76.6602 118.555C75.3227 118.742 76.359 113.622 75.8789 113.281C75.7156 113.165 72.2644 112.826 71.875 113.379C71.5787 114.046 72.5785 119.114 70.9961 118.359C69.9139 114.759 72.6016 112.4 67.0898 113.086C66.3885 113.359 67.3957 119.756 65.918 118.359C65.5055 117.322 65.3102 112.225 66.1133 111.914Z" fill="#020302"/>
<path d="M125.293 111.914C125.785 111.723 135.348 111.723 135.84 111.914C136.626 112.219 136.556 118.454 135.84 118.555C134.432 118.752 135.709 113.462 134.863 113.086C134.591 112.965 131.224 112.998 131.055 113.379L130.762 118.359L129.883 118.066C129.704 114.087 131.212 112.482 126.074 113.086C125.553 113.456 126.766 119.155 125.098 118.359C124.659 117.349 124.51 112.218 125.293 111.914Z" fill="#020303"/>
<path d="M41.1133 113.867C49.6932 112.777 55.3492 120.396 53.9063 128.418C53.6926 129.606 52.3408 131.626 52.7344 132.715C52.8213 132.955 55.6027 135.273 56.25 136.426C61.6969 146.129 51.515 153.651 42.3828 152.051V142.871C43.2455 141.959 48.0334 138.436 47.6562 137.207C47.0459 135.218 43.5654 140.596 42.3828 140.527C42.6664 139.455 42.2117 136.233 42.3828 135.449C42.5607 134.634 46.3389 131.799 44.8242 131.25C43.2459 130.678 43.4246 132.302 42.3828 132.715C42.2379 131.975 42.6979 128.419 42.0898 128.125C41.7535 127.962 40.965 128.228 40.8203 128.613C40.2264 130.195 41.268 136.304 40.8203 138.379L38.5742 136.328C35.4588 137.223 40.3346 139.758 40.8203 140.918C41.5262 142.604 40.3047 149.385 40.8203 151.66C31.7861 152.364 24.391 142.046 30.4687 134.082C30.8943 133.524 33.1467 131.721 33.2031 131.543C33.5869 130.334 32.3709 128.668 32.2266 127.441C31.5441 121.644 34.7338 114.678 41.1133 113.867ZM43.2617 115.039C39.7863 115.468 34.482 121.242 33.9844 124.707C33.884 125.406 33.6305 129.934 34.9609 128.613C34.4807 124.539 36.1279 120.846 39.3555 118.359C39.9084 117.933 47.2975 114.54 43.2617 115.039ZM36.2305 132.227C36.0594 132.254 33.841 134.188 33.5937 134.473C31.4604 136.924 30.3797 140.611 31.0547 143.848C31.1883 144.488 32.9918 148.301 33.4961 148.438C35.5354 148.991 33.083 146.163 33.0078 145.996C31.3787 142.366 31.4686 139.358 33.7891 136.035C33.9826 135.758 38.3658 131.884 36.2305 132.227Z" fill="#FEFEFE"/>
<path d="M110.254 114.062C110.65 114.073 111.523 113.912 111.719 114.355V152.051H110.156L109.961 116.113L89.9414 115.82L89.4531 151.855L87.9883 152.148L87.8906 114.355C95.3055 114.535 102.857 113.865 110.254 114.062Z" fill="#FCFCFC"/>
<path d="M43.2617 115.039C47.2975 114.54 39.9084 117.933 39.3555 118.359C36.1279 120.846 34.4807 124.539 34.9609 128.613C33.6305 129.934 33.884 125.406 33.9844 124.707C34.482 121.242 39.7863 115.468 43.2617 115.039Z" fill="#020302"/>
<path d="M105.371 116.797C105.899 116.81 108.656 116.985 108.789 117.285L108.984 135.254L100.488 135.547L100.391 117.285C100.509 117.065 104.817 116.784 105.371 116.797Z" fill="#FEFEFE"/>
<path d="M91.5039 116.992C92.1424 116.834 99.0578 116.923 99.2188 117.285L99.6094 136.23C100.277 137.297 107.413 136.361 108.984 136.816L108.887 152.148L90.625 152.051V117.48C90.6906 117.325 91.3523 117.03 91.5039 116.992ZM95.4102 118.555C95.1395 118.583 90.3297 121.782 92.8711 121.875C93.0213 121.247 98.352 118.247 95.4102 118.555ZM96.7773 119.922C96.4705 119.968 91.9857 123.818 93.457 124.219C93.7305 124.293 97.6426 120.693 97.6562 120.41C97.6807 119.906 97.1318 119.869 96.7773 119.922ZM93.457 130.859C91.0576 131.459 91.6676 136.206 95.0195 135.547C97.6273 135.034 97.1777 129.93 93.457 130.859ZM93.457 140.625C91.8402 141.055 93.2816 146.172 92.1875 147.559L92.6758 148.242C94.4313 147.984 106.641 148.78 107.031 147.754C107.306 147.03 107.17 141.278 106.348 140.82C105.784 140.507 94.2518 140.414 93.457 140.625Z" fill="#FDFDFD"/>
<path d="M95.4102 118.555C98.352 118.247 93.0213 121.247 92.8711 121.875C90.3297 121.782 95.1395 118.583 95.4102 118.555Z" fill="#050503"/>
<path d="M96.7774 119.922C97.1318 119.869 97.6807 119.906 97.6563 120.41C97.6426 120.693 93.7305 124.293 93.457 124.219C91.9858 123.818 96.4705 119.968 96.7774 119.922Z" fill="#030302"/>
<path d="M125.879 119.922C126.51 119.833 135.375 119.937 135.84 120.117C136.804 120.491 136.121 125.325 136.328 126.465C133.876 128.025 135.952 121.772 134.863 121.289C134.689 121.212 131.165 121.231 131.055 121.387L130.762 126.563C129.127 127.342 130.227 121.872 129.883 121.387L126.074 121.289C125.732 121.531 126.528 127.878 125.098 126.563L124.805 120.41C124.891 120.226 125.721 119.944 125.879 119.922Z" fill="#030303"/>
<path d="M144.043 119.922C145.161 119.606 144.574 121.786 144.238 121.875C143.546 122.059 143.319 120.126 144.043 119.922Z" fill="#030303"/>
<path d="M65.918 120.117C66.4088 119.899 76.1594 119.923 76.6602 120.117C77.6242 120.491 76.9418 125.325 77.1484 126.465L76.2695 126.758C75.3324 126.445 76.5551 121.676 75.6836 121.289C75.5096 121.212 71.9854 121.231 71.875 121.387L71.582 126.563C69.9475 127.342 71.0477 121.872 70.7031 121.387L66.8945 121.289C67.0795 131.125 64.6141 125.725 65.918 120.117Z" fill="#020303"/>
<path d="M144.238 125.391C144.593 125.363 144.649 125.601 144.727 125.879C144.825 126.233 144.876 132.592 144.727 132.91C144.599 133.183 144.068 133.314 143.848 133.203C143.489 133.023 143.523 125.446 144.238 125.391Z" fill="#030403"/>
<path d="M66.3086 128.32C66.8039 128.17 76.1775 128.329 76.6602 128.516C77.515 128.847 77.1613 133.788 76.9531 134.863C74.7217 135.258 76.7854 130.177 75.6836 129.687C75.5096 129.61 71.9852 129.63 71.875 129.785C72.3908 136.589 70.1877 136.595 70.7031 129.785L66.8945 129.687C66.4359 130.605 67.4609 135.246 66.1133 134.961C65.4852 134.828 65.127 128.679 66.3086 128.32Z" fill="#020202"/>
<path d="M125.488 128.32L136.035 128.516C136.379 128.693 136.482 134.316 136.328 134.668C136.085 135.223 135.304 134.877 135.156 134.473C134.096 131.572 137.789 128.751 131.055 129.785C131.571 136.589 129.367 136.595 129.883 129.785L126.074 129.688L125.977 134.668C125.754 134.743 125.494 134.995 125.293 134.961C124.666 134.854 124.307 128.656 125.488 128.32Z" fill="#020302"/>
<path d="M93.457 130.859C97.1777 129.929 97.6273 135.034 95.0195 135.547C91.6676 136.206 91.0576 131.459 93.457 130.859ZM94.2383 131.641C92.4248 131.676 92.6648 135.154 94.8242 134.57C96.2861 134.175 95.6826 131.613 94.2383 131.641Z" fill="#050505"/>
<path d="M94.2383 131.641C95.6826 131.613 96.2861 134.175 94.8242 134.57C92.6648 135.154 92.4248 131.676 94.2383 131.641Z" fill="#FBFBFB"/>
<path d="M36.2305 132.227C38.3658 131.884 33.9826 135.758 33.7891 136.035C31.4686 139.358 31.3787 142.366 33.0078 145.996C33.083 146.163 35.5354 148.991 33.4961 148.438C32.9918 148.301 31.1883 144.488 31.0547 143.848C30.3797 140.611 31.4604 136.924 33.5938 134.473C33.841 134.188 36.0594 132.254 36.2305 132.227Z" fill="#020302"/>
<path d="M64.1602 137.695C65.8574 137.556 79.4436 137.371 80.1758 137.695C80.5418 137.857 80.5674 139.135 80.4687 139.355C80.0801 140.225 63.5984 139.299 61.4258 139.648C60.4221 137.684 62.6451 137.82 64.1602 137.695Z" fill="#FCFCFD"/>
<path d="M119.238 137.695C120.017 137.106 136.42 138.148 138.77 137.695L138.867 139.551L119.238 139.648C118.796 139.452 118.792 138.033 119.238 137.695Z" fill="#FCFDFD"/>
<path d="M93.457 140.625C94.2518 140.414 105.784 140.507 106.348 140.82C107.17 141.278 107.306 147.03 107.031 147.754C106.641 148.78 94.4313 147.984 92.6758 148.242L92.1875 147.559C93.2816 146.172 91.8402 141.054 93.457 140.625ZM103.027 141.602C100.223 141.458 96.7549 142.113 93.8477 141.797L93.75 146.973C95.5475 147.009 105.332 147.941 105.859 146.582C105.961 146.32 106.014 143.021 105.859 142.676C105.431 141.715 103.964 141.649 103.027 141.602Z" fill="#010201"/>
<path d="M103.027 141.602C103.964 141.649 105.431 141.715 105.859 142.676C106.014 143.021 105.961 146.32 105.859 146.582C105.332 147.941 95.5475 147.009 93.75 146.973L93.8477 141.797C96.7549 142.113 100.223 141.458 103.027 141.602Z" fill="#FDFDFD"/>
<path d="M67.6758 142.773C68.0189 142.621 73.3711 142.486 73.0469 143.457C72.6275 144.173 65.4141 143.779 67.6758 142.773Z" fill="#080808"/>
<path d="M60.2539 143.164C60.9281 142.92 68.1369 143.208 65.332 144.141C64.9477 144.268 58.2496 143.89 60.2539 143.164Z" fill="#040403"/>
<path d="M137.598 143.359C138.681 142.917 142.753 143.823 144.238 143.359C145.701 144.228 143.364 144.467 142.676 144.531C142.314 144.565 135.112 144.375 137.598 143.359Z" fill="#040404"/>
<path d="M59.8633 144.727C60.1961 144.579 61.9141 144.807 61.9141 145.215C61.2574 146.358 58.5266 145.321 59.8633 144.727Z" fill="#040404"/>
<path d="M62.793 144.727C66.3752 143.608 65.4229 146.934 62.3047 145.215C62.4582 145.117 62.6762 144.763 62.793 144.727Z" fill="#060808"/>
<path d="M132.129 144.727C132.528 144.601 136.075 144.815 136.133 145.215C135.684 146.44 129.902 145.428 132.129 144.727Z" fill="#040405"/>
<path d="M141.895 144.727C142.782 144.739 144.779 144.607 145.117 145.41C144.99 145.814 138.595 145.92 137.695 145.41C137.55 144.857 141.345 144.719 141.895 144.727Z" fill="#040504"/>
<path d="M67.4805 148.438C68.3197 148.446 69.1238 148.417 69.9219 148.73L69.8242 152.148L62.8906 152.051L62.9883 148.633C64.4633 148.852 66.0408 148.422 67.4805 148.438Z" fill="#FDFDFD"/>
<path d="M71.7773 148.438C72.1182 148.338 78.3947 148.37 78.6133 148.633C78.6543 149.242 78.8865 151.46 78.7109 151.855C78.4322 152.483 72.2021 151.987 71.1914 152.148C71.1996 150.978 70.5506 148.797 71.7773 148.438Z" fill="#FCFCFC"/>
<path d="M79.9805 148.438H86.0352L86.3281 152.051L79.7852 152.148L79.9805 148.438Z" fill="#FCFDFC"/>
<path d="M113.77 148.437C114.205 148.31 118.685 148.437 118.848 148.633C119.145 148.99 118.828 151.413 118.945 152.051L113.184 152.148C113.192 150.978 112.543 148.797 113.77 148.437Z" fill="#FDFDFD"/>
<path d="M120.215 148.438L127.051 148.633C127.251 148.873 127.078 151.874 126.953 152.051C126.758 152.326 120.49 152.343 120.215 152.148C120.063 152.041 119.814 148.615 120.215 148.438Z" fill="#FCFDFC"/>
<path d="M128.418 148.437C132.1 148.941 135.538 146.486 134.57 152.051C133.759 152.08 128.482 152.332 128.223 152.148C128.063 152.035 127.812 148.536 128.418 148.437Z" fill="#FDFDFD"/>
<path d="M135.84 148.438L142.48 148.633C142.835 148.917 142.677 151.911 142.578 152.051C142.378 152.334 136.494 152.038 135.645 152.148L135.84 148.438Z" fill="#FDFDFD"/>
<path d="M143.848 148.438C144.01 148.366 145.815 148.418 145.898 148.535L145.801 152.148C145.365 152.07 143.761 152.298 143.555 152.051C143.439 151.912 143.562 148.564 143.848 148.438Z" fill="#FDFDFD"/>
<path d="M57.3242 148.633C58.2801 148.354 60.5037 148.838 61.6211 148.633L61.7188 152.051L53.418 152.148C54.1484 151.817 57.0443 148.714 57.3242 148.633Z" fill="#FCFCFC"/>
<path d="M29.1992 153.906H170.41C172.368 154.439 172.597 156.417 170.996 157.617H28.8086C27.2937 156.518 27.2592 154.575 29.1992 153.906ZM30.1758 155.273C29.5768 155.629 30.0939 156.125 30.5664 156.25C31.0855 156.388 40.7023 156.386 41.3086 156.25C41.6656 156.17 41.7607 156.001 41.9922 155.762L30.1758 155.273ZM54.7852 155.469C54.2217 155.954 54.2217 155.96 54.7852 156.445L93.3594 156.152L92.6758 155.469H54.7852ZM130.762 155.469V156.445L146.68 155.957L130.762 155.469ZM152.051 155.469C151.653 155.631 151.653 156.282 152.051 156.445C152.368 156.575 158.103 156.532 158.203 156.152C158.446 155.229 152.481 155.293 152.051 155.469Z" fill="#FDFDFD"/>
<path d="M30.1758 155.273L41.9922 155.762C41.7607 156.001 41.6656 156.17 41.3086 156.25C40.7023 156.386 31.0855 156.388 30.5664 156.25C30.0939 156.125 29.5768 155.629 30.1758 155.273Z" fill="#050505"/>
<path d="M54.7852 155.469H92.6758L93.3594 156.152L54.7852 156.445C54.2217 155.96 54.2217 155.954 54.7852 155.469Z" fill="#040605"/>
<path d="M130.762 155.469L146.68 155.957L130.762 156.445V155.469Z" fill="#050707"/>
<path d="M152.051 155.469C152.481 155.293 158.446 155.229 158.203 156.152C158.103 156.532 152.368 156.575 152.051 156.445C151.653 156.282 151.653 155.631 152.051 155.469Z" fill="#040505"/>
</svg>
