<svg width="200" height="200" viewBox="0 0 200 200" fill="none" xmlns="http://www.w3.org/2000/svg">
<path d="M53.0682 55.0021C54.1151 54.9133 54.4524 57.6155 53.1684 57.9505C51.2788 58.4435 52.0084 55.0921 53.0682 55.0021Z" fill="#FDFDFD"/>
<path d="M144.255 55.0159C146.544 54.7624 146.42 57.6144 144.815 57.9566C142.708 58.4056 142.323 55.23 144.255 55.0159Z" fill="#FDFDFD"/>
<path d="M126.178 56.0041C131.668 55.9913 137.158 56.0136 142.649 56.0041C143.001 56.2002 143.162 56.5708 142.779 56.8427L55 57L55.1961 56.2137C78.8589 56.3208 102.52 56.0593 126.178 56.0041Z" fill="#FBFBFB"/>
<path d="M95.7751 58.0541C111.431 57.9867 127.15 57.9096 142.806 58.3151L143 97H141.316L141.38 59.2284L57.4252 59.3588L57.4899 85.2575L56 85.8446L56.1296 58.4455C69.3314 58.1276 82.563 58.111 95.7751 58.0541Z" fill="#FBFCFC"/>
<path d="M58 60H140.935L141 96.5503H135.549C136.18 94.575 138.711 96.2161 140.221 95.5226L140.027 60.7708L119.974 61.092L119.844 95.0087L119.39 95.2014L119.26 60.8993C114.258 61.1221 109.207 60.5517 104.205 60.7708C103.643 60.7955 100.864 60.859 100.765 61.2205L101.025 84.217L100.311 84.4097L100.116 60.9635L80.1939 61.0278L79.8045 95.2014L79.2205 95.0087L79.4801 61.092C72.5979 61.0884 65.706 60.7314 58.8436 61.2205L58.9734 96.6788L58.2596 97L58 60Z" fill="#FAFAFA"/>
<path d="M106.989 61.0039C110.654 60.9605 114.341 61.2948 118 61.3258L117.807 95L111.303 94.8068C112.885 90.8547 115.972 85.4173 109.436 84.4406C108.441 84.292 101.172 84.2474 101 83.8611L101.129 61.3258C101.294 61.0836 106.275 61.0124 106.989 61.0039ZM114.716 62.2916C110.206 66.8091 105.173 71.0223 101.58 76.3279L114.716 62.2916ZM116.004 63.0643C111.764 67.8764 106.551 71.7687 102.739 76.9718L109.5 69.9536L116.004 63.0643ZM116.905 73.3661C114.871 74.4779 114.071 76.6837 112.848 78.4526C112.636 78.7598 109.687 82.3243 110.08 82.509L116.905 73.3661ZM117.034 75.8128C115.516 77.4822 113.56 79.2355 112.655 81.35L114.909 78.4526L117.034 75.8128Z" fill="#FEFEFE"/>
<path d="M123.08 61.0559C128.316 60.8056 133.574 61.5034 138.808 61.0559L139.267 61.513V95.3338L136.187 95.3991C135.641 94.5013 137.289 93.6587 136.187 93.1792C135.68 92.9586 132.134 93.1154 131.6 93.3098C130.752 93.6181 131.654 93.9774 131.665 94.028C131.745 94.3985 131.611 94.8914 131.796 95.3338C132.103 96.0688 133.505 96.1988 133.893 97.0313C133.649 97.3485 129.685 96.7113 129.044 97.4231C131.256 99.1356 128.388 101.173 131.075 103.234C132.744 104.514 139.655 104.844 141.167 103.626C141.372 103.461 141.677 103.211 141.626 102.908L139.595 103.756C136.882 103.714 132.175 104.75 130.813 101.798L142.019 101.471L130.682 101.014L147 101.079L146.803 127L139.136 126.674V122.364C139.342 121.901 142.466 122.401 143.068 120.667C143.759 118.674 142.913 113.266 143.461 110.873L134.68 108C137.364 107.926 141.769 109.056 141.888 105.127L130.682 104.932L141.299 105.323C141.497 105.977 141.048 106.799 140.512 107.151C139.473 107.836 134.269 107.736 132.91 107.543C132.269 107.452 125.915 105.601 125.767 105.258C126.052 103.16 125.829 101.079 125.636 98.9901C126.118 98.0551 129.99 90.9958 129.699 90.6328C129.625 90.5408 129.221 90.5362 129.109 90.5675C128.784 90.6581 126.913 94.8043 126.488 95.3991L120 95.3338V61.2518C121.023 61.2365 122.065 61.1045 123.08 61.0559ZM135.007 61.97C130.13 66.134 125.657 70.7847 121.311 75.4853L128.257 68.8256L135.007 61.97ZM136.056 62.7535C131.498 67.1668 126.64 71.3214 122.49 76.1382L129.437 69.4785L136.056 62.7535ZM137.235 70.8496C136.43 71.478 135.722 72.2219 135.073 73.0042C132.863 75.6683 128.865 80.8544 127.078 83.712C126.846 84.0822 126.48 84.6349 126.488 85.0831L137.235 70.8496ZM138.153 72.9389C135.544 76.1951 132.399 79.0024 129.896 82.3408L134.286 77.7052L138.153 72.9389ZM136.842 102.451C136.438 102.444 135.566 102.672 135.073 102.646L137.891 102.842C138.024 102.338 137.133 102.455 136.842 102.451ZM132.124 106.107C131.841 106.287 131.879 106.751 131.993 107.021C132.428 107.006 131.821 106.511 132.255 106.368C132.417 106.315 135.499 106.32 135.663 106.368C135.907 106.44 135.825 106.859 135.925 106.89C136.021 106.921 137.042 105.471 137.367 106.89C138.045 106.913 137.932 106.262 137.367 106.107C137.11 106.037 132.345 105.966 132.124 106.107Z" fill="#FEFEFE"/>
<path d="M59.4524 61L78 61.1969L77.9354 95.5151C77.6593 95.4654 76.5619 95.6112 76.449 95.4495C76.0025 94.8107 76.5958 86.9651 75.9966 85.5412L61.5204 85.2787C61.3331 85.3363 60.9747 86.0777 60.9388 86.263C60.669 87.6526 61.3237 94.9473 61.068 95.3183C60.9913 95.4296 59.3795 95.4113 59.3878 95.712C62.1062 96.1456 61.4771 97.3653 59 96.8931V61.1969L59.4524 61ZM74.1871 62.5748C69.7195 66.8984 65.0872 71.1885 61.3912 76.2234L74.1871 62.5748ZM75.3503 63.756C70.811 68.2933 65.7964 72.3996 62.0374 77.667L75.3503 63.756ZM76.5136 73.5987C76.0902 73.6551 74.6957 75.2226 74.381 75.6328L69.7925 82.7852L76.8367 73.6643C76.7831 73.5651 76.6142 73.5853 76.5136 73.5987ZM76.7721 75.9609C75.24 77.7182 73.5466 79.4278 72.3776 81.4729L74.8333 78.5857L76.7721 75.9609Z" fill="#FEFEFE"/>
<path d="M80.0651 61H98.6747L99 61.4542V84.0344C96.1147 84.3162 88.8813 83.5472 86.7021 85.2672C83.8537 87.5152 87.0748 92.3365 87.613 95L80 94.9351L80.0651 61ZM94.5103 61.7786C90.9621 64.9301 87.4484 68.2587 84.1644 71.7061C83.9016 71.9819 80.6698 75.2032 81.1062 75.4046L94.5103 61.7786ZM95.6815 62.5573C91.0331 66.8237 86.4104 71.1355 82.0822 75.729C84.5872 73.8345 86.7967 71.4908 89.0445 69.3053C91.301 67.1114 93.6437 64.9598 95.6815 62.5573ZM96.8527 70.6031C96.0671 71.2476 95.3551 71.9653 94.7055 72.7443C92.6087 75.259 89.6858 79.2379 87.8082 81.958C87.7028 82.1108 86.8529 83.3361 87.0925 83.4504L96.8527 70.6031ZM97.7637 72.6794C95.159 75.9017 92.0516 78.7066 89.5651 82.0229L93.9247 77.416L97.7637 72.6794Z" fill="#FEFEFE"/>
<path d="M95 62L81.0421 75C80.5877 74.8078 83.9531 71.7345 84.2267 71.4714C87.6464 68.1824 91.3052 65.0067 95 62Z" fill="#060707"/>
<path d="M135 62L128.593 68.5942L122 75C126.126 70.4786 130.37 66.0053 135 62Z" fill="#030303"/>
<path d="M115 62L102 76C105.556 70.7081 110.537 66.5058 115 62Z" fill="#040504"/>
<path d="M74 63L62 76C65.4662 71.2044 69.8103 67.1181 74 63Z" fill="#060706"/>
<path d="M96 63C93.9021 65.3713 91.4904 67.4948 89.1675 69.6601C86.8534 71.8171 84.5788 74.1302 82 76C86.4558 71.4664 91.2147 67.2108 96 63Z" fill="#050606"/>
<path d="M136 63L129.657 69.5317L123 76C126.976 71.3216 131.632 67.2864 136 63Z" fill="#050705"/>
<path d="M116 63L109.626 69.9352L103 77C106.737 71.7623 111.845 67.8441 116 63Z" fill="#121212"/>
<path d="M76 64L62 77C65.953 72.0775 71.2264 68.2402 76 64Z" fill="#10100F"/>
<path d="M97 71L87.0432 83C86.7988 82.8932 87.6659 81.7487 87.7734 81.6061C89.6888 79.0653 92.6705 75.3488 94.8095 73C95.4722 72.2724 96.1985 71.6021 97 71Z" fill="#040404"/>
<path d="M137 71L127 85C126.993 84.5592 127.334 84.0155 127.549 83.6514C129.212 80.8407 132.932 75.7397 134.988 73.1193C135.592 72.3498 136.25 71.6181 137 71Z" fill="#030404"/>
<path d="M98 73L94.254 77.5625L90 82C92.4263 78.8056 95.4584 76.1039 98 73Z" fill="#181818"/>
<path d="M138 73L134.254 77.5625L130 82C132.425 78.8042 135.473 76.117 138 73Z" fill="#181818"/>
<path d="M117 73L110.037 83C109.636 82.798 112.645 78.8993 112.861 78.5634C114.109 76.6286 114.925 74.2161 117 73Z" fill="#0D0E0E"/>
<path d="M76.6789 73.0123C76.7788 72.9977 76.9467 72.9757 77 73.0836L70 83L74.5596 75.2238C74.8724 74.7778 76.2581 73.0736 76.6789 73.0123Z" fill="#0C0D0D"/>
<path d="M77 76L75.2353 78.381L73 81C74.0641 79.1449 75.6054 77.594 77 76Z" fill="#242223"/>
<path d="M118 76L115.574 78.3837L113 81C114.034 79.0906 116.267 77.5074 118 76Z" fill="#262626"/>
<path d="M52.3274 82.0231C52.9578 81.7182 53.2246 84.5194 52.7785 85C51.7866 84.8693 51.8687 82.245 52.3274 82.0231Z" fill="#FBFBFB"/>
<path d="M53 83.0067C53.3855 82.8242 54.8267 86.4355 53.3449 85.9561C52.9201 85.8187 53.1118 83.5209 53 83.0067Z" fill="#F5F5F5"/>
<path d="M51.2629 84C52.631 85.1648 53.1291 84.9978 52.8388 87.0469L51.6776 86.4219C52.3816 87.0747 53.4964 87.9131 52.7559 89C52.6212 88.5316 51.0649 87.4205 51.0141 87.2031C50.9162 86.7842 51.3635 84.652 51.2629 84Z" fill="#FCFBFC"/>
<path d="M94.858 85.0417C97.6983 84.913 110.197 85.0146 112.086 86.3325C113.059 87.0109 113.073 88.2953 112.941 89.3657C112.902 89.6822 111.259 94.3043 111.1 94.5287C110.726 95.0553 109.273 95.0185 108.667 94.9804C104.047 94.6905 101.067 93.5793 95.9102 93.9478C93.7543 94.1018 89.8157 95.7162 88.6111 93.4961C88.3401 92.9964 87.0906 89.481 87.033 88.9785C86.5419 84.6889 91.6474 85.1872 94.858 85.0417Z" fill="#FEFEFE"/>
<path d="M53.7369 86C54.3646 86.9288 53.7408 87.3188 53.2013 88C52.8593 87.2748 52.9007 86.2703 53.7369 86Z" fill="#FBFCFB"/>
<path d="M54.2297 88.8272C54.201 88.7868 54.078 88.4927 54 88.5716C54.3107 87.8908 54.781 87.2407 55.321 86.7827C55.5437 86.5938 56.6833 85.7377 56.8718 86.0799C57.1963 87.7099 56.8966 89.6672 56.0677 91.0634C54.721 93.3316 53.5072 90.8725 55.9528 90.0411L54.8615 90.4884C54.67 89.2296 56.0698 88.7537 56.8718 88.2522C56.7872 87.8876 55.3256 88.9512 55.1487 89.0189L56.1251 86.6549L54.8041 89.1467C54.4263 89.6304 54.4108 89.0816 54.2297 88.8272Z" fill="#FAFAFA"/>
<path d="M62.1998 86L64.832 86.1971L65 100.98C64.5933 100.905 62.4112 101.107 62.2558 100.914C61.8192 100.372 62.0397 87.6697 62.1998 86ZM62.8718 86.5256C62.8093 86.5404 62.3808 86.7663 62.3678 86.8541C62.5624 87.4535 63.3902 86.8588 63.8239 87.3797C63.6831 87.9028 62.8687 87.3693 62.7038 87.6425C62.5194 87.9481 63.1299 94.1493 62.7038 95.1323C63.3457 95.7095 63.8223 95.3241 64.496 95.1323L64.384 86.8541C64.2624 86.4795 63.1823 86.4518 62.8718 86.5256ZM64.2159 97.169C64.1523 97.211 64.1374 98.7381 64.44 98.7458C65.0138 98.7603 64.9105 96.7097 64.2159 97.169Z" fill="#FCFCFC"/>
<path d="M66.3261 86H68.6739L69 86.3289L68.9348 101L66 100.803L66.1304 95.0132C66.8387 95.3126 67.6844 95.2768 68.3478 94.8816L67.6957 94.6184L68.2174 87.3816C68.0502 86.7559 65.1697 87.9887 66.3261 86ZM66.9783 97.0526C65.9434 97.3351 66.2558 99.3916 67.7609 99.0263C69.0252 98.7195 68.802 96.5547 66.9783 97.0526Z" fill="#FCFCFC"/>
<path d="M69.2 86L71.9333 86.1974L72 101L69 100.803L69.1333 95.0132H71.2667C71.4203 94.7725 70.8079 94.8653 70.7333 94.6184C70.2951 93.1664 70.9436 88.9091 71.1333 87.25C69.8812 86.913 68.7321 87.9674 69.2 86ZM70 97.0526C69.0257 97.2974 69.0661 99.3699 70.6667 99.0263C72.0748 98.7241 71.8424 96.59 70 97.0526Z" fill="#FCFCFC"/>
<path d="M73.2 86L75.9333 86.1982L76 100.934L73 101V95.185C73.3415 95.1845 75.1509 95.2396 75.2667 95.0529C75.3163 94.9728 74.7729 94.7944 74.7333 94.6564C74.3239 93.2312 74.8469 88.86 75.1333 87.2555C74.9435 86.7693 72.3489 88.017 73.2 86ZM74 97.1013C72.8023 97.3383 73.0792 99.3944 74.5333 99.0837C75.8007 98.8129 75.9109 96.7232 74 97.1013Z" fill="#FCFCFC"/>
<path d="M49.1545 86.0184C49.4216 85.7317 51.9091 88.8914 51.989 89.3667C52.0999 90.0267 51.3298 92.0957 51.6282 93C50.765 91.9158 51.2537 91.5069 51.4736 90.2216L50.9067 91.4327C50.532 90.5184 50.9915 89.3074 51.0098 88.2981L50.4944 90.2928C50.2741 89.3959 49.7826 88.4995 50.1337 87.5144C49.3503 88.3032 49.9877 86.9919 49.3607 86.5883C49.3315 87.3105 49.9964 88.3836 49.2061 88.3693C49.9213 88.7123 49.8597 89.5244 50.1337 90.3641C48.6114 90.3923 49.0138 87.4792 49.1545 86.0184Z" fill="#FBFBFB"/>
<path d="M62.7105 86.033C63.1482 85.9587 64.6708 85.9866 64.8421 86.3635L65 94.6934C64.0504 94.8864 63.3786 95.2742 62.4737 94.6934C63.0743 93.7043 62.2136 87.4644 62.4737 87.1569C62.7061 86.882 63.8542 87.4188 64.0526 86.8924C63.4413 86.3683 62.2743 86.9667 62 86.3635C62.0183 86.2752 62.6224 86.0479 62.7105 86.033ZM63.0263 87.6196C62.7074 87.809 63.5343 93.3548 63.2632 94.1645C63.3421 94.258 63.9292 94.2586 63.9737 94.2306C64.2904 94.0314 64.1404 87.8098 63.8158 87.6196C63.7834 87.6007 63.0585 87.6005 63.0263 87.6196Z" fill="#080909"/>
<path d="M73.1138 87.0006C73.1546 86.9854 73.78 87.2503 73.9463 87.2149C73.8167 88.1625 74.1163 94.4713 73.9463 94.7857C73.8476 94.9681 73.465 94.7183 73.3358 95C73.1811 94.2243 72.8152 87.1123 73.1138 87.0006Z" fill="#FBFBFB"/>
<path d="M66 87L67 87.0727V94.7818L66.4706 95L66.0588 94.7818L66 87Z" fill="#FBFBFB"/>
<path d="M70 87.033C70.0627 86.9746 70.8476 86.9652 70.9443 87.2503C71.2033 88.0134 70.4466 93.4861 70.9443 94.7827L70.3333 95L70 87.033Z" fill="#FBFBFB"/>
<path d="M63.0622 88.0129C63.0891 87.9956 63.6948 87.9958 63.7219 88.0129C63.9931 88.1847 64.1185 93.8054 63.8538 93.9854C63.8166 94.0107 63.326 94.0101 63.2601 93.9257C63.4866 93.1942 62.7956 88.184 63.0622 88.0129Z" fill="#F9F9F9"/>
<path d="M53.581 89.3077C53.8973 90.0719 54.2703 90.0052 53.7149 91C52.7785 90.1205 52.841 89.9148 53.4471 89C53.3355 89.2115 53.5746 89.2922 53.581 89.3077Z" fill="#F6F7F6"/>
<path d="M52.9803 90.0003C53.3464 90.0199 55.5665 93.9956 52.0084 92.763C51.9341 92.409 52.3619 89.9674 52.9803 90.0003Z" fill="#FAFAFB"/>
<path d="M49 90C50.2178 90.1599 50.7142 91.0706 51 92L49 90Z" fill="#E4E6E7"/>
<path d="M57.0203 90L56.9455 97.1866L57.4692 97.5224C59.4951 97.2313 62.8337 95.8871 61.8091 99L55.449 98.7985C55.6665 97.5839 56.4992 93.7378 56.0476 92.7537C55.8949 92.4211 55.0682 92.7893 55 92.6194L57.0203 90Z" fill="#FCFCFD"/>
<path d="M54.1122 92.1784C55.7863 91.4387 54.683 93.2569 54.1122 92.9687C53.9618 92.8929 53.9634 92.2441 54.1122 92.1784Z" fill="#F3F5F7"/>
<path d="M135.189 93.0014C135.438 93.0093 135.689 92.9959 135.939 93.0014C136.261 93.6383 135.225 96.0134 134.813 95.9999C134.676 95.9955 133.075 93.8405 133 93.3959C133.06 93.1983 134.939 92.9935 135.189 93.0014Z" fill="#FCFCFC"/>
<path d="M54.1656 94C54.397 93.9999 56.9366 93.9993 55.6266 94.7143C55.0752 95.0153 51.9861 94.4243 51.1218 95L51 94.1429C52.0465 94.2951 53.1373 94.0003 54.1656 94Z" fill="#F6F6F6"/>
<path d="M53.957 95.0241C54.3065 95.0212 55.837 94.9029 55.9782 95.2181C56.1209 96.1454 55.5465 100.637 54.7394 100.975C54.6613 101.008 53.1215 101.009 53.0442 100.975C52.4145 100.695 50.7885 96.1703 51.0229 95.2181C51.9805 95.2329 53.0144 95.0317 53.957 95.0241Z" fill="#FEFEFE"/>
<path d="M95.6147 95.0487C97.016 94.9767 98.7035 94.9912 100.11 95.0487C103.385 95.1825 106.783 96.3236 110 95.6952L108.908 103L90.6055 102.935L89 95.2427C91.113 96.2467 93.4435 95.1603 95.6147 95.0487Z" fill="#FEFEFE"/>
<path d="M77 96.0072H87.1887C87.6812 95.9135 88.0789 96.7678 87.9866 96.8742C87.6654 97.2444 78.3028 96.6638 77 96.8232V96.0072Z" fill="#FBFBFB"/>
<path d="M111.369 96L126 96.15L125.291 97H111.112C110.809 96.9077 111.199 96.0422 111.369 96Z" fill="#FCFCFC"/>
<path d="M66.5539 97.0708C68.223 96.5946 68.4272 98.6651 67.2701 98.9586C65.8927 99.3079 65.6068 97.341 66.5539 97.0708ZM67.0314 97.3225C66.7317 97.322 66.1878 98.0861 66.6733 98.3293C67.3751 98.6809 67.8521 97.324 67.0314 97.3225Z" fill="#080807"/>
<path d="M70.5845 97.0629C72.2397 96.6175 72.4485 98.6721 71.1834 98.9631C69.7455 99.2939 69.7092 97.2986 70.5845 97.0629ZM70.9439 97.3163C70.6255 97.3472 70.1545 98.1206 70.5845 98.3297C71.4513 98.7513 71.8364 97.2295 70.9439 97.3163Z" fill="#060706"/>
<path d="M73.6781 97.0443C75.4038 96.6772 75.3042 98.7061 74.1597 98.969C72.8465 99.2707 72.5964 97.2743 73.6781 97.0443ZM73.7985 97.4292C73.3484 97.5941 73.2836 98.6454 74.1597 98.3274C74.6633 98.1447 74.5537 97.1524 73.7985 97.4292Z" fill="#080807"/>
<path d="M64.0591 97.0408C65.1564 96.7614 65.3196 98.0088 64.413 98C63.9351 97.9953 63.9586 97.0664 64.0591 97.0408Z" fill="#080908"/>
<path d="M67.5607 97C68.3945 97.0014 67.9099 98.2755 67.1968 97.9454C66.7036 97.7169 67.2562 96.9995 67.5607 97Z" fill="#F6F5F6"/>
<path d="M70.5111 97.0033C71.3688 96.9237 70.9988 98.3186 70.1658 97.9322C69.7525 97.7405 70.2052 97.0316 70.5111 97.0033Z" fill="#F9F9FA"/>
<path d="M74.3256 97.0481C75.0867 96.773 75.1971 97.7592 74.6896 97.9408C73.8066 98.2568 73.8719 97.212 74.3256 97.0481Z" fill="#F5F5F5"/>
<path d="M77 97.0478C78.8912 97.5718 87.4423 96.6204 88.5378 97.1873C88.7031 97.2727 89.0752 98.739 88.9865 98.9303L77.1282 99L77 97.0478Z" fill="#FCFCFC"/>
<path d="M143.8 97C144.261 97.0837 146.917 99.1099 147 99.6512L146.872 99.9302L131.064 100L131 97.1395L143.8 97ZM133.432 97.6977C133.332 97.7063 133.404 97.9674 133.304 97.9767C131.718 98.1251 131.515 97.8718 132.152 99.9302C132.386 99.669 132.157 98.3593 132.408 98.2558C132.717 98.1287 135.218 97.8343 134.84 98.814C135.103 97.1302 137.003 99.2642 136.504 97.8372C135.571 97.8799 134.629 97.9103 133.688 97.9767C133.592 97.9836 133.714 97.6731 133.432 97.6977Z" fill="#FDFDFD"/>
<path d="M111.354 97.1289C112.97 97.4429 124.26 96.72 124.81 97.1289C124.88 97.1813 124.972 98.6762 125 98.9331L111.227 98.9999C110.688 99.0169 111.266 97.1764 111.354 97.1289Z" fill="#FDFCFC"/>
<path d="M132.694 98.0012C132.99 97.9793 132.861 98.2572 132.962 98.2511C133.948 98.1916 134.935 98.1644 135.913 98.1262C136.436 99.4037 134.445 97.4932 134.169 99.0006C134.566 98.1235 131.945 98.3871 131.621 98.5009C131.358 98.5936 131.598 99.7661 131.353 100C130.686 98.1571 130.899 98.3839 132.56 98.2511C132.665 98.2427 132.59 98.009 132.694 98.0012Z" fill="#121210"/>
<path d="M59 100H60.916C61.3776 101.569 59.8235 100.773 59 100.957V100Z" fill="#FBFBFB"/>
<path d="M77.1611 100C77.5029 100.354 78.4602 99.9691 78.7363 100.133C78.8257 100.186 79.0168 100.833 78.9988 100.866C78.9258 101 76.3392 101.322 77.1611 100Z" fill="#F6F5F5"/>
<path d="M88.6699 100.002C89.2166 99.883 89.0065 104.698 88.6011 104.978C88.5021 105.046 88.2488 104.93 88.1198 104.978C87.8001 104.715 88.1669 100.31 88.6699 100.002Z" fill="#FCFCFC"/>
<path d="M110.402 100C111.799 100.025 112.32 104.685 111.806 104.888C109.335 105.865 109.981 100.134 110.402 100Z" fill="#FCFCFC"/>
<path d="M55.3633 100.012C56.0262 99.8938 56.2098 100.695 55.7313 100.919C54.8799 101.318 54.7919 100.113 55.3633 100.012Z" fill="#EFEDEC"/>
<path d="M113 100H124.938L125 104.882C124.86 105.279 123.996 104.549 123.819 104.547C123.455 104.544 123.015 104.816 122.948 104.815C122.148 104.803 117.372 104.805 117.104 104.681C116.94 104.606 115.72 101.866 114.368 102.809C113.803 103.443 113.938 104.194 114.554 104.748L113.497 104.815L113 100Z" fill="#FEFEFE"/>
<path d="M86.5824 101.004C86.7006 101.008 86.8519 100.979 86.9284 101.038C87.7549 101.676 81.1058 102.545 83.5382 101.545C83.6622 101.494 86.4208 100.999 86.5824 101.004Z" fill="#FBFBFB"/>
<path d="M49.5777 101H82.5563C83.4449 101.178 82.7833 102.422 82.4275 103H46.2284C44.9707 102.082 49.3057 101.26 49.5777 101Z" fill="#FCFDFD"/>
<path d="M86.5762 103.006C86.7181 103.015 86.9112 102.963 87 103.061V104.945L84.0333 105C83.937 104.977 84.076 103.783 84.1181 103.726C84.2505 103.545 86.4421 102.998 86.5762 103.006Z" fill="#FDFDFD"/>
<path d="M90.2959 103.007C90.3916 102.93 92.1905 103.523 92.7004 103.538C97.5851 103.683 101.594 103.45 106.727 103.804C107.429 103.852 109.399 103.494 109.532 103.538C109.797 103.626 109.861 104.543 110 104.801L90.0287 105C89.9049 104.913 90.2172 103.07 90.2959 103.007Z" fill="#FCFDFD"/>
<path d="M83.5045 103.018C84.6198 102.758 83.571 105.41 83.0914 104.945C82.8464 104.707 83.1313 103.105 83.5045 103.018Z" fill="#F8F9F9"/>
<path d="M57.6475 103.017L58 103.458C57.9792 103.893 57.7083 104.101 57.6475 104.339C57.5769 104.616 57.5598 104.673 57.5301 105H50.1286C50.1413 104.814 49.796 104.114 50.1873 103.678H57.4713L56.5902 103.127C56.927 102.908 57.3006 103.045 57.6475 103.017Z" fill="#4A494C"/>
<path d="M68.9153 103.989C65.4124 103.933 61.9022 104.031 58.3993 103.989L58 103.273C61.3317 102.895 65.2458 102.924 68.5825 103.273C68.7023 103.285 69.195 103.375 68.9153 103.989Z" fill="#B4B6BB"/>
<path d="M75 103.538C74.3903 104.332 73.6448 103.84 73 103.935C73.3086 102.369 74.55 103.159 75 103.538Z" fill="#C7C4C9"/>
<path d="M81.9634 103.939C81.6637 103.712 80.7608 104.623 81.0599 103.057C81.269 103.051 82.1937 102.674 81.9634 103.939Z" fill="#C0C1C5"/>
<path d="M115.035 104C116.3 104.135 116 105.003 116.663 105.707C118.53 105.745 121.825 105.385 123.551 105.707C124.535 105.891 126.841 107.43 127.996 107.72C124.734 108.028 121.383 107.437 118.166 107.902C121.098 108.032 124.276 107.82 127.182 108.024C128.145 108.092 129.217 108.102 130 108.695L117.665 109L115.974 105.89L117.79 108.146C118.343 107.292 114.601 104.221 115.035 104Z" fill="#FCFCFC"/>
<path d="M71.9759 104.778C67.877 105.11 63.5521 104.638 59.4368 105C59.4015 104.887 59.2382 104.342 59.1102 104.333C58.9476 104.365 58.6557 104.787 58.6531 104.889H58.5225L58 104.556C58.0675 104.435 58.3687 104.33 58.3918 104.111C61.829 104.124 65.2733 104.094 68.7105 104.111C70.1393 104.118 71.4474 104.162 72.8902 104.111C73.6481 104.085 74.5246 104.222 75.2413 104C75.3958 104.031 76.1856 104.097 75.9596 104.333C74.9149 104.44 73.7196 104.332 72.6943 104.444C72.3647 104.481 72.0166 104.774 71.9759 104.778Z" fill="#403E41"/>
<path d="M47 104.026C47.0656 103.989 48.2539 103.953 48.3878 104.216L48.0612 127.899C48.7562 128.779 49.8402 128.273 51 128.281L47 130V104.026Z" fill="#FCFCFC"/>
<path d="M72 105L70.3073 106.111L59.3385 109C58.9774 108.891 59.1999 105.841 59 105.222C63.2666 104.86 67.7505 105.332 72 105Z" fill="#FDFDFD"/>
<path d="M76.4559 105.029C78.1604 104.932 79.8658 105.096 81.5539 105.27C81.8333 105.397 81.5869 106.433 81.6176 106.774C81.623 106.833 81.9977 107.079 82 107.135C82.0042 107.236 81.2735 108.969 81.1716 109L69 108.699C69.8231 108.249 72.1372 105.736 72.7598 105.51C73.0367 105.41 76 105.055 76.4559 105.029Z" fill="#FDFDFD"/>
<path d="M57.9519 105C57.699 106.419 58.1397 108.48 57.9519 109.975C56.1133 111.263 55.2568 109.257 54.9797 112.171C54.8638 113.39 54.76 114.374 56.1956 114.626V127.935L49.1027 128C49.0179 123.901 48.9591 119.766 49.0352 115.66C49.0966 112.341 49.0104 108.23 49.4405 105H57.9519Z" fill="#FEFEFE"/>
<path d="M58.4174 105.002C58.417 105.016 58.7828 104.96 58.7833 105.069C58.7872 105.739 59.1013 109.555 58.9663 109.768C58.8514 109.95 58.2864 110.056 58.1429 109.97C57.8808 109.812 58.02 105.58 58.2344 105.002H58.4174Z" fill="#F7F7F7"/>
<path d="M83.9976 106H114.854L117.067 109.718L129.827 109.59C130.309 109.415 131.762 109.194 131.584 108.5L129.696 107.282L142 110.936L59 111L68.8298 107.859C68.3022 108.532 66.7925 108.946 67.9835 109.846H81.9145C83.6844 109.513 83.2068 107.159 83.9976 106Z" fill="#FDFEFE"/>
<path d="M132.219 106.082C132.442 105.94 137.267 106.011 137.527 106.082C138.099 106.237 138.213 106.892 137.527 106.869C137.198 105.443 136.165 106.899 136.067 106.869C135.967 106.837 136.049 106.417 135.802 106.344C135.637 106.296 132.515 106.291 132.352 106.344C131.913 106.487 132.527 106.985 132.086 107C131.971 106.729 131.933 106.263 132.219 106.082Z" fill="#101212"/>
<path d="M82.9808 106C83.1238 106.055 82.4357 109.189 82 108.991L82.9808 106Z" fill="#E8EBE9"/>
<path d="M148.083 107C148.577 107.343 154.418 109.458 153.976 110C153.231 109.954 148.272 110.037 148.083 109.83C147.984 109.721 147.961 107.086 148.083 107Z" fill="#FCFCFC"/>
<path d="M147.891 111L149 111.196L148.935 135L146 132.978C147.838 132.734 147.513 132.496 147.696 130.761C148.355 124.485 147.059 117.429 147.891 111Z" fill="#FCFCFC"/>
<path d="M142.416 111C142.964 111.09 143.599 113.447 141.892 112.924C141.355 112.759 142.613 112.314 140.975 112.114L56.0176 112.266C56.0519 111.793 55.8032 111.402 56.4761 111.203L142.416 111Z" fill="#FBFBFB"/>
<path d="M57 113.315V113L141 113.473C113.01 113.525 84.9886 114.728 57 113.315Z" fill="#74757A"/>
<path d="M57.2005 114.035C57.2758 113.977 57.9095 113.96 58 114.233L57.9619 128L57.0102 127.934C57.1009 126.38 56.8336 114.318 57.2005 114.035Z" fill="#FDFCFC"/>
<path d="M60 114.048L75.7934 114.185L75.9188 117.212C76.4126 116.737 75.5995 113.155 76.9215 114.185C77.0919 114.318 76.9223 118.089 76.9842 118.656L60 119V114.048Z" fill="#FEFEFE"/>
<path d="M113.25 114.098C113.555 113.941 119.89 113.949 120 114.296L119.818 142L116.838 137.702L116.595 117.734L116.169 117.272L111 117.205C112.163 117.173 113.081 114.185 113.25 114.098Z" fill="#FDFDFD"/>
<path d="M121.063 114.028C121.147 113.962 121.669 114.007 121.756 114.225L121.819 142.607L122.322 115.863L136.489 116.322L136.741 142.672C136.806 142.797 136.963 142.599 136.993 142.541C137.617 141.319 137.33 118.146 137.244 114.88C137.244 114.845 137.061 114.321 136.993 114.225H138L137.811 143L121 142.672L121.063 114.028ZM133.026 117.174C131.079 116.952 127.965 117.516 125.911 117.502L133.026 117.568C133.398 120.618 127.013 119.92 125.974 117.961C126.567 120.428 133.511 120.77 133.593 117.502C133.56 117.38 133.164 117.19 133.026 117.174Z" fill="#FEFEFE"/>
<path d="M122 114L137 114.141C137.004 114.386 136.94 115.78 136.867 115.835C136.079 116.425 123.921 115.206 122 115.693V114Z" fill="#FCFDFD"/>
<path d="M142.158 114.012C142.359 114.015 142.845 113.953 142.96 114.083C142.811 114.926 143.658 121.64 141.446 120.95C140.863 120.769 141.404 115.113 141 114.225C141.264 114.246 142.099 114.011 142.158 114.012Z" fill="#FCFCFC"/>
<path d="M78 114H84.8372C85.0069 115.503 85.5095 116.269 87 116.921C86.7666 117.275 81.3621 116.506 80.8605 117.44L80.7209 137.171C80.2439 138.61 78.954 139.676 78.1395 141L78 114Z" fill="#FDFDFD"/>
<path d="M86 114L112 114.073C110.994 116.038 110.057 116.381 108.231 116.905C103.536 118.255 96.254 118.304 91.4939 117.341C89.7204 116.983 86.2882 116.397 86 114Z" fill="#FDFDFD"/>
<path d="M139.236 114L140.628 114.202C140.17 115.174 141.099 120.035 140.991 120.405C140.896 120.734 139.186 121.152 139.054 120.945C139.181 120.31 138.884 118.434 139.054 117.978C139.177 117.65 141.346 117.011 139.72 115.214C139.221 116.024 140.293 116.887 139.175 117.304L139.236 114Z" fill="#FCFCFC"/>
<path d="M133.41 117.056C133.553 117.074 133.966 117.28 134 117.413C133.915 120.965 126.683 120.593 126.066 117.911C127.148 120.04 133.797 120.8 133.41 117.484L126 117.413C128.139 117.427 131.382 116.815 133.41 117.056Z" fill="#141514"/>
<path d="M82 118.084C84.4797 118.279 87.282 117.821 89.7215 118.084C89.9944 118.113 92.3829 118.565 92.5063 118.641C92.7856 118.813 92.9403 120.059 93.2025 120.522C94.0568 122.028 95.5256 122.417 97 122.751V126.791L82 127V118.084Z" fill="#FEFEFE"/>
<path d="M107.453 118.098C110.097 117.811 113.302 118.255 116 118.167L115.932 127L100 126.791V122.618C101.822 122.321 103.226 121.739 104.239 120.115C104.48 119.729 104.432 118.847 104.718 118.654C104.834 118.576 107.191 118.126 107.453 118.098Z" fill="#FEFEFE"/>
<path d="M94 119L104 119.162C103.424 119.904 102.563 120.691 101.413 120.841C99.3087 121.116 94.1729 121.304 94 119Z" fill="#FCFDFD"/>
<path d="M60 119L76.8118 119.138L77 126.655L60.1255 127L60 119ZM65.3948 119.69C64.3326 119.912 64.5495 120.608 65.0812 121.414C66.2914 123.247 72.3066 123.275 72.2325 120.034C72.1908 119.925 71.765 119.716 71.6679 119.69C71.2628 119.58 65.8834 119.587 65.3948 119.69ZM60.5646 122.724C60.5544 122.984 60.5018 125.483 60.6273 125.483C60.7563 124.573 60.6698 123.639 60.69 122.724C60.6994 122.299 60.9904 121.579 60.7528 121.069C60.4474 121.578 60.5863 122.168 60.5646 122.724ZM76.1845 122.172C76.1247 122.469 76.0338 125.482 76.1845 125.483C76.5329 124.399 76.3433 123.264 76.1845 122.172Z" fill="#FEFEFE"/>
<path d="M64.7956 120.078C65.3103 119.978 70.9777 119.97 71.4045 120.078C71.5068 120.104 71.9554 120.31 71.9993 120.417C72.0774 123.604 65.7401 123.576 64.4651 121.774C63.9049 120.981 63.6764 120.297 64.7956 120.078ZM64.9277 120.621C64.8459 120.645 64.4444 120.854 64.6634 121.028C66.9152 121.352 69.2235 121.456 71.4706 120.96C71.5587 120.815 71.0734 120.637 71.0079 120.621C70.666 120.539 65.2202 120.536 64.9277 120.621ZM71.0079 121.435L64.9938 121.638C66.2087 122.705 70.1977 122.914 71.0079 121.435Z" fill="#070807"/>
<path d="M65.3346 120.084C65.6321 119.97 71.1708 119.974 71.5186 120.084C71.5852 120.105 72.0788 120.345 71.9891 120.54C69.7037 121.208 67.3559 121.067 65.0657 120.632C64.8429 120.398 65.2513 120.116 65.3346 120.084Z" fill="#F6F5F6"/>
<path d="M71 121C70.1916 122.4 66.212 122.203 65 121.193L71 121Z" fill="#F1F0F1"/>
<path d="M98.2727 122.027C98.3438 121.991 99.8364 121.947 100 122.219L99.7273 131L98 130.808C98.5951 129.755 97.7658 122.282 98.2727 122.027Z" fill="#FBFCFC"/>
<path d="M139.128 127.057C139.778 126.764 145.58 127.716 146.798 127.328L147 132C145.998 131.784 139.449 131.891 139.128 131.661C139.013 131.579 139.016 128.904 139.128 128.818C139.977 128.941 145.415 132.177 145.789 131.187C145.964 130.725 139.93 128.076 139.262 128.14C139.036 127.991 138.876 127.17 139.128 127.057Z" fill="#FCFDFD"/>
<path d="M60 127L76.9373 127.14L77 134.789L60.1255 135L60 127ZM65.0184 127.702C63.8295 128.126 65.6399 130.307 66.7749 130.509C67.4086 130.621 70.0715 130.57 70.6642 130.368C71.4107 130.115 73.0073 128.115 71.7934 127.702C71.4693 127.592 65.3411 127.587 65.0184 127.702ZM60.7528 129.105C60.377 130.5 60.5898 132.16 60.6273 133.596C60.6459 132.101 60.8643 130.602 60.7528 129.105ZM76.1845 130.228C76.0338 130.229 76.1247 133.294 76.1845 133.596C76.5719 132.508 76.3187 131.328 76.1845 130.228Z" fill="#FEFDFE"/>
<path d="M64.4093 128.086C64.7487 127.969 71.195 127.974 71.5359 128.086C72.8128 128.506 71.1333 130.54 70.3481 130.798C69.7247 131.003 66.9235 131.055 66.2569 130.941C65.063 130.736 63.1586 128.517 64.4093 128.086ZM66.6529 128.514C66.0344 128.556 65.1872 128.608 64.6073 128.871C64.6075 129.289 70.8687 129.436 71.4699 128.871C71.47 128.504 67.0562 128.487 66.6529 128.514ZM64.9372 129.513C66.1837 130.969 69.5489 130.827 70.942 129.727L64.9372 129.513Z" fill="#090A09"/>
<path d="M67.0865 128.012C67.4979 127.975 72.0001 127.998 72 128.496C71.3868 129.264 65.0003 129.064 65 128.496C65.5915 128.139 66.4557 128.069 67.0865 128.012Z" fill="#F5F5F5"/>
<path d="M65 129L71 129.201C69.608 130.233 66.2455 130.366 65 129Z" fill="#F9F9F9"/>
<path d="M76.2855 130C76.751 130.979 77.6289 132.031 76.2855 133C76.078 132.731 75.763 130.001 76.2855 130Z" fill="#1B201D"/>
<path d="M98.2141 132C98.8389 132.478 100.402 132.034 99.9036 133.648C99.6081 134.606 97.2964 133.46 98.2141 132Z" fill="#F9F9F9"/>
<path d="M96.4214 134.002C97.1099 133.979 96.7044 134.14 97 134.586C93.9586 135.806 90.9066 137.339 88 139C89.022 138.137 90.1369 137.29 91.2786 136.598C91.8395 136.259 96.1341 134.012 96.4214 134.002Z" fill="#FAFAF9"/>
<path d="M98.1976 134.002C98.2853 133.979 99.9329 134.179 100 134.319L98.5409 142C98.302 141.193 97.6859 134.131 98.1976 134.002Z" fill="#FBFBFB"/>
<path d="M100.086 134C103.074 135.449 107.044 136.357 109 139C108.261 138.541 107.605 137.957 106.824 137.544C105.266 136.721 101.503 135.585 100.367 134.759C100.094 134.561 99.871 134.343 100.086 134Z" fill="#F7F8F7"/>
<path d="M102 134C102.665 134.02 110.679 133.816 109.954 136L102 134Z" fill="#F6F6F6"/>
<path d="M104.143 135.037C105.577 134.833 108.563 135.514 110 136C108.839 135.563 104.687 135.84 104.027 135.264C103.932 135.181 104.114 135.041 104.143 135.037Z" fill="#F1F1F2"/>
<path d="M96.74 135C97.5924 137.194 96.1988 136.444 94.7312 136.846C92.7787 137.381 90.8825 138.262 89 139L96.74 135Z" fill="#FBFBFB"/>
<path d="M100.212 135C103.094 136.731 107.358 137.741 109 141C106.593 139.182 103.95 137.976 101.238 136.835C100.139 136.373 99.7024 137.168 100.212 135Z" fill="#FBFBFB"/>
<path d="M60 135H76.8118L77 142.655L60.1255 143L60 135ZM65.3948 135.552C64.2585 135.805 64.5382 136.467 65.0812 137.276C66.303 139.095 72.171 139.147 72.2325 136.034C72.1835 135.866 71.6855 135.586 71.5424 135.552C71.2423 135.479 65.7192 135.48 65.3948 135.552ZM60.5646 139C60.5563 139.24 60.5207 141.345 60.6273 141.345C60.7593 140.574 60.6654 139.777 60.69 139C60.708 138.435 60.9827 137.693 60.7528 137.069C60.5174 137.698 60.587 138.346 60.5646 139ZM76.1845 138.172C76.0338 138.172 76.1247 141.187 76.1845 141.483C76.3352 141.483 76.2443 138.469 76.1845 138.172Z" fill="#FEFEFE"/>
<path d="M64.8254 136.054C65.1657 135.983 70.9611 135.982 71.276 136.054C71.426 136.088 71.9487 136.364 72 136.531C71.9355 139.608 65.7784 139.557 64.4963 137.758C63.9265 136.959 63.6331 136.304 64.8254 136.054ZM65.2203 136.599C65.1758 136.608 64.5579 136.822 64.6938 137.008C65.2759 137.353 71.4632 137.348 71.4734 136.94C71.3817 136.815 70.9863 136.621 70.881 136.599C70.323 136.484 65.7921 136.487 65.2203 136.599ZM64.957 137.554C65.35 138.955 71.4015 138.407 71.0785 137.622L64.957 137.554Z" fill="#080A09"/>
<path d="M106 136L108.88 136.129L109 136.387C108.175 136.596 108.461 137.291 108.58 138L106 136Z" fill="#FBFBFB"/>
<path d="M65.5622 136.115C66.1508 135.964 70.8156 135.96 71.3901 136.115C71.4985 136.144 71.9055 136.404 72 136.573C71.9894 137.122 65.6194 137.129 65.02 136.665C64.8802 136.415 65.5164 136.126 65.5622 136.115Z" fill="#F8F8F8"/>
<path d="M65 137L70.9878 137.079C71.3038 137.988 65.3844 138.623 65 137Z" fill="#F6F6F5"/>
<path d="M87.8729 142C88.0471 142.364 88.1764 142.901 87.3124 143C86.4182 142.517 87.7115 142.433 87.8729 142Z" fill="#EFF0F1"/>
<path d="M109.615 142C110.807 142.65 108.833 143.428 109.012 142.718C109.084 142.429 109.946 142.593 109.615 142Z" fill="#F6F7F7"/>
<path d="M61 144L63 144.165C62.5757 145.023 61.2194 145.574 61 144Z" fill="#E5E6E5"/>
<path d="M136 144L137 144.22C136.791 145.282 136.137 145.307 136 144Z" fill="#66696B"/>
</svg>
