<svg width="83" height="128" viewBox="0 0 83 128" fill="none" xmlns="http://www.w3.org/2000/svg">
<path d="M5.35547 0.179688H76.4492L76.5469 2.23047L5.35547 2.32812V0.179688Z" fill="#FCFCFC"/>
<path d="M0.667969 4.28125H80.9414L81.0391 7.30859L0.667969 7.40625V4.28125Z" fill="#FCFDFD"/>
<path d="M4.37891 9.35938L77.3281 9.45703C78.3799 12.2777 71.9152 10.1229 71.6641 11.2148C71.3783 12.4572 77.0361 11.5844 77.3281 11.9961L77.0351 123.617C74.4168 123.286 56.4227 124.29 55.5508 123.031C54.6863 121.783 55.6014 104.115 55.2578 100.863C54.2512 91.3361 43.018 85.6482 34.457 90.0234C21.5352 96.6273 27.9299 111.55 26.2539 123.227L4.28125 123.324V11.9961C11.035 12.2088 11.557 10.5334 4.37891 10.9219V9.35938ZM12.1914 14.6328C11.4131 14.7578 10.1666 15.2656 9.94531 16.0977C9.3541 18.3217 10.0129 26.9414 9.94531 29.9648C9.92734 30.7693 8.67871 33.0352 10.8242 33.5781C11.7076 33.8018 24.4357 33.684 25.082 33.3828C26.0762 32.9195 25.9986 31.4691 25.9609 30.5508C25.8453 27.7287 26.0713 18.4377 25.5703 16.293C25.3756 15.4596 24.3338 14.7834 23.5195 14.6328C22.1822 14.3855 13.5963 14.407 12.1914 14.6328ZM35.2383 14.6328C34.1533 14.8146 33.5478 15.3291 32.9922 16.293L32.7969 32.6992C32.8848 32.8877 33.674 33.5271 33.8711 33.5781C34.7365 33.8018 47.4826 33.6838 48.1289 33.3828C49.7703 32.6184 48.6311 30.7115 48.6172 29.9648C48.5738 27.6357 49.0072 16.9725 48.4219 15.707C48.2418 15.3178 47.1631 14.7115 46.7617 14.6328C45.5484 14.3951 36.5312 14.416 35.2383 14.6328ZM58.2852 14.6328C57.5412 14.7607 56.2385 15.5023 56.0391 16.293C55.4547 18.6084 56.0791 27.1008 56.0391 30.1602C56.0266 31.1094 54.9146 33.0934 57.1133 33.5781C57.9133 33.7545 70.0432 33.7557 70.7851 33.5781C71.1547 33.4896 71.9484 32.8951 72.0547 32.5039C71.0338 28.7359 72.907 18.9143 71.6641 15.9023C71.5225 15.5592 70.4098 14.7201 70.0039 14.6328C68.9629 14.409 59.4484 14.4328 58.2852 14.6328ZM11.6055 39.6328C11.1564 39.7314 10.0682 40.6143 9.94531 41.0977C9.34238 43.4711 10.0152 51.8359 9.94531 54.9648C9.92734 55.7693 8.67871 58.0352 10.8242 58.5781C11.7076 58.8018 24.4357 58.684 25.082 58.3828C26.0762 57.9195 25.9986 56.4691 25.9609 55.5508C25.8414 52.6324 26.084 43.5729 25.5703 41.293C25.4379 40.7049 24.5045 39.7676 23.9102 39.6328C23.1424 39.4588 12.393 39.4598 11.6055 39.6328ZM34.8477 39.6328C33.9103 39.8166 33.376 40.4664 32.9922 41.293L32.7969 57.6992C32.8848 57.8877 33.674 58.5271 33.8711 58.5781C34.7367 58.8018 47.4826 58.684 48.1289 58.3828C49.123 57.9195 49.0455 56.4691 49.0078 55.5508C49.0047 55.4729 48.6195 55.2371 48.6172 55.1602C48.5439 52.6531 49.0613 42.15 48.4219 40.707C48.2715 40.3676 47.3354 39.7156 46.957 39.6328C46.0432 39.4328 35.827 39.4408 34.8477 39.6328ZM57.8945 39.6328C57.3375 39.7529 56.1715 40.7605 56.0391 41.293C55.4516 43.6541 56.0795 52.0684 56.0391 55.1602C56.0266 56.1094 54.9146 58.0934 57.1133 58.5781C58.0961 58.7947 70.5359 58.6746 71.1758 58.3828C71.2439 58.3518 72.0359 57.5631 72.0547 57.5039C71.0338 53.7359 72.907 43.9145 71.6641 40.9023C71.5225 40.5592 70.4098 39.7201 70.0039 39.6328C69.1506 39.4492 58.7463 39.4492 57.8945 39.6328ZM11.4102 64.4375C11.0414 64.5293 10.0371 65.5336 9.94531 65.9023L9.75 82.5039C10.1053 82.985 10.6498 83.2746 11.2148 83.3828C12.334 83.5971 24.6686 83.3445 25.2773 82.9922C26.5926 82.2307 25.5775 80.3025 25.5703 79.9648C25.5174 77.4957 25.9994 66.9322 25.375 65.5117C25.2885 65.315 24.3242 64.493 24.1055 64.4375C23.49 64.2818 12.0262 64.2842 11.4102 64.4375ZM34.457 64.4375C34.0883 64.5293 33.084 65.5336 32.9922 65.9023L32.7969 82.5039C32.9072 82.7186 33.8674 83.3377 34.0664 83.3828C35.0818 83.6131 47.6949 83.3277 48.3242 82.9922C49.7383 82.2383 48.6322 80.3508 48.6172 79.7695C48.5381 76.7029 49.2207 67.9498 48.6172 65.707C48.5227 65.3557 47.5258 64.525 47.1523 64.4375C46.499 64.2846 35.073 64.2842 34.457 64.4375ZM57.6992 64.4375C56.9383 64.6064 56.3584 65.4359 56.0391 66.0977L55.8437 82.3086C56.2531 82.7348 56.698 83.2492 57.3086 83.3828C60.9381 84.1771 67.2834 82.7646 71.1758 83.1875L72.0547 82.1133C71.1861 78.9441 72.7758 67.3783 71.4687 65.3164C71.3217 65.0844 70.4197 64.4877 70.1992 64.4375C69.4352 64.2639 58.4785 64.2645 57.6992 64.4375ZM8.28516 91C7.82187 92.5758 8.57324 103.052 8.1875 103.598C7.89102 104.017 4.75312 103.059 5.74609 105.258L24.7891 105.16C25.3148 103.218 23.4574 103.927 23.2266 103.598C22.8357 103.041 23.5961 92.5836 23.1289 91H8.28516ZM58.6758 91C57.749 91.4113 58.94 102.332 58.3828 103.598C58.0643 104.322 56.1807 103.126 56.918 105.258C59.1576 104.769 75.4094 105.936 75.9609 105.16C77.1641 103.467 73.4947 103.977 73.2266 103.598C72.8412 103.053 73.592 92.575 73.1289 91H58.6758ZM5.74609 106.82C5.58613 106.934 5.58613 107.683 5.74609 107.797C6.52266 108.348 22.5078 107.444 24.7891 107.699L24.6914 106.82C22.408 107.241 6.51875 106.272 5.74609 106.82ZM57.1133 106.82C56.9533 106.934 56.9533 107.683 57.1133 107.797C57.882 108.342 73.7023 107.449 75.9609 107.699L75.8633 106.82C73.6025 107.236 57.8779 106.278 57.1133 106.82ZM69.8086 109.359C68.6353 110.946 74.9844 110.464 74.9844 109.848C73.7508 108.817 71.3979 109.6 69.8086 109.359Z" fill="#FDFDFE"/>
<path d="M12.1914 14.6328C13.5963 14.407 22.1822 14.3855 23.5195 14.6328C24.3338 14.7834 25.3756 15.4596 25.5703 16.293C26.0713 18.4377 25.8453 27.7287 25.961 30.5508C25.9986 31.4691 26.0762 32.9195 25.082 33.3828C24.4358 33.684 11.7076 33.8018 10.8242 33.5781C8.67872 33.0352 9.92736 30.7693 9.94533 29.9648C10.0129 26.9414 9.35412 18.3217 9.94533 16.0977C10.1666 15.2656 11.4131 14.7578 12.1914 14.6328ZM11.8008 16.3906L11.6055 20.1016L16.9766 20.0039C17.6945 14.8238 15.5504 16.6971 11.8008 16.3906ZM18.832 16.3906C17.144 21.3191 20.6072 20.2828 24.0078 19.8086C24.7301 14.9395 22.3151 16.6744 18.832 16.3906ZM11.8008 21.6641L11.7031 28.793L16.8789 28.8906L16.9766 21.957L11.8008 21.6641ZM18.832 21.6641L18.5391 28.793L23.7149 28.8906L23.8125 21.7617L18.832 21.6641ZM11.6055 30.4531L11.2149 31.8203C12.792 31.5254 23.9979 32.2463 24.3985 31.7227C24.592 31.4695 24.2809 30.5924 23.9102 30.4531C22.0006 29.7361 14.2186 31.2174 11.6055 30.4531Z" fill="#030200"/>
<path d="M35.2383 14.6328C36.5312 14.416 45.5484 14.3951 46.7617 14.6328C47.1631 14.7115 48.2418 15.3178 48.4219 15.707C49.0072 16.9725 48.5738 27.6357 48.6172 29.9648C48.6311 30.7115 49.7703 32.6184 48.1289 33.3828C47.4826 33.6838 34.7365 33.8018 33.8711 33.5781C33.674 33.5271 32.8848 32.8877 32.7969 32.6992L32.9922 16.293C33.5479 15.3291 34.1533 14.8146 35.2383 14.6328ZM35.043 16.3906C34.398 16.6404 34.6875 19.9881 34.8477 20.1016C35.059 20.2512 39.3498 20.0594 40.0234 20.0039C39.8949 19.3719 40.3178 16.6514 39.7305 16.3906C39.5162 16.2955 35.2615 16.3061 35.043 16.3906ZM41.8789 16.3906C41.4236 16.5926 41.4236 19.8994 41.8789 20.1016C45.4086 19.8639 48.2994 21.5297 46.7617 16.3906C45.7812 16.6123 42.5477 16.0939 41.8789 16.3906ZM35.043 21.6641L34.75 28.793L39.9258 28.8906L40.0234 21.957L35.043 21.6641ZM41.8789 21.6641L41.5859 28.793L46.7617 28.8906L47.0547 21.957L41.8789 21.6641ZM34.6523 30.4531L34.2617 31.8203C35.8389 31.5254 47.0447 32.2463 47.4453 31.7227C47.6389 31.4695 47.3277 30.5924 46.957 30.4531C45.0561 29.7393 37.2676 31.2385 34.6523 30.4531Z" fill="#030100"/>
<path d="M58.2852 14.6328C59.4484 14.4328 68.9629 14.409 70.0039 14.6328C70.4098 14.7201 71.5225 15.5592 71.6641 15.9023C72.907 18.9143 71.0338 28.7359 72.0547 32.5039C71.9484 32.8951 71.1547 33.4896 70.7852 33.5781C70.0432 33.7557 57.9133 33.7545 57.1133 33.5781C54.9147 33.0934 56.0266 31.1094 56.0391 30.1602C56.0791 27.1008 55.4547 18.6084 56.0391 16.293C56.2385 15.5023 57.5412 14.7607 58.2852 14.6328ZM58.0899 16.3906C57.5582 16.6268 57.8121 19.4957 57.8945 20.1016L63.0703 20.0039L62.9727 16.3906C61.9926 16.6121 58.7578 16.0941 58.0899 16.3906ZM64.9258 16.3906V20.1016C68.4555 19.8639 71.3463 21.5297 69.8086 16.3906H64.9258ZM58.0899 21.6641L57.7969 28.793L62.9727 28.8906L63.0703 21.7617L58.0899 21.6641ZM64.9258 21.6641L64.8281 28.9883L69.8086 28.8906L70.1016 21.957L64.9258 21.6641ZM57.6992 30.4531C57.3067 30.6271 57.3092 31.683 57.5039 31.8203C58.0348 32.1945 70.1012 32.2412 70.4922 31.7227C70.6096 31.5668 70.3953 30.5541 70.1992 30.4531C69.0598 29.8658 59.7625 31.0904 57.6992 30.4531Z" fill="#030100"/>
<path d="M11.8008 16.3906C15.5504 16.6971 17.6945 14.8238 16.9766 20.0039L11.6055 20.1016L11.8008 16.3906Z" fill="#FCFCFC"/>
<path d="M18.832 16.3906C22.315 16.6744 24.7301 14.9395 24.0078 19.8086C20.6072 20.2828 17.144 21.3191 18.832 16.3906Z" fill="#FDFCFD"/>
<path d="M35.043 16.3906C35.2615 16.3061 39.5162 16.2955 39.7305 16.3906C40.3178 16.6514 39.8949 19.3719 40.0234 20.0039C39.3498 20.0594 35.059 20.2512 34.8476 20.1016C34.6875 19.9881 34.398 16.6404 35.043 16.3906Z" fill="#FBFBFB"/>
<path d="M41.8789 16.3906C42.5477 16.0939 45.7813 16.6123 46.7617 16.3906C48.2994 21.5297 45.4086 19.8639 41.8789 20.1016C41.4237 19.8994 41.4237 16.5926 41.8789 16.3906Z" fill="#FCFCFC"/>
<path d="M58.0898 16.3906C58.7578 16.0941 61.9926 16.6121 62.9726 16.3906L63.0703 20.0039L57.8945 20.1016C57.8121 19.4957 57.5582 16.6268 58.0898 16.3906Z" fill="#FCFCFC"/>
<path d="M64.9258 16.3906H69.8086C71.3463 21.5297 68.4555 19.8639 64.9258 20.1016V16.3906Z" fill="#FBFBFB"/>
<path d="M11.8008 21.6641L16.9766 21.957L16.8789 28.8906L11.7031 28.793L11.8008 21.6641ZM13.168 23.2266L13.0703 27.4258C13.1516 27.5402 15.1461 27.599 15.3164 27.5234C15.6957 27.3551 15.733 23.798 15.6094 23.5195C15.3656 22.9705 13.6838 23.3252 13.168 23.2266Z" fill="#FAFBFB"/>
<path d="M18.832 21.6641L23.8125 21.7617L23.7148 28.8906L18.5391 28.793L18.832 21.6641ZM20.0039 23.2266L19.9062 27.2305C23.6227 28.1492 22.2004 25.89 22.4453 23.3242L20.0039 23.2266Z" fill="#FBFBFB"/>
<path d="M35.043 21.6641L40.0234 21.957L39.9258 28.8906L34.75 28.793L35.043 21.6641ZM36.2148 23.2266C36.058 24.9137 35.3977 28.8453 38.3633 27.5234C38.9629 27.2562 38.5178 23.9963 38.6562 23.3242L36.2148 23.2266Z" fill="#F9FAFA"/>
<path d="M41.8789 21.6641L47.0547 21.957L46.7617 28.8906L41.5859 28.793L41.8789 21.6641ZM43.2461 23.2266L43.1484 27.2305L45.3945 27.3281L45.4922 23.3242L43.2461 23.2266Z" fill="#FBFBFB"/>
<path d="M58.0898 21.6641L63.0703 21.7617L62.9727 28.8906L57.7969 28.793L58.0898 21.6641ZM59.457 23.2266C59.1354 23.3693 58.1137 28.9928 61.4102 27.5234C62.0098 27.2562 61.5646 23.9961 61.7031 23.3242C61.6219 23.2098 59.6273 23.151 59.457 23.2266Z" fill="#FAFBFB"/>
<path d="M64.9258 21.6641L70.1016 21.957L69.8086 28.8906L64.8281 28.9883L64.9258 21.6641ZM66.293 23.2266L66.1953 27.2305C66.3064 27.4812 68.3342 27.56 68.4414 27.5234C68.8258 27.3922 68.8508 23.7814 68.7344 23.5195C68.4906 22.9705 66.8086 23.3252 66.293 23.2266Z" fill="#FAFBFB"/>
<path d="M13.168 23.2266C13.6838 23.3252 15.3656 22.9705 15.6094 23.5195C15.733 23.798 15.6957 27.3551 15.3164 27.5234C15.1461 27.599 13.1516 27.5402 13.0703 27.4258L13.168 23.2266Z" fill="#030201"/>
<path d="M20.0039 23.2266L22.4453 23.3242C22.2004 25.89 23.6227 28.1492 19.9062 27.2305L20.0039 23.2266Z" fill="#020100"/>
<path d="M36.2149 23.2266L38.6563 23.3242C38.5178 23.9963 38.9629 27.2562 38.3633 27.5234C35.3977 28.8453 36.058 24.9137 36.2149 23.2266Z" fill="#010100"/>
<path d="M43.2461 23.2266L45.4922 23.3242L45.3945 27.3281L43.1484 27.2305L43.2461 23.2266Z" fill="#030200"/>
<path d="M59.457 23.2266C59.6273 23.151 61.6219 23.2098 61.7031 23.3242C61.5646 23.9961 62.0098 27.2563 61.4101 27.5234C58.1137 28.9928 59.1353 23.3693 59.457 23.2266Z" fill="#020100"/>
<path d="M66.293 23.2266C66.8086 23.3252 68.4906 22.9705 68.7344 23.5195C68.8508 23.7814 68.8258 27.3922 68.4414 27.5234C68.3342 27.56 66.3064 27.4812 66.1953 27.2305L66.293 23.2266Z" fill="#020100"/>
<path d="M11.6055 30.4531C14.2186 31.2174 22.0006 29.7361 23.9102 30.4531C24.2809 30.5924 24.592 31.4695 24.3984 31.7227C23.9979 32.2463 12.792 31.5254 11.2148 31.8203L11.6055 30.4531Z" fill="#F9FAF9"/>
<path d="M34.6523 30.4531C37.2676 31.2385 45.0561 29.7393 46.957 30.4531C47.3277 30.5924 47.6389 31.4695 47.4453 31.7227C47.0447 32.2463 35.8389 31.5254 34.2617 31.8203L34.6523 30.4531Z" fill="#F9FAF9"/>
<path d="M57.6992 30.4531C59.7625 31.0904 69.0598 29.8658 70.1992 30.4531C70.3953 30.5541 70.6096 31.5668 70.4922 31.7227C70.1012 32.2412 58.0348 32.1945 57.5039 31.8203C57.3092 31.683 57.3066 30.6271 57.6992 30.4531Z" fill="#F9F9F9"/>
<path d="M11.6055 39.6328C12.393 39.4598 23.1424 39.4588 23.9102 39.6328C24.5045 39.7676 25.4379 40.7049 25.5703 41.293C26.084 43.5729 25.8414 52.6324 25.961 55.5508C25.9986 56.4691 26.0762 57.9195 25.082 58.3828C24.4358 58.684 11.7076 58.8018 10.8242 58.5781C8.67872 58.0352 9.92736 55.7693 9.94533 54.9648C10.0152 51.8359 9.3424 43.4711 9.94533 41.0977C10.0682 40.6143 11.1565 39.7314 11.6055 39.6328ZM11.8008 41.3906C11.3455 41.5926 11.3455 44.8994 11.8008 45.1016C15.3305 44.8639 18.2213 46.5297 16.6836 41.3906C15.7031 41.6123 12.4695 41.0939 11.8008 41.3906ZM18.832 41.3906C17.144 46.3191 20.6072 45.2828 24.0078 44.8086C24.7379 39.8561 22.3301 41.708 18.832 41.3906ZM11.8008 46.6641L11.7031 53.793L16.8789 53.8906L16.9766 46.957L11.8008 46.6641ZM18.832 46.6641L18.5391 53.793L23.7149 53.8906L23.8125 46.7617L18.832 46.6641ZM11.6055 55.4531C11.3115 55.5693 10.8986 56.6186 11.2149 56.8203C12.792 56.5254 23.9979 57.2463 24.3985 56.7227C24.5961 56.4645 24.2932 55.6338 23.9102 55.4531C21.6231 56.0871 13.1369 54.848 11.6055 55.4531Z" fill="#030200"/>
<path d="M34.8477 39.6328C35.827 39.4408 46.0432 39.4328 46.957 39.6328C47.3354 39.7156 48.2715 40.3676 48.4219 40.707C49.0613 42.15 48.5439 52.6531 48.6172 55.1601C48.6195 55.2371 49.0047 55.4728 49.0078 55.5508C49.0455 56.4691 49.123 57.9195 48.1289 58.3828C47.4826 58.684 34.7367 58.8018 33.8711 58.5781C33.674 58.5271 32.8848 57.8877 32.7969 57.6992L32.9922 41.293C33.376 40.4664 33.9104 39.8166 34.8477 39.6328ZM34.8477 41.3906V45.1016C38.6064 44.8281 40.901 46.6148 39.9258 41.3906H34.8477ZM41.8789 41.3906C41.4236 41.5926 41.4236 44.8994 41.8789 45.1016C45.4086 44.8639 48.2994 46.5297 46.7617 41.3906C45.7812 41.6123 42.5477 41.0939 41.8789 41.3906ZM34.8477 46.6641L34.75 53.793L39.9258 53.8906L40.0234 46.957L34.8477 46.6641ZM41.8789 46.6641L41.5859 53.793L46.7617 53.8906L47.0547 46.957L41.8789 46.6641ZM34.6523 55.4531L34.2617 56.8203C35.8389 56.5254 47.0447 57.2463 47.4453 56.7226C47.6389 56.4695 47.3277 55.5924 46.957 55.4531C45.0561 54.7393 37.2676 56.2385 34.6523 55.4531Z" fill="#030100"/>
<path d="M57.8945 39.6328C58.7463 39.4492 69.1506 39.4492 70.0039 39.6328C70.4098 39.7201 71.5225 40.5592 71.6641 40.9024C72.907 43.9145 71.0338 53.7359 72.0547 57.5039C72.0359 57.5631 71.244 58.3518 71.1758 58.3828C70.5359 58.6746 58.0961 58.7947 57.1133 58.5781C54.9147 58.0934 56.0266 56.1094 56.0391 55.1602C56.0795 52.0684 55.4516 43.6541 56.0391 41.293C56.1715 40.7606 57.3375 39.7529 57.8945 39.6328ZM58.0899 41.3906C57.5582 41.6268 57.8121 44.4957 57.8945 45.1016L63.0703 45.0039L62.9727 41.3906C61.9926 41.6121 58.7578 41.0941 58.0899 41.3906ZM64.9258 41.3906V45.1016C68.4555 44.8639 71.3463 46.5297 69.8086 41.3906H64.9258ZM57.8945 46.6641L57.7969 53.793L62.9727 53.8906L63.0703 46.7617L57.8945 46.6641ZM64.9258 46.6641L64.8281 53.9883L69.8086 53.8906L70.1016 46.957L64.9258 46.6641ZM57.6992 55.4531C57.3067 55.6272 57.3092 56.683 57.5039 56.8203C58.0348 57.1945 70.1012 57.2412 70.4922 56.7227C70.6096 56.5668 70.3953 55.5541 70.1992 55.4531C69.0795 54.8762 59.7582 56.1166 57.6992 55.4531Z" fill="#020100"/>
<path d="M11.8008 41.3906C12.4695 41.0939 15.7031 41.6123 16.6836 41.3906C18.2213 46.5297 15.3305 44.8639 11.8008 45.1016C11.3455 44.8994 11.3455 41.5926 11.8008 41.3906Z" fill="#FBFBFA"/>
<path d="M18.832 41.3906C22.3301 41.708 24.7379 39.8561 24.0078 44.8086C20.6072 45.2828 17.144 46.3191 18.832 41.3906Z" fill="#FBFBFC"/>
<path d="M34.8477 41.3906H39.9258C40.901 46.6148 38.6064 44.8281 34.8477 45.1016V41.3906Z" fill="#FBFAFA"/>
<path d="M41.8789 41.3906C42.5477 41.0939 45.7813 41.6123 46.7617 41.3906C48.2994 46.5297 45.4086 44.8639 41.8789 45.1016C41.4237 44.8994 41.4237 41.5926 41.8789 41.3906Z" fill="#FBFBFB"/>
<path d="M58.0898 41.3906C58.7578 41.0941 61.9926 41.6121 62.9726 41.3906L63.0703 45.0039L57.8945 45.1016C57.8121 44.4957 57.5582 41.6268 58.0898 41.3906Z" fill="#FBFBFB"/>
<path d="M64.9258 41.3906H69.8086C71.3463 46.5297 68.4555 44.8639 64.9258 45.1016V41.3906Z" fill="#FAFAFA"/>
<path d="M11.8008 46.6641L16.9766 46.957L16.8789 53.8906L11.7031 53.793L11.8008 46.6641ZM13.3633 48.0312C13.0676 48.1631 11.9738 54.0135 15.3164 52.5234C15.6121 52.3916 16.7059 46.5412 13.3633 48.0312Z" fill="#FAFBFB"/>
<path d="M18.832 46.6641L23.8125 46.7617L23.7148 53.8906L18.5391 53.793L18.832 46.6641ZM20.1992 48.0312C19.9033 48.1627 18.81 54.0135 22.1523 52.5234C22.7549 52.2549 22.3045 48.8193 22.4453 48.1289C22.3641 48.0145 20.3695 47.9557 20.1992 48.0312Z" fill="#FAFBFB"/>
<path d="M34.8477 46.6641L40.0234 46.957L39.9258 53.8906L34.75 53.793L34.8477 46.6641ZM36.4102 48.0312C36.1145 48.1631 35.0207 54.0135 38.3633 52.5234C38.659 52.3916 39.7527 46.5412 36.4102 48.0312Z" fill="#F9FAFA"/>
<path d="M41.8789 46.6641L47.0547 46.957L46.7617 53.8906L41.5859 53.793L41.8789 46.6641ZM43.2461 48.0312L43.1484 52.4258C46.7555 53.4021 45.1682 50.3736 45.4922 48.1289L43.2461 48.0312Z" fill="#FAFBFB"/>
<path d="M57.8945 46.6641L63.0703 46.7617L62.9727 53.8906L57.7969 53.793L57.8945 46.6641ZM59.457 48.0312C59.1613 48.1631 58.0676 54.0135 61.4102 52.5234C61.7059 52.3916 62.7996 46.5412 59.457 48.0312Z" fill="#FAFBFB"/>
<path d="M64.9258 46.6641L70.1016 46.957L69.8086 53.8906L64.8281 53.9883L64.9258 46.6641ZM66.293 48.0312L66.1953 52.4258C66.2766 52.5402 68.2711 52.599 68.4414 52.5234C68.8189 52.3559 68.8611 48.6096 68.7344 48.3242C68.4906 47.7752 66.8088 48.1299 66.293 48.0312Z" fill="#FAFAFA"/>
<path d="M13.3633 48.0312C16.7058 46.5412 15.6121 52.3916 15.3164 52.5234C11.9738 54.0135 13.0676 48.1631 13.3633 48.0312Z" fill="#030201"/>
<path d="M20.1992 48.0313C20.3695 47.9557 22.3641 48.0145 22.4453 48.1289C22.3045 48.8193 22.7549 52.2549 22.1523 52.5234C18.81 54.0135 19.9033 48.1627 20.1992 48.0313Z" fill="#020100"/>
<path d="M36.4101 48.0312C39.7527 46.5412 38.659 52.3916 38.3633 52.5234C35.0207 54.0135 36.1144 48.1631 36.4101 48.0312Z" fill="#020100"/>
<path d="M43.2461 48.0312L45.4922 48.1289C45.1682 50.3736 46.7555 53.4021 43.1484 52.4258L43.2461 48.0312Z" fill="#040201"/>
<path d="M59.457 48.0312C62.7996 46.5412 61.7058 52.3916 61.4101 52.5234C58.0676 54.0135 59.1613 48.1631 59.457 48.0312Z" fill="#020100"/>
<path d="M66.293 48.0313C66.8088 48.1299 68.4906 47.7752 68.7344 48.3242C68.8611 48.6096 68.8189 52.3559 68.4414 52.5234C68.2711 52.599 66.2766 52.5402 66.1953 52.4258L66.293 48.0313Z" fill="#020100"/>
<path d="M11.6055 55.4531C13.1369 54.848 21.623 56.0871 23.9102 55.4531C24.2932 55.6338 24.5961 56.4645 24.3984 56.7227C23.9978 57.2463 12.792 56.5254 11.2148 56.8203C10.8986 56.6186 11.3115 55.5693 11.6055 55.4531Z" fill="#F9FAF9"/>
<path d="M34.6523 55.4531C37.2676 56.2385 45.0561 54.7393 46.957 55.4531C47.3277 55.5924 47.6389 56.4695 47.4453 56.7227C47.0447 57.2463 35.8389 56.5254 34.2617 56.8203L34.6523 55.4531Z" fill="#F9F9F9"/>
<path d="M57.6992 55.4531C59.7582 56.1166 69.0795 54.8762 70.1992 55.4531C70.3953 55.5541 70.6096 56.5668 70.4922 56.7227C70.1012 57.2412 58.0348 57.1945 57.5039 56.8203C57.3092 56.683 57.3066 55.6271 57.6992 55.4531Z" fill="#F8F9F9"/>
<path d="M11.4102 64.4375C12.0262 64.2842 23.49 64.2818 24.1055 64.4375C24.3242 64.493 25.2885 65.315 25.375 65.5117C25.9994 66.9322 25.5174 77.4957 25.5703 79.9648C25.5775 80.3025 26.5926 82.2307 25.2773 82.9922C24.6686 83.3445 12.334 83.5971 11.2148 83.3828C10.6498 83.2746 10.1053 82.985 9.75 82.5039L9.94531 65.9023C10.0371 65.5336 11.0414 64.5293 11.4102 64.4375ZM11.9961 66C9.84199 70.9346 13.4883 69.674 16.9766 69.6133C17.6396 64.5371 15.7645 66.2572 11.9961 66ZM18.832 66C17.1439 70.9285 20.6072 69.892 24.0078 69.418C24.7301 64.5488 22.315 66.2838 18.832 66ZM11.8008 71.2734L11.7031 78.5977L16.8789 78.6953L16.9766 71.5664L11.8008 71.2734ZM18.832 71.2734L18.5391 78.5977L23.5195 78.6953L23.8125 71.5664L18.832 71.2734ZM11.6055 80.2578C11.3115 80.3738 10.8986 81.423 11.2148 81.625C12.7432 81.4533 24.1445 81.9699 24.3984 81.332C24.4521 81.1971 24.1555 80.2848 24.1055 80.2578C23.5555 79.9607 12.1867 80.0281 11.6055 80.2578Z" fill="#040200"/>
<path d="M34.457 64.4375C35.073 64.2842 46.499 64.2846 47.1523 64.4375C47.5258 64.525 48.5227 65.3557 48.6172 65.707C49.2207 67.9498 48.5381 76.7029 48.6172 79.7695C48.6322 80.3508 49.7383 82.2383 48.3242 82.9922C47.6949 83.3277 35.0818 83.6131 34.0664 83.3828C33.8674 83.3377 32.9072 82.7186 32.7969 82.5039L32.9922 65.9023C33.084 65.5336 34.0883 64.5293 34.457 64.4375ZM35.043 66C34.3998 66.2617 34.6904 69.5996 34.8477 69.7109C35.059 69.8604 39.3498 69.6687 40.0234 69.6133C40.6865 64.5371 38.8113 66.2572 35.043 66ZM41.8789 66V69.7109L47.0547 69.6133C47.7648 64.5199 45.6166 66.273 41.8789 66ZM35.043 71.2734L34.75 78.5977L39.9258 78.6953L40.0234 71.5664L35.043 71.2734ZM41.8789 71.2734L41.5859 78.5977L46.7617 78.6953L47.0547 71.5664L41.8789 71.2734ZM34.6523 80.2578C34.3584 80.3738 33.9455 81.423 34.2617 81.625C35.8393 81.3279 47.0484 82.0537 47.4453 81.5273C47.5627 81.3715 47.3484 80.3588 47.1523 80.2578C46.5969 79.9715 35.2336 80.0281 34.6523 80.2578Z" fill="#030200"/>
<path d="M57.6992 64.4375C58.4785 64.2645 69.4352 64.2639 70.1992 64.4375C70.4197 64.4877 71.3217 65.0844 71.4688 65.3164C72.7758 67.3783 71.1861 78.9441 72.0547 82.1133L71.1758 83.1875C67.2834 82.7647 60.9381 84.1772 57.3086 83.3828C56.698 83.2492 56.2531 82.7348 55.8438 82.3086L56.0391 66.0977C56.3584 65.4359 56.9383 64.6065 57.6992 64.4375ZM58.0898 66L57.8945 69.7109L63.0703 69.6133C63.7334 64.5371 61.8582 66.2572 58.0898 66ZM65.1211 66L64.9258 69.7109L70.1016 69.6133C70.7428 64.6904 68.8439 66.1975 65.1211 66ZM58.0898 71.2734L57.7969 78.4024L62.9727 78.6953L63.0703 71.5664L58.0898 71.2734ZM65.1211 71.2734L64.8281 78.5977L69.8086 78.6953L70.1016 71.5664L65.1211 71.2734ZM57.6992 80.2578C57.3066 80.4318 57.3092 81.4877 57.5039 81.625C58.0348 81.9992 70.1012 82.0459 70.4922 81.5274C70.6096 81.3715 70.3953 80.3588 70.1992 80.2578C69.6438 79.9715 58.2707 80.0047 57.6992 80.2578Z" fill="#030100"/>
<path d="M11.9961 66C15.7645 66.2572 17.6397 64.5371 16.9766 69.6133C13.4883 69.674 9.842 70.9346 11.9961 66Z" fill="#FAFAFA"/>
<path d="M18.832 66C22.315 66.2838 24.7301 64.5488 24.0078 69.418C20.6072 69.892 17.144 70.9285 18.832 66Z" fill="#FCFCFC"/>
<path d="M35.043 66C38.8113 66.2572 40.6865 64.5371 40.0234 69.6133C39.3498 69.6688 35.059 69.8604 34.8477 69.7109C34.6904 69.5996 34.3998 66.2617 35.043 66Z" fill="#FBFAFA"/>
<path d="M41.8789 66C45.6166 66.273 47.7648 64.5199 47.0547 69.6133L41.8789 69.7109V66Z" fill="#FCFBFB"/>
<path d="M58.0898 66C61.8582 66.2572 63.7334 64.5371 63.0703 69.6133L57.8945 69.7109L58.0898 66Z" fill="#FBFBFB"/>
<path d="M65.1211 66C68.8439 66.1975 70.7428 64.6904 70.1016 69.6133L64.9258 69.7109L65.1211 66Z" fill="#FBFAFA"/>
<path d="M11.8008 71.2734L16.9766 71.5664L16.8789 78.6953L11.7031 78.5977L11.8008 71.2734ZM13.168 72.8359L13.0703 77.0352C13.1115 77.1406 15.2092 77.3646 15.3164 77.3281C15.7004 77.1971 15.7273 73.3945 15.6094 73.1289C15.3656 72.5799 13.6836 72.9346 13.168 72.8359Z" fill="#FAFBFB"/>
<path d="M18.832 71.2734L23.8125 71.5664L23.5195 78.6953L18.5391 78.5977L18.832 71.2734ZM20.1992 72.8359C19.5998 73.1021 20.0447 76.3639 19.9062 77.0352C23.6939 78.0014 22.1635 75.4955 22.4453 72.9336C22.3641 72.8191 20.3695 72.7604 20.1992 72.8359Z" fill="#FBFBFB"/>
<path d="M35.043 71.2734L40.0234 71.5664L39.9258 78.6953L34.75 78.5977L35.043 71.2734ZM36.2148 72.8359L36.1172 77.0352C39.7867 78.5098 38.4248 75.218 38.6562 72.9336L36.2148 72.8359Z" fill="#F9FAFA"/>
<path d="M41.8789 71.2734L47.0547 71.5664L46.7617 78.6953L41.5859 78.5977L41.8789 71.2734ZM43.2461 72.8359L43.1484 77.0352C46.7793 78.1385 45.1611 75.3076 45.4922 72.9336L43.2461 72.8359Z" fill="#FBFBFB"/>
<path d="M58.0898 71.2734L63.0703 71.5664L62.9727 78.6953L57.7969 78.4023L58.0898 71.2734ZM59.457 72.8359C58.8576 73.1021 59.3023 76.3637 59.1641 77.0352L61.6055 77.1328L61.7031 72.9336C61.6219 72.8191 59.6273 72.7604 59.457 72.8359Z" fill="#FAFBFB"/>
<path d="M65.1211 71.2734L70.1016 71.5664L69.8086 78.6953L64.8281 78.5977L65.1211 71.2734ZM66.293 72.8359L66.1953 77.0352C66.2365 77.1406 68.3342 77.3646 68.4414 77.3281C68.8254 77.1971 68.8523 73.3945 68.7344 73.1289C68.4906 72.5799 66.8086 72.9346 66.293 72.8359Z" fill="#FAFAFB"/>
<path d="M13.168 72.8359C13.6836 72.9346 15.3656 72.5799 15.6094 73.1289C15.7273 73.3945 15.7004 77.1971 15.3164 77.3281C15.2092 77.3647 13.1115 77.1406 13.0703 77.0352L13.168 72.8359Z" fill="#030201"/>
<path d="M20.1992 72.8359C20.3695 72.7603 22.3641 72.8191 22.4453 72.9336C22.1635 75.4955 23.694 78.0014 19.9063 77.0352C20.0447 76.3639 19.5998 73.1021 20.1992 72.8359Z" fill="#040201"/>
<path d="M36.2148 72.8359L38.6562 72.9336C38.4248 75.218 39.7867 78.5098 36.1172 77.0352L36.2148 72.8359Z" fill="#020100"/>
<path d="M43.2461 72.8359L45.4922 72.9336C45.1611 75.3076 46.7793 78.1385 43.1484 77.0352L43.2461 72.8359Z" fill="#040401"/>
<path d="M59.457 72.8359C59.6274 72.7603 61.6219 72.8191 61.7031 72.9336L61.6055 77.1328L59.1641 77.0352C59.3024 76.3637 58.8576 73.1021 59.457 72.8359Z" fill="#020100"/>
<path d="M66.293 72.8359C66.8086 72.9346 68.4906 72.5799 68.7344 73.1289C68.8523 73.3945 68.8254 77.1971 68.4414 77.3281C68.3342 77.3647 66.2365 77.1406 66.1953 77.0352L66.293 72.8359Z" fill="#030200"/>
<path d="M11.6055 80.2578C12.1867 80.0281 23.5555 79.9607 24.1055 80.2578C24.1555 80.2848 24.4521 81.1971 24.3984 81.332C24.1445 81.9699 12.7432 81.4533 11.2148 81.625C10.8986 81.423 11.3115 80.3738 11.6055 80.2578Z" fill="#FAFBFB"/>
<path d="M34.6523 80.2578C35.2336 80.0281 46.5969 79.9715 47.1523 80.2578C47.3484 80.3588 47.5627 81.3715 47.4453 81.5273C47.0484 82.0537 35.8393 81.3279 34.2617 81.625C33.9455 81.423 34.3584 80.3738 34.6523 80.2578Z" fill="#FBFBFB"/>
<path d="M57.6992 80.2578C58.2707 80.0047 69.6438 79.9715 70.1992 80.2578C70.3953 80.3588 70.6096 81.3715 70.4922 81.5273C70.1012 82.0459 58.0348 81.9992 57.5039 81.625C57.3092 81.4877 57.3066 80.4318 57.6992 80.2578Z" fill="#FBFBFB"/>
<path d="M39.5352 89.8281C46.927 89.0621 53.2695 94.9895 53.8906 102.23C54.0518 104.109 54.575 123.183 53.5977 123.617C53.4633 123.677 52.418 123.646 52.3281 123.52C51.7072 122.643 52.6102 105.006 52.3281 102.035C50.9803 87.8402 30.6164 88.3574 29.2813 102.035C28.6254 108.753 29.7715 116.497 29.2813 123.324H27.7188C28.5955 116.174 26.226 104.708 28.5 98.1289C29.7852 94.4107 35.6654 90.2291 39.5352 89.8281Z" fill="#F7F8F8"/>
<path d="M8.28516 91H23.1289C23.5961 92.5836 22.8357 103.041 23.2266 103.598C23.4574 103.927 25.3148 103.218 24.7891 105.16L5.7461 105.258C4.75313 103.059 7.89102 104.017 8.18751 103.598C8.57325 103.052 7.82188 92.5758 8.28516 91ZM10.2383 92.7578L10.1406 103.598L14.5352 103.695L14.8281 93.0508L10.2383 92.7578ZM16.8789 92.7578L16.7813 103.598L21.1758 103.695L21.2734 92.8555L16.8789 92.7578Z" fill="#030100"/>
<path d="M58.6758 91H73.1289C73.592 92.575 72.8412 103.053 73.2266 103.598C73.4947 103.977 77.1641 103.467 75.9609 105.16C75.4094 105.936 59.1576 104.769 56.918 105.258C56.1807 103.126 58.0643 104.322 58.3828 103.598C58.94 102.332 57.749 91.4113 58.6758 91ZM60.4336 92.7578C59.9994 93.066 60.4299 102.151 60.1406 103.402L64.7305 103.695L64.8281 93.0508C64.6563 92.6635 60.6131 92.6303 60.4336 92.7578ZM67.0742 92.7578L66.7813 103.402L71.1758 103.695L71.2734 92.8555L67.0742 92.7578Z" fill="#040200"/>
<path d="M10.2383 92.7578L14.8281 93.0508L14.5352 103.695L10.1406 103.598L10.2383 92.7578ZM11.8008 94.3203C11.4783 94.5494 11.4744 101.908 11.7031 102.23C11.793 102.357 12.8383 102.388 12.9727 102.328C13.602 102.048 13.1021 95.468 13.2656 94.418C13.1705 94.2838 11.868 94.2727 11.8008 94.3203Z" fill="#FAFBFB"/>
<path d="M16.8789 92.7578L21.2734 92.8555L21.1758 103.695L16.7812 103.598L16.8789 92.7578ZM18.4414 94.125C18.0703 94.2629 17.9885 101.673 18.1484 102.035C18.3121 102.406 19.4957 102.413 19.6133 102.328C19.9348 102.098 19.8521 94.7875 19.7109 94.418C19.5168 93.9098 18.727 94.6404 18.4414 94.125Z" fill="#F9FAFA"/>
<path d="M41.6836 92.7578C44.7889 93.2674 49.4533 96.1855 50.375 99.3008C51.0561 107.301 50.9217 115.551 50.4727 123.617L41.3906 123.324L41.6836 92.7578ZM43.2461 95.2969C41.809 95.8924 45.0309 96.9258 45.1992 97.0547C45.5691 97.3379 47.1957 99.2037 47.3477 99.2031C48.8869 98.0564 44.235 94.8871 43.2461 95.2969ZM45.3945 106.039C42.8371 106.503 43.4607 111.123 46.7617 110.336C49.0182 109.798 48.4768 105.48 45.3945 106.039Z" fill="#FDFDFD"/>
<path d="M60.4336 92.7578C60.6131 92.6303 64.6562 92.6635 64.8281 93.0508L64.7305 103.695L60.1406 103.402C60.4299 102.151 59.9994 93.066 60.4336 92.7578ZM61.8008 94.3203C61.4783 94.5494 61.8434 101.253 61.7031 102.23C61.7982 102.365 63.1008 102.376 63.168 102.328C63.4904 102.099 63.1254 95.3957 63.2656 94.418C63.1705 94.2838 61.868 94.2727 61.8008 94.3203Z" fill="#FAFAFA"/>
<path d="M67.0742 92.7578L71.2734 92.8555L71.1758 103.695L66.7812 103.402L67.0742 92.7578ZM68.4414 94.3203C68.1189 94.5494 68.115 101.908 68.3438 102.23C68.4398 102.366 69.5488 102.374 69.6133 102.328C69.9357 102.099 69.9396 94.7408 69.7109 94.418C69.6148 94.2824 68.5059 94.2744 68.4414 94.3203Z" fill="#F9FAFB"/>
<path d="M39.1445 92.9531C39.3965 92.9426 40.1 92.883 40.2188 93.0508V123.324L30.9414 123.617L31.0391 100.082C31.1193 97.4225 36.9908 93.0435 39.1445 92.9531ZM37.582 95.4922C34.9607 95.7303 31.5537 100.399 33.6758 99.7891C33.8225 99.7469 35.0041 97.8717 35.6289 97.4453C36.0234 97.176 42.0352 95.0877 37.582 95.4922Z" fill="#FDFDFD"/>
<path d="M18.4414 94.125C18.727 94.6404 19.5168 93.9098 19.7109 94.418C19.8521 94.7875 19.9348 102.098 19.6133 102.328C19.4957 102.413 18.3121 102.406 18.1484 102.035C17.9885 101.673 18.0703 94.2629 18.4414 94.125Z" fill="#050301"/>
<path d="M11.8008 94.3203C11.868 94.2727 13.1705 94.2838 13.2656 94.418C13.1021 95.468 13.6019 102.048 12.9726 102.328C12.8383 102.388 11.793 102.357 11.7031 102.23C11.4744 101.908 11.4783 94.5494 11.8008 94.3203Z" fill="#040200"/>
<path d="M61.8008 94.3203C61.868 94.2727 63.1705 94.2838 63.2656 94.418C63.1254 95.3957 63.4904 102.099 63.168 102.328C63.1008 102.376 61.7982 102.365 61.7031 102.23C61.8433 101.253 61.4783 94.5494 61.8008 94.3203Z" fill="#030200"/>
<path d="M68.4414 94.3203C68.5059 94.2744 69.6149 94.2824 69.711 94.418C69.9397 94.7408 69.9358 102.099 69.6133 102.328C69.5488 102.374 68.4399 102.366 68.3438 102.23C68.1151 101.908 68.119 94.5494 68.4414 94.3203Z" fill="#080703"/>
<path d="M43.2461 95.2969C44.235 94.8871 48.8869 98.0564 47.3476 99.2031C47.1957 99.2037 45.5691 97.3379 45.1992 97.0547C45.0309 96.9258 41.809 95.8924 43.2461 95.2969Z" fill="#050302"/>
<path d="M37.582 95.4922C42.0352 95.0877 36.0234 97.176 35.6289 97.4453C35.0041 97.8717 33.8225 99.7469 33.6758 99.7891C31.5537 100.399 34.9608 95.7303 37.582 95.4922Z" fill="#030301"/>
<path d="M45.3945 106.039C48.4768 105.48 49.0182 109.798 46.7617 110.336C43.4608 111.123 42.8371 106.503 45.3945 106.039ZM45.5899 107.406C44.6315 107.731 45.2547 109.304 46.1758 109.164C47.2297 109.004 47.0203 106.922 45.5899 107.406Z" fill="#040301"/>
<path d="M5.7461 106.82C6.51876 106.272 22.408 107.241 24.6914 106.82L24.7891 107.699C22.5078 107.444 6.52266 108.348 5.7461 107.797C5.58614 107.683 5.58614 106.934 5.7461 106.82Z" fill="#070603"/>
<path d="M57.1133 106.82C57.8779 106.278 73.6025 107.236 75.8633 106.82L75.9609 107.699C73.7024 107.449 57.882 108.342 57.1133 107.797C56.9533 107.683 56.9533 106.934 57.1133 106.82Z" fill="#070603"/>
<path d="M45.5898 107.406C47.0203 106.922 47.2297 109.004 46.1758 109.164C45.2547 109.304 44.6314 107.731 45.5898 107.406Z" fill="#F8F8F7"/>
<path d="M69.8086 109.359C71.3979 109.6 73.7508 108.817 74.9844 109.848C74.9844 110.464 68.6354 110.946 69.8086 109.359Z" fill="#0D0C0A"/>
<path d="M0.667969 125.375H82.1133L82.4062 127.621L0.667969 127.914V125.375Z" fill="#FDFDFD"/>
</svg>
