<svg width="200" height="200" viewBox="0 0 200 200" fill="none" xmlns="http://www.w3.org/2000/svg">
<path d="M55.0206 61.2903H144.979L146.237 62.1736L146.097 160.215L140.37 160.117L140.23 64.4308L107.962 65.1178L138.973 65.7066L138.414 159.921H137.297L137.157 66.5899L62.4241 66.688V159.921H61.0272L60.7478 65.7066C61.3775 64.7099 85.1437 66.0785 86.59 65.4122C86.7733 65.3278 86.8012 64.79 86.7297 64.7252C85.8952 63.9689 62.8934 65.1837 59.4906 64.4308L59.3509 135.582C58.5838 136.311 58.3717 135.382 57.535 135.288C56.648 135.539 57.5699 147.105 57.8144 148.635C58.9034 148.637 57.7462 138.284 57.9541 137.349C58.0669 136.841 58.4402 135.678 59.3509 136.367V160.117H53.7634V61.9773L55.0206 61.2903ZM107.543 63.6457C107.206 63.7736 107.251 64.0993 107.822 64.2345C109.357 64.5974 113.708 64.008 115.505 63.9401C114.616 63.5283 107.894 63.5124 107.543 63.6457ZM101.397 64.6271C99.5077 64.5986 91.5877 64.6076 90.2219 64.8233C89.8897 64.8757 88.9954 64.8651 89.5234 65.314C90.0618 65.7718 104.429 65.1682 106.426 65.4122C108.03 64.8481 101.787 64.6329 101.397 64.6271ZM55.8587 71.1043L56.4175 96.4243L57.1159 71.3987C56.9327 71.1217 56.1792 70.9971 55.8587 71.1043ZM138.274 77.3852C138.073 77.3856 138.037 78.7654 138.274 78.9554C138.492 78.9549 138.491 77.3846 138.274 77.3852ZM141.627 101.92L141.208 120.665C141.431 120.877 141.8 121.069 142.186 120.959C143.441 120.601 141.991 103.938 141.627 101.92ZM57.535 117.034C56.7363 117.775 57.1439 119.122 57.2556 119.978C58.1144 119.338 57.6018 117.822 57.535 117.034ZM57.535 122.529C57.2352 125.146 56.8528 128.184 57.535 130.773C58.1295 130.774 58.2521 123.176 57.535 122.529ZM56.1381 123.118C55.8833 123.817 55.8353 124.656 56.4175 125.277C56.5097 124.767 56.9614 123.419 56.1381 123.118ZM141.627 123.315C141.092 123.413 141.011 129.475 141.208 129.89C142.338 132.265 142.502 124.312 142.325 123.805C142.226 123.519 142.129 123.293 141.627 123.315ZM55.8587 126.259C55.9224 127.76 54.8122 129.569 55.8587 130.969C56.4164 130.97 56.6086 126.656 55.8587 126.259ZM56.1381 135.288C55.1877 135.288 55.9037 147.638 55.8587 148.635C57.0732 146.721 56.558 144.126 56.5572 142.059C56.5563 139.798 56.7516 137.523 56.1381 135.288ZM141.627 138.624C141.897 139.815 140.923 147.109 141.208 147.555C141.366 147.802 141.813 147.904 142.186 147.849L141.627 138.624ZM143.862 139.213L143.303 143.335C143.688 141.962 144.367 140.632 143.862 139.213ZM143.862 145.494L143.582 148.046C144.2 147.639 144.745 145.884 143.862 145.494ZM57.535 150.009C56.8522 150.684 56.905 158.842 57.535 158.841C58.0292 157.597 58.1829 155.72 58.2334 154.425C58.279 153.261 58.7489 150.907 57.535 150.009ZM141.627 154.916C140.905 155.075 140.867 160.422 142.186 159.626C142.097 159.132 143.353 154.533 141.627 154.916Z" fill="#FBFBFB"/>
<path d="M106.675 63.5435C107.044 63.36 114.118 63.3819 115.054 63.9491C113.162 64.0426 108.583 64.8546 106.969 64.3547C106.367 64.1684 106.32 63.7198 106.675 63.5435Z" fill="#13100D"/>
<path d="M101.198 64.5305C101.585 64.5377 107.783 64.8018 106.191 65.4945C104.208 65.1949 89.9438 65.9361 89.4093 65.374C88.885 64.8228 89.7729 64.8358 90.1027 64.7715C91.4588 64.5066 99.3221 64.4955 101.198 64.5305Z" fill="#12110E"/>
<path d="M64.9323 67.7419L98.9247 68.0371L98.5085 160.215L64.5161 159.92L64.9323 67.7419ZM91.8488 72.0705C89.3231 74.3908 68.4057 85.5613 67.846 86.9252C67.7228 87.2256 67.7941 90.2617 67.9847 90.3683C70.5207 87.9928 92.0619 75.8634 92.5425 74.5299C92.6485 74.2355 92.3277 72.1151 91.8488 72.0705ZM93.2362 79.3503C86.3456 84.1069 77.9868 88.4744 71.3146 93.3196C70.1047 94.1981 68.0682 95.1099 68.401 96.3693C75.5313 91.6732 84.3377 87.0383 91.0163 82.1048C92.0966 81.3068 93.9627 80.5379 93.2362 79.3503ZM93.2362 85.6463L68.9559 101.682L69.3722 106.305L93.6524 91.057L93.2362 85.6463ZM90.1838 110.83C89.9388 110.882 89.2692 111.567 88.9351 111.716V129.423C89.3045 130.099 95.9753 130.321 96.4273 129.423V111.126C96.1876 110.743 90.7951 110.702 90.1838 110.83Z" fill="#F6F6F7"/>
<path d="M100.429 67.7419L135.484 68.0371L134.768 160.215L100 160.117L100.429 67.7419ZM130.19 73.8412C127.246 76.1239 104.623 88.0284 104.006 89.483C103.845 89.8627 104.008 92.62 104.435 92.7294L130.333 76.6941L130.19 73.8412ZM131.335 81.121C124.038 86.0522 115.706 90.3487 108.442 95.2871C107.406 95.9909 103.685 98.0324 104.865 98.927C112.239 93.986 120.954 89.4466 128.187 84.4658C128.961 83.9322 132.669 81.8207 131.335 81.121ZM131.335 87.4171L105.151 104.239L105.58 108.863L131.764 92.8277L131.335 87.4171ZM108.728 110.634C107.207 110.519 103.047 110.703 102.575 111.913C102.253 112.739 102.256 128.203 102.575 129.03C103.127 130.456 110.134 130.179 110.588 129.227V111.322C109.898 110.747 109.786 110.714 108.728 110.634Z" fill="#F6F6F7"/>
<path d="M54.8387 71.0066C55.3868 70.8976 56.6757 71.0244 56.9892 71.3062L55.7945 96.7742L54.8387 71.0066Z" fill="#070706"/>
<path d="M90.7162 72.043C91.1734 72.0876 91.4797 74.2059 91.3785 74.5C90.9196 75.8322 70.3539 87.9494 67.9328 90.3226C67.7508 90.2161 67.6827 87.183 67.8003 86.8829C68.3347 85.5204 88.3048 74.361 90.7162 72.043Z" fill="black"/>
<path d="M129.968 74.1935L130.108 76.9545L104.78 92.4731C104.362 92.3672 104.203 89.6988 104.361 89.3313C104.964 87.9236 127.089 76.4027 129.968 74.1935Z" fill="black"/>
<path d="M93.3868 79.5699C94.1045 80.7704 92.261 81.5477 91.1939 82.3544C84.5963 87.3417 75.8968 92.027 68.853 96.7742C68.5243 95.5011 70.5361 94.5794 71.7313 93.6913C78.3225 88.7934 86.5799 84.3783 93.3868 79.5699Z" fill="#010101"/>
<path d="M130.908 81.7204C132.184 82.3964 128.639 84.4366 127.898 84.9522C120.981 89.7646 112.647 94.1507 105.595 98.9247C104.466 98.0603 108.026 96.0878 109.016 95.4078C115.963 90.6362 123.931 86.485 130.908 81.7204Z" fill="#010101"/>
<path d="M93.1316 86.0215L93.5484 91.3722L69.234 106.452L68.8172 101.879L93.1316 86.0215Z" fill="black"/>
<path d="M130.767 88.1721L131.183 93.3264L105.793 108.602L105.376 104.198L130.767 88.1721Z" fill="black"/>
<path d="M141.165 102.151C141.429 104.084 142.483 120.056 141.571 120.399C141.291 120.505 141.023 120.321 140.86 120.117L141.165 102.151Z" fill="#0A0908"/>
<path d="M109.056 110.782C110.022 110.862 110.124 110.895 110.753 111.468V129.316C110.339 130.266 103.948 130.541 103.445 129.12C103.154 128.296 103.151 112.881 103.445 112.057C103.876 110.851 107.669 110.667 109.056 110.782ZM106.186 111.959C106.126 111.946 105.043 112.213 105.011 112.253C104.441 112.962 105.164 126.862 105.403 128.826L106.577 128.532C106.166 126.854 107.25 112.174 106.186 111.959ZM108.012 112.155C108.27 114.129 107.253 127.863 107.882 128.532C108.073 128.734 108.732 128.589 109.056 128.63C108.799 126.656 109.816 112.921 109.187 112.253C108.996 112.05 108.337 112.195 108.012 112.155Z" fill="#020100"/>
<path d="M90.3226 110.819C90.849 110.689 95.4925 110.731 95.6989 111.116V129.511C95.3097 130.414 89.5654 130.191 89.2473 129.511V111.709C89.535 111.559 90.1116 110.871 90.3226 110.819ZM90.8005 112.006C89.9873 112.484 91.1744 126.567 90.681 128.522C90.8492 128.821 91.4227 128.9 91.7563 128.819C92.725 128.584 91.2521 113.878 92.1147 112.105C91.9964 111.966 90.8767 111.961 90.8005 112.006ZM93.4289 112.006C92.6564 112.528 93.772 126.571 93.3094 128.522C93.5004 128.736 93.8165 128.93 94.1458 128.819C95.0698 128.507 94.9255 113.051 94.5042 112.302C94.3541 112.036 93.6165 111.879 93.4289 112.006Z" fill="#030201"/>
<path d="M105.895 111.828C107.118 112.048 105.873 127.021 106.345 128.732L104.996 129.032C104.722 127.029 103.892 112.852 104.547 112.128C104.584 112.088 105.827 111.816 105.895 111.828Z" fill="#F9F9FA"/>
<path d="M90.5189 111.854C90.5699 111.808 91.3187 111.813 91.3978 111.954C90.821 113.764 91.806 128.761 91.1581 129.002C90.9351 129.084 90.5515 129.004 90.439 128.699C90.769 126.705 89.9752 112.342 90.5189 111.854Z" fill="#FAF9F9"/>
<path d="M93.9071 111.873C94.1466 111.744 95.0881 111.904 95.2796 112.176C95.8173 112.938 96.0015 128.682 94.8221 128.999C94.4018 129.113 93.9983 128.915 93.7546 128.697C94.3451 126.71 92.9211 112.406 93.9071 111.873Z" fill="#F8F9F8"/>
<path d="M108.814 111.841C109.016 111.884 109.428 111.732 109.547 111.944C109.94 112.641 109.305 126.961 109.466 129.019C109.263 128.977 108.852 129.128 108.733 128.917C108.34 128.219 108.975 113.899 108.814 111.841Z" fill="#F9F9F8"/>
<path d="M141.296 123.657C141.719 123.638 141.8 123.846 141.884 124.108C142.034 124.574 141.895 131.885 140.943 129.701C140.777 129.32 140.845 123.748 141.296 123.657Z" fill="#050403"/>
<path d="M141.353 138.71L141.935 147.299C141.547 147.349 141.08 147.254 140.915 147.024C140.618 146.609 141.634 139.819 141.353 138.71Z" fill="#0E0E0C"/>
<path d="M143.821 145.161C146.381 145.654 144.8 147.873 143.011 148.387L143.821 145.161Z" fill="#171513"/>
<path d="M70.2148 149.805C71.0635 150.699 70.735 153.042 70.7031 154.199C70.6678 155.488 70.5604 157.355 70.2148 158.594C69.7744 158.595 69.7375 150.477 70.2148 149.805Z" fill="#040403"/>
<path d="M129.004 154.687C130.211 154.307 129.332 158.883 129.395 159.375C128.473 160.167 128.499 154.847 129.004 154.687Z" fill="#040403"/>
</svg>
