<?xml version="1.0" encoding="UTF-8"?>
<svg id="Layer_2" data-name="Layer 2" xmlns="http://www.w3.org/2000/svg" xmlns:xlink="http://www.w3.org/1999/xlink" viewBox="0 0 293.07 79.2">
  <defs>
    <style>
      .cls-1 {
        fill: url(#linear-gradient-2);
      }

      .cls-2 {
        fill: #3f3f3f;
      }

      .cls-3 {
        fill: url(#linear-gradient);
      }
    </style>
    <linearGradient id="linear-gradient" x1="2.35" y1="40.11" x2="339.88" y2="39.2" gradientUnits="userSpaceOnUse">
      <stop offset="0" stop-color="#28ebde"/>
      <stop offset="1" stop-color="#00ada1"/>
    </linearGradient>
    <linearGradient id="linear-gradient-2" x1="2.37" y1="49.9" x2="339.9" y2="48.98" xlink:href="#linear-gradient"/>
  </defs>
  <g id="Layer_1-2" data-name="Layer 1">
    <g>
      <path class="cls-2" d="M172.56,37.42c0,2.09,1.58,3.89,3.1,3.89,2.16,0,5.62-2.66,5.62-4.68s-1.66-3.89-3.24-3.89c-2.02,0-5.47,2.59-5.47,4.68Z"/>
      <path class="cls-3" d="M47.71,50.17c1.15,0,1.8.36,1.8,1.37,0,2.74-6.41,14.76-6.41,20.38,0,4.68,2.81,6.84,6.55,6.84,5.33,0,9.65-5.62,12.1-10.66-.22,1.22-.29,2.38-.29,3.46,0,4.68,2.52,7.2,7.06,7.2,2.52,0,5.62-1.73,8.64-4.46,1.22.65,3.38.94,5.33.94,3.69,0,7.76-2,11.74-7.16,0,.11-.01.21-.01.32,0,7.56,5.98,10.37,11.81,10.37,5.43,0,11.81-4.36,16.56-10.35-.04.48-.07.96-.07,1.43,0,6.48,4.25,9.36,8.35,9.36s8.71-5.04,11.88-10.15l.14.07c-.29.79-.65,2.3-.65,3.67,0,3.96,2.23,6.19,6.41,6.19s8.32-4.73,12.5-11.23c-.78,2.21-1.34,4.1-1.34,5.67,0,3.24,2.09,5.11,5.76,5.11,4.06,0,8.39-4,12.41-9.75-.02.3-.03.6-.03.91,0,6.62,4.1,9.29,8.5,9.29,3.96,0,8.64-4.75,11.74-9.87l.14.07s-.43,1.58-.5,3.17c-.22,4.25,1.87,6.62,6.12,6.62s8.73-4.9,13-11.57l-2.49,6.94c-.86,2.3-1.15,2.59-1.22,3.02,0,.36.29.58.94.58,4.03,0,6.34-1.51,7.42-4.54,3.6-9.87,5.26-13.9,7.13-16.56,4.32-5.9,9-8.21,10.8-8.21,1.44,0,2.16.72,2.16,2.59,0,4.97-6.98,14.83-6.98,21.31,0,4.18,2.23,5.98,5.98,5.98,3.94,0,7.79-3.93,11.53-9.53,0,.08,0,.16,0,.24,0,6.62,4.1,9.29,8.5,9.29,3.96,0,8.64-4.75,11.74-9.87l.14.07s-.43,1.58-.5,3.17c-.22,4.25,1.87,6.62,6.12,6.62,4.9,0,10.01-6.41,14.83-14.54.22-.36-.22-.79-.43-.43-4.68,7.85-9.43,12.89-12.1,12.89-1.58,0-2.3-1.01-2.3-2.45,0-1.73.5-4.1,3.1-10.95,3.6-9.5,5.62-13.11,6.84-14.26.29-.29.43-.43.43-.72,0-.22-.22-.43-.65-.43-2.3,0-7.63,1.37-9.22,4.68h-.14c.14-2.95-1.3-5.4-4.9-5.4-8.65,0-20.29,9.81-21.37,20.71-3.67,5.43-6.91,8.67-8.73,8.67-1.15,0-1.94-.86-1.94-2.45,0-7.06,6.7-16.56,6.7-21.46,0-3.74-2.74-5.47-6.34-5.47-3.89,0-9.22,2.95-13.54,9.07l-.14-.07c1.08-2.95,1.73-4.82,1.73-6.48,0-1.22-.65-1.87-1.73-1.87-1.3,0-3.96.94-7.56,1.8-.22.07-.43.22-.43.43s.14.36.36.36c1.22,0,1.87.36,1.8,1.3,0,.72-.58,2.38-2.23,6.84l-2.3,6.41c-4.54,7.44-9.08,12.18-11.67,12.18-1.58,0-2.3-1.01-2.3-2.45,0-1.73.5-4.1,3.1-10.95,3.6-9.5,5.62-13.11,6.84-14.26.29-.29.43-.43.43-.72,0-.22-.22-.43-.65-.43-2.3,0-7.63,1.37-9.22,4.68h-.14c.14-2.95-1.3-5.4-4.9-5.4-8.49,0-19.87,9.45-21.31,20.1-3.94,5.6-7.87,8.83-9.94,8.83-1.22,0-1.94-.79-1.94-2.16,0-1.01.5-2.74,1.37-5.18l5.26-14.76c1.37-3.89,2.88-5.4,2.88-5.91,0-.29-.22-.43-.72-.43-4.1,0-7.34,1.66-8.42,4.68l-3.96,11.16c-.16.45-.32.9-.48,1.33-4.59,7.46-8.92,12.08-11.54,12.08-1.3,0-2.16-1.08-2.16-2.59s1.44-5.4,4.25-13.39c2.66-7.56,3.65-14.2,6.32-21.18,1.88-4.95,6.18-10.13,11.27-12.69,2.8-1.41,40.46-15.38,51.54-18.09,4.24-1.04,8.63-2.37,12.88-3.32,2.55-.57,14.91-4.82,21.13-1.52,2.25,1.19,21.02,17.86,28.14,23.97,1.17,1,2.47,2.03,3.73,2.85,1.92,1.25,4.05-1.38,2.4-2.98-.77-.74-1.7-1.44-2.67-2.12-8.25-5.69-15.42-12.76-23.28-18.97C257.73,1.99,254.88,0,252.13,0c-14.75.04-70.59,19.58-74.36,20.99-6.35,2.37-13.03,4.98-16.86,9.09-3.76,4.03-6.95,7.68-8.79,12.89-1.87,5.4-3.24,9.79-3.24,9.79h-.14c.14-2.95-1.3-5.4-4.97-5.4-9.57,0-19.32,10.15-20.99,19.68-4.74,6.08-11.12,10.26-15.44,10.26-3.31,0-5.54-1.8-5.54-6.98,0-1.87.29-3.89.72-5.98,10.66,0,18.43-7.63,18.43-12.67,0-3.24-2.95-4.75-6.55-4.75-8.43,0-19.08,9.99-20.08,19.96-3.83,5.14-7.36,6.83-10.02,6.83-2.45,0-3.24-1.58-3.74-2.81,4.9-5.69,8.93-13.32,8.93-19.01,0-3.02-1.37-4.39-2.81-4.39-.79,0-1.3.22-3.6,1.15-2.74,1.15-3.1,1.37-3.1,1.66,0,.22.14.36.5.5,1.51.65,2.74,1.94,2.74,5.54,0,3.96-1.73,8.86-4.18,12.82-.94,0-3.02,1.87-3.02,3.6,0,.14,0,.29.07.43-1.94,2.23-4.1,3.67-5.9,3.67-2.09,0-2.59-1.44-2.59-3.31,0-1.73.58-4.39,1.44-7.34,1.87-6.12,3.96-12.89,5.18-15.99.43-1.01.79-1.58.79-2.02.07-.29-.14-.36-.65-.36-1.8,0-6.7,1.44-7.2,2.66-.86,1.94-4.1,12.39-5.26,15.27-1.66,4.68-6.7,11.02-9.65,11.02-1.66,0-2.66-1.22-2.66-3.89,0-5.54,7.63-19.8,7.63-23.4,0-1.3-.79-1.94-1.8-1.94-1.3,0-4.1.94-7.63,1.8-.29.07-.43.22-.43.43s.14.36.36.36ZM275.01,48.58c1.73,0,2.66,1.15,2.66,3.17,0,2.16-1.3,7.49-5.33,15.19-3.02,6.05-7.78,10.01-10.01,10.01-1.66,0-2.81-1.08-2.81-5.11,0-11.16,9.36-23.26,15.48-23.26ZM200.78,48.58c1.73,0,2.66,1.15,2.66,3.17,0,2.16-1.3,7.49-5.33,15.19-3.02,6.05-7.78,10.01-10.01,10.01-1.66,0-2.81-1.08-2.81-5.11,0-11.16,9.36-23.26,15.48-23.26ZM145.27,48.58c1.73,0,2.81,1.22,2.66,3.46-.14,2.23-1.37,7.27-5.18,14.76-3.24,6.12-7.85,10.22-10.01,10.22-1.58,0-2.88-1.01-2.88-4.82,0-9.65,8.28-23.62,15.41-23.62ZM114.02,47.65c1.51,0,2.23.72,2.23,2.81,0,3.75-4.25,13.11-13.61,13.18,1.94-7.85,6.7-15.99,11.38-15.99Z"/>
      <path class="cls-1" d="M39.39,35.29c.72-.94,1.22-2.38,1.22-4.82,0-5.18-3.38-8.35-9.22-8.35-6.41,0-11.23,4.97-11.23,9.43,0,10.08,18.36,16.85,18.36,28.01,0,8.71-7.99,19.44-22.68,19.44-8.93,0-15.84-3.89-15.84-10.37,0-5.83,5.76-10.01,10.08-12.24.72-.36,1.01.14.5.65-2.38,2.23-4.46,5.69-4.46,10.87,0,6.62,4.97,9.86,11.45,9.86,9.72,0,13.11-7.27,13.11-12.31,0-11.45-17.71-17.64-17.71-27.51,0-8.35,9.29-17.28,21.03-17.28,6.84,0,11.02,2.81,11.02,6.48,0,2.88-1.73,5.69-5.18,8.64-.43.36-.86.07-.43-.5Z"/>
      <g>
        <path class="cls-2" d="M267.77,40.95c-2.23,3.89-3.47,5.85-6.25,5.85-2.25,0-3.64-1.33-3.49-3.46,0-.16.16-.14.16-.02-.14,2.09,1.41,3.26,2.99,3.26,2.27,0,4.41-2.72,6.28-5.69-1.1-.23-2.14-.47-3.21-.47-1.76,0-2.68.96-2.9,2.12-.04.13-.2.13-.16-.04.25-1.22,1.21-2.23,3.08-2.23,1.06,0,2.14.23,3.28.47.18-.31.38-.61.56-.92,2.07-3.42,4.01-6.97,7.35-6.97.13,0,.25,0,.36.02.31-.22.63-.38.99-.5.13-.04.23.04.11.16-.31.32-.63,1.06-1.6,3.33-1.69,3.96-3.13,7.85-3.13,9.29,0,.99.49,1.35,1.21,1.35.81,0,2.3-.86,3.92-3.53.05-.09.16.02.11.11-1.3,2.16-2.79,3.71-4.3,3.71-1.15,0-2.16-.7-2.16-2.54,0-.79.2-1.69.58-2.85h-.2c-1.28,0-2.45-.23-3.57-.47ZM268.33,39.98c-.16.29-.32.58-.49.85,1.12.23,2.29.45,3.51.45h.23c.47-1.35,1.15-3.03,2.09-5.24.61-1.44,1.22-2.41,1.98-3.03h-.23c-3.24,0-5.15,3.55-7.09,6.97Z"/>
        <path class="cls-2" d="M277.63,46.8s.02-.05.07-.05.13.02.31.02c1.22,0,1.87-.76,3.85-6.55,1.69-4.97,1.89-6.12,4.95-7.6h-.31c-5.82,0-7.76,3.04-7.76,4.84,0,1.19.58,1.82,1.42,2.04.16.04.13.18-.02.14-.97-.23-1.58-.94-1.58-2.18,0-1.82,1.98-5,7.96-5,2.86,0,4.66,1.3,4.66,3.26,0,1.82-1.78,3.28-4.14,3.73,1.85.45,2.95,1.67,2.95,3.37,0,2.11-2.07,4.3-4.92,4.3-1.73,0-3.15-.79-3.57-2.18-.94,1.53-1.91,2-3.51,2-.23,0-.38-.05-.38-.13ZM281.63,44.73c.4,1.44,1.66,2.11,2.97,2.11,2.36,0,3.87-2.43,3.87-4.61,0-1.49-.61-2.39-1.82-2.72-.38.04-.76.07-1.15.07-.61,0-.86-.05-.85-.16,0-.09.16-.18.65-.18s.95.04,1.37.13c2.09-.43,3.33-2.36,3.33-3.96s-1.01-2.61-2.9-2.77c-1.3.7-2,3.1-3.57,7.54-.72,2.07-1.31,3.53-1.91,4.56Z"/>
      </g>
    </g>
  </g>
</svg>