<?xml version="1.0" encoding="UTF-8"?>
<svg id="Layer_2" data-name="Layer 2" xmlns="http://www.w3.org/2000/svg" viewBox="0 0 1329.64 444.46">
  <defs>
    <style>
      .cls-1 {
        fill: #3ed6bc;
      }

      .cls-2 {
        fill: #fff;
      }
    </style>
  </defs>
  <g id="Layer_1-2" data-name="Layer 1">
    <polygon class="cls-1" points="1329.64 159.7 841.64 129.76 828.33 116.45 828.33 58.78 799.49 58.78 799.49 86.51 717.42 0 576.57 165.25 717.42 47.69 829.44 159.7 1329.57 159.7 1329.64 159.7"/>
    <path class="cls-2" d="M419.35,234.05c-15.14,2.45-17.73,5.43-24.08,22.07-9.08,23.96-23.21,64.75-36.38,104.72h-9.89c-11.84-31.34-24.19-62.11-35.79-92.15-11.15,27.65-24.22,59.77-36.01,92.15h-9.59c-11.02-35.92-22.69-71.64-34.77-107.21-5.35-15.88-7.83-17.78-22.48-19.58v-8.48h64.83v8.48c-17.89,2.89-19.2,4.66-15.16,17.71,6.68,22.45,14.41,46.24,21.34,67.99,11.84-29.84,23.62-60.67,34.89-92.73h8.91c10.94,30.44,23.18,62.14,35.62,93.68,6.33-17.65,16.04-47,21.2-67.33,3.68-14.79,1.07-16.72-19.44-19.31v-8.48h56.8v8.48Z"/>
    <path class="cls-2" d="M536.83,331.34c-19.04,24.54-40.58,29.8-50.72,29.8-37.25,0-59.56-29.95-59.56-64.66,0-20.51,7.69-39.73,20.04-52.77,12.76-13.99,29.32-21.74,45.08-21.74,26.69,0,46.6,22.82,46.55,46.93-.25,5.84-1.04,8.97-5.62,10.12-5.95,1.25-45.05,3.85-79.56,5.05-.52,38.69,22.84,55.13,44.19,55.13,12.19,0,23.65-4.94,34.69-14.98l4.91,7.12ZM484.69,233.53c-13.48,0-26.38,13.12-30.15,37.31,15.99-.05,31.82-.11,48.6-.9,5.18-.05,6.98-1.39,6.98-6,.3-15.74-9.55-30.41-25.43-30.41Z"/>
    <path class="cls-2" d="M706.32,349.99c-6.46,1.2-29.88,4.8-48.71,11.21v-19.12c-5.4,3.35-13.15,7.61-18.55,10.96-11.14,6.47-18.59,8.11-22.13,8.11-24.27,0-56.88-23.62-56.88-66.11s36.55-73.06,78.67-73.06c3.82,0,12.86.49,18.89,2.87v-42.37c0-18.61-1.99-19.37-22.81-21.28v-8.18c15.86-2.1,37.46-6.25,49.26-10.2v179.39c0,15.71,2.05,17.7,13.2,18.46l9.06.65v8.67ZM657.61,249.24c-6.25-10.12-18.23-15.25-29.88-15.25-13.48,0-38.01,9.01-38.01,52.26,0,36.84,22.39,55.18,40.57,55.48,9.83,0,20.23-4.59,27.32-9.77v-82.72Z"/>
    <path class="cls-2" d="M720.11,357.54v-8.72c18.41-1.85,20.46-3.3,20.46-23.86v-61.21c0-18.87-1.01-20.07-18.31-22.85v-7.69c16.19-2.59,31.16-6.49,44.71-11.78v103.53c0,20.4,1.94,22.01,21.06,23.86v8.72h-67.92ZM752.01,194.02c-8.94,0-16.93-7.88-16.93-16.87,0-10.09,7.99-17.36,17.23-17.36s16.43,7.28,16.43,17.36c0,8.99-7.39,16.87-16.73,16.87Z"/>
    <path class="cls-2" d="M899.06,361.14c-5.15,0-11.75-2.45-14.91-5.81-3.95-3.85-5.81-8.05-7.31-13.07-11.89,7.99-26.59,18.88-35.24,18.88-22.11,0-37.36-18.13-37.36-37.22,0-14.92,7.94-24.08,24.33-29.89,18.19-6.35,40.91-14.05,47.56-19.55v-7.3c0-20.27-9.88-31.93-25-31.93-6.58,0-10.78,3.14-13.72,6.74-3.35,4.31-5.29,10.8-7.94,19.55-1.61,5.39-4.69,7.49-9.46,7.49-6.08,0-14.01-6.22-14.01-13.63,0-4.42,3.85-8.07,10.01-12.38,9.56-6.79,27.02-17.45,44.06-21.05,9.54,0,19,2.7,26.23,8.21,10.93,9,15.52,19.63,15.52,35.18v56.82c0,13.91,5.05,18,10.34,18,3.49,0,7.23-1.39,10.53-3.14l3.05,8.72-26.69,15.38ZM876.14,285.3c-6.38,3.25-19.16,8.95-25.9,12.01-11.02,5.05-17.65,10.69-17.65,21.63,0,16.06,11.95,23.05,21.01,23.05,7.15,0,16.76-3.99,22.55-9.72v-46.96Z"/>
    <path class="cls-2" d="M1024.06,357.54v-8.72c16.54-1.8,18.17-3.74,18.17-24.19v-49.82c0-21.05-8.04-33.8-26.17-33.8-11.49,0-22.27,6.44-31.36,14.41v70.63c0,20.27,1.69,20.98,18.42,22.78v8.72h-65.67v-8.72c19.04-2.21,20.84-3.25,20.84-22.99v-61.91c0-19.23-2.15-20.13-17.81-22.83v-8.12c15.19-2.35,30.97-6.25,44.32-11.89-.05,6.41-.11,16.18-.11,23.32,6-4.2,12.55-8.7,20.18-13.64,8.51-5.4,15.93-8.78,24.63-8.78,24.05,0,39.11,17.7,39.11,47.07v56.95c0,20.08,1.8,20.98,18.66,22.83v8.72h-63.23Z"/>
    <path class="cls-2" d="M1201.16,361.14c-5.15,0-11.75-2.45-14.91-5.81-3.95-3.85-5.81-8.05-7.31-13.07-11.89,7.99-26.59,18.88-35.24,18.88-22.11,0-37.36-18.13-37.36-37.22,0-14.92,7.94-24.08,24.33-29.89,18.19-6.35,40.91-14.05,47.56-19.55v-7.3c0-20.27-9.88-31.93-25-31.93-6.58,0-10.78,3.14-13.72,6.74-3.35,4.31-5.29,10.8-7.94,19.55-1.61,5.39-4.69,7.49-9.46,7.49-6.08,0-14.01-6.22-14.01-13.63,0-4.42,3.85-8.07,10.01-12.38,9.56-6.79,27.02-17.45,44.06-21.05,9.54,0,19,2.7,26.23,8.21,10.93,9,15.52,19.63,15.52,35.18v56.82c0,13.91,5.05,18,10.34,18,3.49,0,7.23-1.39,10.53-3.14l3.05,8.72-26.69,15.38ZM1178.23,285.3c-6.38,3.25-19.16,8.95-25.9,12.01-11.02,5.05-17.65,10.69-17.65,21.63,0,16.06,11.95,23.05,21.01,23.05,7.15,0,16.76-3.99,22.55-9.72v-46.96Z"/>
    <path class="cls-2" d="M134.76,203.64c-33.2-20.29-50.12-36.56-50.12-67.79,0-24.77,11.47-50.19,40.91-50.19,37.06,0,48.14,31.21,55.08,62.05l12.77-3.07c-3.17-30.37-4.96-50.17-6.55-67.17-8.38-1.79-29.93-8.84-53.02-8.84-53.52,0-83.38,39.38-83.38,82.54s23.99,67.34,65.47,94.03c29.91,19.3,45.46,33.26,55.88,56.78,5.19,11.71,6.91,33.02,4.03,47.97-3.15,16.38-10.54,35.7-23.53,47.57-12.9,11.78-37.1,24.76-59.75,25.39-.89.02-1.79.04-2.68.04-30.27,0-57.52-14.28-71.12-37.26-14.73-24.88-16.57-57.34-4.81-84.71,4.58-10.67,10.54-19,17.71-24.76,7.09-5.7,15.89-8.97,24.13-8.97,1.84,0,3.67.16,5.44.47,12.21,2.15,23.14,11.89,28.52,25.42,5.05,12.71,4.74,26.62,4.06,35.98l-.6,8.25-6.1-4.99c-3.18-2.6-7.55-4.09-11.98-4.09-3.84,0-7.55,1.11-10.44,3.13-6.77,4.73-9.47,14.29-6.15,21.76,2.76,6.2,9.96,10.71,17.13,10.71,1.28,0,2.53-.14,3.74-.41,10.12-2.31,17.91-13.31,20.85-29.42,2.28-12.53,3.21-30.98-5.31-47.71-7.71-15.14-22.43-25.47-37.5-26.32-.69-.04-1.4-.06-2.11-.06-10.95,0-22.38,4.78-31.35,13.12-8.42,7.82-14.86,18.54-19.15,31.85-8.87,27.59-5.42,58.54,9.24,82.79,14.94,24.72,41.73,42.08,69.91,45.29,2.66.3,5.42.46,8.21.46,10.04,0,20.89-1.89,34.13-5.96,12.83-3.94,26.8-12.36,38.34-23.1,9-8.38,24.17-31,30.18-48.84,4.71-13.99,9.02-38.21,8.2-56.47-2.03-44.91-21.72-67.09-68.28-95.45Z"/>
    <g>
      <path class="cls-2" d="M1269.72,349.75v-2.13c4.65-.59,5.13-1.32,4.12-4.12-.9-2.69-2.29-6.23-3.72-10.47h-15.28c-1.09,3.06-2.15,5.85-3.11,8.68-1.57,4.65-.43,5.23,5.43,5.91v2.13h-16.84v-2.13c4.54-.58,5.69-1.11,8.2-7.51l14.92-37.7,2.51-.47c4.55,12.35,9.5,25.82,14.07,38.2,2.37,6.34,3.02,6.91,8.05,7.48v2.13h-18.34ZM1262.68,312.08c-2.27,6.01-4.64,12.25-6.73,17.86h13.1l-6.37-17.86Z"/>
      <path class="cls-2" d="M1316.14,324.32c7.03,1.19,12.59,4.56,12.59,11.51,0,4.82-2.75,8.76-6.97,11.06-3.73,2.08-7.58,2.85-12.68,2.85h-18.15v-2.13c6.02-.58,6.42-1.17,6.42-6.93v-28.62c0-5.99-.7-6.52-6.4-7v-2.13h19.41c5.41,0,8.81.9,11.22,2.52,2.55,1.73,4.27,4.41,4.27,8.05,0,6.63-5.56,9.81-9.71,10.81ZM1307.71,323.45c7.73,0,10.84-3.13,10.84-8.93,0-5.26-3.28-8.88-9.66-8.88-1.96,0-3.22.22-3.92.69-.62.45-.78,1.21-.78,3.37v13.74h3.52ZM1304.19,340.55c0,5.18,1.43,6.53,6.32,6.52,5.32-.01,10.5-3.11,10.5-10.52s-4.89-10.47-13.54-10.47h-3.29v14.47Z"/>
    </g>
    <g>
      <path class="cls-2" d="M818.09,388.96c11.87,0,20.78,8.3,20.78,19.72s-9.14,19.72-20.5,19.72h-13.32v-39.45h13.04ZM816.92,424.73c10.86,0,17.61-6.91,17.61-16.05s-6.96-16.05-17.38-16.05h-8.08v32.09h7.86Z"/>
      <path class="cls-2" d="M850.91,392.3c0,1.5-1.28,2.68-2.67,2.68s-2.68-1.17-2.68-2.68,1.34-2.67,2.68-2.67,2.67,1.28,2.67,2.67ZM850.07,402.33v26.08h-3.68v-26.08h3.68Z"/>
      <path class="cls-2" d="M881.27,411.64v16.77h-3.68v-14.71c0-5.85-2.06-8.69-6.85-8.69-3.62,0-8.13,2.56-8.13,10.25v13.15h-3.68v-20.56l-.28-5.52h3.79c.17,1.39.17,2.34.17,4.18h.11c1.62-2.84,5.24-4.85,8.75-4.85,6.46,0,9.81,3.68,9.81,9.97Z"/>
      <path class="cls-2" d="M933.2,415.37c0,7.86-5.85,13.71-13.87,13.71-3.96,0-7.97-1.89-10.14-5.01h-.11v20.39h-3.68v-42.12h3.68v4.35h.11c2.17-3.12,6.13-5.01,10.14-5.01,8.02,0,13.87,5.85,13.87,13.71ZM919.32,425.74c5.8,0,9.86-4.29,9.86-10.36s-4.07-10.36-9.92-10.36-10.36,4.46-10.36,10.36,4.51,10.36,10.42,10.36Z"/>
      <path class="cls-2" d="M959.83,410.75v12.09c0,.95.17,3.57.45,5.57h-3.57c-.22-1.17-.33-2.62-.33-4.23h-.11c-2.17,3.4-5.01,4.9-9.19,4.9-5.18,0-8.97-3.01-8.97-7.63,0-6.02,4.57-9.03,16.38-9.03h1.67v-.56c0-4.74-2.17-6.85-6.69-6.85-3.12,0-5.74,1.06-7.97,3.06l-2.23-2.62c2.45-2.51,6.13-3.79,10.98-3.79,5.96,0,9.58,3.68,9.58,9.08ZM948.24,425.74c4.74,0,7.91-2.9,7.91-8.91v-1.39h-2.56c-6.97,0-11.48,1.78-11.48,5.52,0,2.95,2.51,4.79,6.13,4.79ZM955.26,392.19c0,2.95-2.45,5.29-5.35,5.29s-5.35-2.34-5.35-5.29,2.45-5.29,5.35-5.29,5.35,2.4,5.35,5.29ZM949.91,395.48c1.84,0,3.34-1.5,3.34-3.29s-1.5-3.29-3.34-3.29-3.34,1.45-3.34,3.29,1.56,3.29,3.34,3.29Z"/>
      <path class="cls-2" d="M972.86,386.29v42.12h-3.68v-42.12h3.68Z"/>
      <path class="cls-2" d="M987.12,392.3c0,1.5-1.28,2.68-2.67,2.68s-2.68-1.17-2.68-2.68,1.34-2.67,2.68-2.67,2.67,1.28,2.67,2.67ZM986.29,402.33v26.08h-3.68v-26.08h3.68Z"/>
      <path class="cls-2" d="M1001.11,394.98v7.35h7.52v3.34h-7.52v15.6c0,2.84.89,4.46,3.79,4.46,1.28,0,2.67-.39,3.79-1l.17,3.4c-1.39.61-3.18.95-4.96.95-4.07,0-6.46-2.51-6.46-6.74v-16.66h-5.52v-3.34h5.52v-7.35h3.68Z"/>
      <path class="cls-2" d="M1018.21,386.29v42.12h-3.68v-42.12h3.68Z"/>
      <path class="cls-2" d="M1032.47,392.3c0,1.5-1.28,2.68-2.67,2.68s-2.68-1.17-2.68-2.68,1.34-2.67,2.68-2.67,2.67,1.28,2.67,2.67ZM1031.64,402.33v26.08h-3.68v-26.08h3.68Z"/>
      <path class="cls-2" d="M1062.45,406.62h.17v-4.29h3.68v26.08c0,8.19-4.79,13.37-13.99,13.37-5.18,0-9.19-1.67-12.54-5.24l2.73-2.9c2.17,2.9,5.74,4.79,10.03,4.79,6.52,0,10.08-3.84,10.08-10.03v-4.9h-.11c-2.17,3.29-5.57,4.9-9.75,4.9-7.69,0-13.6-5.96-13.6-13.26s5.68-13.48,13.26-13.48c4.18,0,7.8,1.78,10.03,4.96ZM1052.86,425.07c5.52,0,9.86-4.18,9.86-9.69,0-6.3-4.18-10.36-9.92-10.36-5.24,0-9.64,4.51-9.64,10.03s4.23,10.03,9.69,10.03Z"/>
      <path class="cls-2" d="M1107.13,406.34l-3.29,2.17c-1.11-2.17-2.95-3.51-5.63-3.51-3.12,0-5.4,1.5-5.4,3.9,0,2.17,1.28,3.34,6.02,4.35,2.84.61,4.79,1.11,6.18,2.12,2.29,1.67,3.01,3.84,3.01,5.68,0,4.96-4.07,8.02-10.14,8.02-4.46,0-7.8-1.73-10.03-5.07l3.18-2.17c1.56,2.4,3.73,3.9,6.85,3.9,3.51,0,6.07-1.62,6.13-4.35.06-2.28-1.5-3.57-7.02-4.68-5.63-1.11-8.19-3.51-8.19-7.19,0-4.74,3.9-7.86,9.64-7.86,4.07,0,7.19,1.62,8.69,4.68Z"/>
      <path class="cls-2" d="M1119.72,394.98v7.35h7.52v3.34h-7.52v15.6c0,2.84.89,4.46,3.79,4.46,1.28,0,2.67-.39,3.79-1l.17,3.4c-1.39.61-3.18.95-4.96.95-4.07,0-6.46-2.51-6.46-6.74v-16.66h-5.52v-3.34h5.52v-7.35h3.68Z"/>
      <path class="cls-2" d="M1152.65,410.75v12.09c0,.95.17,3.57.45,5.57h-3.57c-.22-1.17-.33-2.62-.33-4.23h-.11c-2.17,3.4-5.01,4.9-9.19,4.9-5.18,0-8.97-3.01-8.97-7.63,0-6.02,4.57-9.03,16.38-9.03h1.67v-.56c0-4.74-2.17-6.85-6.69-6.85-3.12,0-5.74,1.06-7.97,3.06l-2.23-2.62c2.45-2.51,6.13-3.79,10.98-3.79,5.96,0,9.58,3.68,9.58,9.08ZM1140.22,392.36c0,1.56-1.28,2.84-2.84,2.84s-2.84-1.28-2.84-2.84,1.28-2.84,2.84-2.84,2.84,1.28,2.84,2.84ZM1141.06,425.74c4.74,0,7.91-2.9,7.91-8.91v-1.39h-2.56c-6.97,0-11.48,1.78-11.48,5.52,0,2.95,2.51,4.79,6.13,4.79ZM1150.92,392.36c0,1.56-1.28,2.84-2.84,2.84s-2.84-1.28-2.84-2.84,1.28-2.84,2.84-2.84,2.84,1.28,2.84,2.84Z"/>
      <path class="cls-2" d="M1187.19,386.29v42.12h-3.68v-4.35h-.11c-2.23,3.18-6.3,5.01-10.14,5.01-7.97,0-13.87-5.85-13.87-13.71s5.91-13.71,13.87-13.71c4.01,0,7.97,1.89,10.14,5.01h.11v-20.39h3.68ZM1173.26,425.74c5.96,0,10.42-4.62,10.42-10.36s-4.51-10.36-10.47-10.36-9.81,4.4-9.81,10.36,3.96,10.36,9.86,10.36Z"/>
      <path class="cls-2" d="M1224.91,386.01l-.67,3.34c-1.06-.28-1.95-.39-2.84-.39-3.18,0-4.74,1.73-4.74,6.46v6.91h6.18v3.34h-6.18v22.73h-3.68v-22.73h-5.52v-3.34h5.52v-7.41c0-5.85,2.9-9.3,8.75-9.3,1.06,0,2.01.11,3.18.39ZM1232.59,392.3c0,1.5-1.28,2.68-2.68,2.68s-2.67-1.17-2.67-2.68,1.34-2.67,2.67-2.67,2.68,1.28,2.68,2.67ZM1231.76,402.33v26.08h-3.68v-26.08h3.68Z"/>
      <path class="cls-2" d="M1255.6,402l-.72,3.62c-.5-.22-1.17-.28-2.06-.28-5.01,0-8.13,4.01-8.13,8.58v14.49h-3.68v-18.11c0-3.79-.17-4.62-.22-7.97h3.62v4.85h.11c1.39-3.51,4.4-5.52,8.36-5.52,1.06,0,1.89.11,2.73.33Z"/>
      <path class="cls-2" d="M1280.62,407.07c1.56-3.4,5.07-5.4,8.64-5.4,6.41,0,9.75,3.68,9.75,9.97v16.77h-3.68v-15.49c0-5.4-1.89-7.91-6.57-7.91s-7.36,3.79-7.36,9.3v14.1h-3.68v-15.49c0-5.4-1.9-7.91-6.52-7.91-4.01,0-7.41,3.45-7.41,10.14v13.26h-3.68v-20.62c0-1.23-.17-4.46-.28-5.46h3.96v3.96h.11c1.62-2.73,5.07-4.62,8.41-4.62,4.18,0,6.97,2.01,8.3,5.4Z"/>
      <path class="cls-2" d="M1327.97,410.75v12.09c0,.95.17,3.57.45,5.57h-3.57c-.22-1.17-.33-2.62-.33-4.23h-.11c-2.17,3.4-5.01,4.9-9.19,4.9-5.18,0-8.97-3.01-8.97-7.63,0-6.02,4.57-9.03,16.38-9.03h1.67v-.56c0-4.74-2.17-6.85-6.69-6.85-3.12,0-5.74,1.06-7.97,3.06l-2.23-2.62c2.45-2.51,6.13-3.79,10.98-3.79,5.96,0,9.58,3.68,9.58,9.08ZM1316.38,425.74c4.74,0,7.91-2.9,7.91-8.91v-1.39h-2.56c-6.97,0-11.48,1.78-11.48,5.52,0,2.95,2.51,4.79,6.13,4.79Z"/>
    </g>
  </g>
</svg>