<svg width="263" height="201" viewBox="0 0 263 201" fill="none" xmlns="http://www.w3.org/2000/svg">
<path d="M40.777 94.4299L83.241 177.272L63.2587 187.514L30.374 123.361L29.8886 123.609L17.1681 144.432L8.29379 127.119L22.2105 103.947L40.777 94.4299ZM133.848 152.761C127.808 155.857 121.881 157.516 116.069 157.737C110.258 157.958 105.008 156.851 100.322 154.418C95.6624 151.971 92.007 148.295 89.3558 143.388L108.772 133.436C110.496 136.4 112.994 138.218 116.267 138.89C119.526 139.535 122.76 139.035 125.969 137.39C128.477 136.104 130.418 134.411 131.793 132.31C133.168 130.209 133.897 127.878 133.98 125.316C134.048 122.726 133.399 120.131 132.031 117.529C130.69 114.845 128.941 112.796 126.786 111.381C124.657 109.952 122.325 109.19 119.79 109.093C117.268 108.956 114.739 109.537 112.204 110.836C109.791 112.039 107.781 113.733 106.177 115.918C104.6 118.088 103.735 120.387 103.583 122.815L84.2062 128.559L64.9155 82.0567L118.067 54.8118L126.34 70.9513L89.6517 89.7574L97.7652 110.269L98.2506 110.02C98.451 107.023 99.6947 104.002 101.982 100.957C104.282 97.871 107.387 95.3259 111.297 93.3216C116.259 90.7782 121.276 89.6708 126.348 89.9994C131.433 90.2873 136.138 91.8935 140.464 94.8182C144.816 97.729 148.34 101.814 151.036 107.072C153.952 112.762 155.189 118.496 154.745 124.274C154.329 130.038 152.35 135.411 148.808 140.393C145.28 145.335 140.293 149.457 133.848 152.761ZM214.852 90.1949L212.612 85.8263C210.871 82.4285 209.988 78.9136 209.966 75.2817C209.97 71.6361 210.925 68.218 212.831 65.0276C214.737 61.8372 217.712 59.2052 221.757 57.1318C225.883 55.0169 229.798 54.1171 233.501 54.4323C237.217 54.7068 240.529 55.9204 243.437 58.0733C246.359 60.1853 248.704 62.9672 250.474 66.4189L252.713 70.7875C254.455 74.1853 255.337 77.7001 255.36 81.332C255.383 84.9639 254.427 88.3819 252.494 91.5862C250.561 94.7904 247.559 97.4362 243.487 99.5234C239.388 101.624 235.487 102.517 231.784 102.202C228.081 101.887 224.762 100.66 221.827 98.5208C218.918 96.368 216.593 93.5927 214.852 90.1949ZM225.516 79.212L227.755 83.5806C228.64 85.3065 229.908 86.7507 231.56 87.9132C233.238 89.0619 235.223 89.0488 237.515 87.8738C239.862 86.6712 241.045 85.094 241.066 83.1422C241.074 81.1635 240.614 79.2707 239.688 77.464L237.449 73.0954C236.523 71.2886 235.261 69.7901 233.663 68.6C232.079 67.369 230.073 67.3755 227.646 68.6196C225.381 69.7807 224.231 71.3915 224.198 73.4518C224.15 75.4852 224.59 77.4052 225.516 79.212ZM147.593 64.8073L145.354 60.4387C143.584 56.987 142.709 53.4518 142.727 49.833C142.758 46.1735 143.733 42.762 145.653 39.5986C147.559 36.4082 150.508 33.7901 154.499 31.7443C158.625 29.6294 162.539 28.7296 166.242 29.0448C169.958 29.3193 173.284 30.526 176.219 32.665C179.141 34.777 181.486 37.5589 183.255 41.0106L185.495 45.3792C187.264 48.831 188.14 52.3662 188.122 55.9849C188.131 59.5898 187.155 62.9674 185.194 66.1177C183.234 69.268 180.217 71.8868 176.145 73.9741C172.074 76.0613 168.179 76.9677 164.463 76.6933C160.774 76.405 157.469 75.2048 154.547 73.0928C151.653 70.967 149.335 68.2051 147.593 64.8073ZM158.379 53.7623L160.618 58.1309C161.544 59.9376 162.826 61.4088 164.464 62.5444C166.115 63.6391 168.046 63.6198 170.257 62.4863C172.63 61.2699 173.814 59.6927 173.808 57.7547C173.815 55.776 173.356 53.8832 172.429 52.0764L170.19 47.7078C169.264 45.9011 168.016 44.3957 166.445 43.1917C164.861 41.9607 162.841 41.9742 160.387 43.2321C158.122 44.3932 156.993 46.0105 157 48.084C157.035 50.1436 157.494 52.0364 158.379 53.7623ZM185.964 124.617L200.453 12.5811L211.496 6.9206L197.007 118.956L185.964 124.617Z" fill="#3F3F3F"/>
</svg>
