<svg width="103" height="244" viewBox="0 0 103 244" fill="none" xmlns="http://www.w3.org/2000/svg">
<path d="M5.27061 200.044L98.3594 199.408L98.5127 221.862L26.4235 222.355L26.4272 222.9L39.2963 243.631L19.8422 243.764L5.41308 220.907L5.27061 200.044ZM99.2482 143.185C99.2945 149.973 98.1084 156.011 95.69 161.301C93.2715 166.59 89.9212 170.78 85.6392 173.87C81.357 176.929 76.4284 178.539 70.8536 178.698L70.7046 156.88C74.1276 156.675 76.8756 155.262 78.9486 152.642C80.9914 150.022 82.0005 146.909 81.9758 143.303C81.9566 140.485 81.3183 137.989 80.061 135.816C78.8037 133.643 77.0497 131.943 74.7988 130.715C72.5176 129.489 69.9075 128.9 66.9684 128.951C63.9682 128.941 61.3513 129.58 59.1177 130.868C56.8838 132.126 55.1532 133.865 53.9259 136.085C52.6681 138.276 52.0489 140.795 52.0684 143.644C52.0565 146.341 52.6649 148.897 53.8935 151.313C55.122 153.699 56.7858 155.506 58.8852 156.734L55.2937 176.622L5.08538 172.92L4.6775 113.194L22.8134 113.07L23.095 154.296L45.0636 156.283L45.0599 155.737C42.4736 154.209 40.3355 151.739 38.6455 148.326C36.925 144.883 36.0497 140.965 36.0197 136.571C35.9816 130.996 37.2507 126.017 39.8269 121.636C42.3726 117.224 45.9247 113.746 50.4831 111.199C55.0414 108.623 60.275 107.314 66.184 107.274C72.5778 107.23 78.2546 108.706 83.2146 111.703C88.1744 114.669 92.0818 118.855 94.937 124.26C97.7616 129.634 99.1987 135.943 99.2482 143.185ZM79.8342 42.6904L74.9252 42.7239C71.1071 42.75 67.5713 41.9559 64.3178 40.3417C61.064 38.6972 58.4416 36.306 56.4504 33.168C54.4592 30.03 53.4481 26.1883 53.4171 21.643C53.3854 17.0067 54.3437 13.1062 56.2918 9.94126C58.2094 6.74628 60.7839 4.3347 64.0153 2.70654C67.2162 1.04828 70.756 0.205902 74.6346 0.179414L79.5436 0.145891C83.3617 0.119817 86.8975 0.913871 90.1511 2.52805C93.4046 4.14224 96.027 6.53347 98.0184 9.70177C100.01 12.8701 101.021 16.742 101.052 21.3177C101.084 25.9236 100.125 29.8091 98.1773 32.974C96.2292 36.1388 93.6395 38.5505 90.4084 40.209C87.177 41.8372 83.6523 42.6643 79.8342 42.6904ZM74.8262 28.2242L79.7351 28.1907C81.6745 28.1774 83.5349 27.695 85.3163 26.7435C87.0975 25.7616 87.9793 23.9828 87.9617 21.4071C87.9437 18.7708 87.068 17.004 85.3346 16.1067C83.5708 15.2096 81.6738 14.768 79.6436 14.7819L74.7346 14.8154C72.7043 14.8293 70.7983 15.2817 69.0165 16.1727C67.2041 17.0336 66.3073 18.8276 66.3259 21.5548C66.3433 24.1002 67.2643 25.8516 69.0891 26.8088C70.8836 27.7663 72.7959 28.2381 74.8262 28.2242ZM26.8923 91.3258L21.9833 91.3593C18.1047 91.3858 14.5536 90.5767 11.3302 88.932C8.07622 87.2572 5.46882 84.8507 3.50795 81.7125C1.51678 78.5745 0.50588 74.7631 0.475254 70.2784C0.443592 65.6421 1.40183 61.7416 3.34995 58.5767C5.26757 55.3817 7.84197 52.9549 11.0731 51.2965C14.274 49.6382 17.8138 48.7958 21.6925 48.7694L26.6015 48.7358C30.4802 48.7093 34.0312 49.5184 37.2547 51.1631C40.4779 52.7775 43.0549 55.1691 44.9857 58.3378C46.9164 61.5065 47.8974 65.3787 47.9287 69.9543C47.9599 74.53 47.0168 78.4153 45.0991 81.6103C43.1813 84.775 40.622 87.1864 37.4211 88.8447C34.22 90.4727 30.7104 91.2997 26.8923 91.3258ZM21.8834 76.7233L26.7924 76.6897C28.8226 76.6759 30.7133 76.1932 32.4644 75.2419C34.185 74.2604 35.0369 72.5273 35.0199 70.0425C35.0017 67.3759 34.126 65.6091 32.3927 64.7421C30.629 63.845 28.732 63.4034 26.7017 63.4173L21.7928 63.4508C19.7625 63.4647 17.8564 63.902 16.0743 64.7626C14.262 65.6235 13.3652 67.4327 13.384 70.1902C13.4014 72.7356 14.3375 74.4717 16.1924 75.3984C18.0471 76.2949 19.944 76.7365 21.8834 76.7233ZM97.5711 83.9793L4.04529 20.6165L3.96055 8.20768L97.4863 71.5705L97.5711 83.9793Z" fill="#3F3F3F"/>
</svg>
