<svg width="200" height="200" viewBox="0 0 200 200" fill="none" xmlns="http://www.w3.org/2000/svg">
<path d="M118.848 39.8438H154.395C154.734 39.9346 156.115 41.1303 155.371 41.4062H120.801C100.387 52.8279 81.0858 66.1723 61.2305 78.5156C60.3674 78.3652 55.3119 78.8357 55.0781 78.2227C54.3598 76.3393 60.1504 76.3998 61.0352 76.5625C80.3373 64.3992 99.3981 51.7127 118.848 39.8438Z" fill="#EDEDED"/>
<path d="M154.59 42.1875C157.373 42.2728 154.85 44.7518 153.418 45.1172C143.63 45.766 132.385 44.3602 122.754 45.3125C118.452 45.7379 114.495 48.4025 110.84 50.5859C94.9393 60.0836 79.6455 71.4248 63.7695 81.0547C62.4115 80.8396 55.2486 81.7965 55.2734 79.7852L55.3711 79.2969H61.8164C81.4477 66.8615 100.7 53.7014 120.996 42.3828C132.155 42.849 143.453 41.8463 154.59 42.1875Z" fill="#F1F0F0"/>
<path d="M130.176 46.875L131.836 47.168C131.578 47.2467 129.875 47.5584 130.176 46.875Z" fill="#C3BFBF"/>
<path d="M147.363 46.875C147.784 46.9951 148.877 46.575 149.023 47.168C148.664 47.267 147.382 47.5326 147.363 46.875Z" fill="#F0ECED"/>
<path d="M130.176 48.2422C130.324 48.1764 131.749 48.2174 131.836 48.3399L131.738 79.1016L129.883 78.8086C130.639 75.4313 128.779 48.8625 130.176 48.2422Z" fill="#F4F4F5"/>
<path d="M147.363 48.4375C147.44 48.3828 149.043 48.3156 149.219 48.7305C148.504 51.983 150.269 77.5283 148.926 78.125C148.778 78.1908 147.352 78.1498 147.266 78.0274L147.363 48.4375Z" fill="#F1F1F2"/>
<path d="M113.965 50.5859C114.963 51.9648 113.553 51.9137 112.5 51.6602L113.965 50.5859Z" fill="#F0EFF0"/>
<path d="M112.402 52.9297L114.258 53.0273L114.16 90.2344L112.305 90.1367L112.402 52.9297Z" fill="#F1F1F1"/>
<path d="M97.3633 61.3281V62.3047L96.0938 62.207L97.3633 61.3281Z" fill="#DCDBDE"/>
<path d="M95.8008 63.4765C95.8771 63.4219 97.4807 63.3547 97.6562 63.7695L97.3633 102.344L95.7031 102.051L95.8008 63.4765Z" fill="#F2F2F3"/>
<path d="M81.3476 71.6797C81.7859 71.7455 81.7225 71.966 81.543 72.2656C79.6303 72.552 81.1199 71.6455 81.3476 71.6797Z" fill="#F5F3F6"/>
<path d="M79.9805 73.4375L81.6406 73.5352L81.543 112.305L79.8828 112.207C79.7315 99.3109 79.3533 86.3432 79.9805 73.4375Z" fill="#F0EFEF"/>
<path d="M147.363 79.2969C148.464 78.8084 150.056 79.5205 149.414 80.957C149.232 81.3637 147.267 81.3203 147.168 81.25C147.005 81.1346 146.921 79.4934 147.363 79.2969Z" fill="#F2F3F3"/>
<path d="M130.176 80.0781C130.9 79.7902 132.473 80.3088 131.836 81.1523C131.201 81.9924 129.081 80.5133 130.176 80.0781Z" fill="#EEEFEF"/>
<path d="M121.191 82.8125H156.348L156.641 84.8633L122.949 84.9609C121.065 84.5893 120.796 85.0936 121.191 82.8125Z" fill="#EFEFEF"/>
<path d="M63.7695 83.0078L65.625 83.1055L65.5273 124.609L63.6719 124.512L63.7695 83.0078Z" fill="#F2F1F2"/>
<path d="M124.512 86.5234H151.855L152.148 103.223L98.2422 143.652L98.1445 159.961H58.1055V133.984H85.0586C85.3959 133.699 85.6936 133.402 85.5469 132.91C85.107 131.436 57.8422 132.835 54.7852 132.227L54.6875 129.395L72.3633 129.688C73.5326 129.234 72.273 121.676 73.1445 121.289H96.582C97.4232 120.324 96.4422 119.98 95.6055 119.727H70.4102L70.1172 116.895L88.3789 117.383C89.3508 116.991 88.5775 112.406 88.9648 111.328L106.934 110.938C108.354 109.592 106.136 109.241 106.055 109.082C105.615 108.224 106.316 100.584 106.152 99.0234L132.129 98.8281C132.816 98.2582 133.036 97.974 132.324 97.2656L103.125 97.168L103.223 94.9219L123.926 95.1172C124.98 94.7082 124.066 87.8953 124.512 86.5234ZM128.418 89.6484V90.4297C130.13 90.0959 143.86 91.1152 144.141 90.332C144.232 90.0777 143.786 89.8285 143.652 89.6484H128.418ZM145.02 93.3594C144.678 93.4746 144.3 94.127 144.824 94.3359C145.503 94.2021 149.006 94.6354 149.219 94.043C149.538 93.1566 145.495 93.1992 145.02 93.3594ZM129.59 93.5547C129.009 93.7805 129.527 94.5926 129.98 94.5312C130.616 94.4453 130.576 93.1711 129.59 93.5547ZM131.348 93.5547C131.23 93.5914 131.013 93.9449 130.859 94.043C130.859 94.8313 138.501 94.6572 138.672 94.2383C138.762 94.0182 138.593 93.6412 138.379 93.5547C138.053 93.4227 131.683 93.4494 131.348 93.5547ZM137.402 97.4609C137.243 97.5656 137.243 98.1375 137.402 98.2422C137.855 98.5402 146.961 98.2262 148.242 97.9492L137.402 97.4609ZM110.449 101.172C109.602 101.48 108.611 101.686 109.668 102.539C111.434 102.201 132.141 103.176 132.227 102.051C132.252 101.715 131.9 101.581 131.738 101.367L110.449 101.172ZM136.816 101.562C135.77 101.989 137.82 103.295 138.477 102.051L137.988 101.562H136.816ZM144.043 101.562C142.847 103.107 148.793 102.696 148.828 102.051C148.878 101.151 144.803 101.723 144.043 101.562ZM141.895 105.078C141.331 105.077 137.549 105.205 137.695 105.762L144.238 106.055C144.769 104.763 142.806 105.08 141.895 105.078ZM109.863 105.469C109.465 105.631 109.465 106.282 109.863 106.445C110.264 106.609 118.845 106.576 116.113 105.469C115.824 105.351 110.153 105.351 109.863 105.469ZM121.582 105.469C121.024 105.521 121.108 106.519 121.777 106.445C122.431 106.373 122.129 105.418 121.582 105.469ZM123.926 105.469C123.528 105.631 123.528 106.283 123.926 106.445C124.328 106.61 132.453 106.555 132.617 106.152C132.707 105.932 132.538 105.555 132.324 105.469C131.935 105.311 124.314 105.31 123.926 105.469ZM139.16 108.789C138.245 109.964 139.423 109.801 140.332 109.766C141.446 109.052 140.023 108.605 139.16 108.789ZM113.184 109.375C112.785 109.538 112.785 110.189 113.184 110.352C113.543 110.499 119.967 110.426 120.117 110.059C120.207 109.838 120.038 109.462 119.824 109.375C119.516 109.25 113.491 109.249 113.184 109.375ZM126.465 109.375C123.822 110.427 132.737 110.529 133.301 110.352C133.744 110.212 133.92 109.561 133.301 109.375C132.973 109.277 126.782 109.249 126.465 109.375ZM133.301 112.695C130.533 113.826 139.156 114.146 136.816 112.695C136.667 112.603 133.463 112.629 133.301 112.695ZM93.6523 113.281C93.0705 113.697 93.1561 113.952 93.6523 114.453C95.94 114.175 114.252 114.937 114.648 113.965C114.758 113.696 114.566 113.437 114.355 113.281H93.6523ZM120.605 113.281C120.093 113.442 120.092 114.097 120.605 114.258C121.035 114.393 129.83 114.408 127.051 113.281C126.752 113.16 120.913 113.185 120.605 113.281ZM127.246 116.602C126.904 116.717 126.527 117.37 127.051 117.578C133.085 118.32 130.454 115.521 127.246 116.602ZM92.8711 117.188C90.9311 117.98 95.8984 118.83 95.8984 117.676C95.8984 117.032 93.21 117.049 92.8711 117.188ZM101.66 117.188C101.251 117.317 101.126 117.848 101.465 118.164C101.579 118.303 111.105 118.323 108.301 117.188C107.993 117.063 101.977 117.087 101.66 117.188ZM114.16 117.188C113.93 117.333 114.03 118.013 114.355 118.164C114.652 118.302 120.744 118.248 120.898 117.871C120.988 117.651 120.819 117.274 120.605 117.188C120.307 117.066 114.432 117.015 114.16 117.188ZM120.801 120.898C118.781 121.603 125.401 122.139 125.586 121.387C125.766 120.703 121.193 120.762 120.801 120.898ZM100.488 121.094C99.0812 121.668 101.771 122.703 102.148 121.777C102.461 121.011 100.879 120.934 100.488 121.094ZM108.105 121.094C106.984 122.75 114.617 122.162 114.648 121.582C114.7 120.643 109.017 121.283 108.105 121.094ZM77.0508 124.414C76.4262 124.923 76.4371 125.084 77.0508 125.586C78.7014 125.316 97.7721 126.135 97.8516 125.098C97.8773 124.762 97.5246 124.628 97.3633 124.414H77.0508ZM115.918 124.805C113.622 125.605 122.515 126.186 120.41 124.805C120.222 124.681 116.13 124.731 115.918 124.805ZM102.637 125C102.478 125.105 102.478 125.677 102.637 125.781C102.918 125.967 108.591 125.851 109.375 125.488C109.547 124.836 102.927 124.809 102.637 125ZM111.426 128.32C109.404 129.088 114.88 129.871 115.234 129.004C115.624 128.052 111.83 128.167 111.426 128.32ZM77.6367 128.906C77.1699 129.084 77.4861 129.819 77.6367 129.883C78.2801 130.154 91.1738 130.337 91.6016 129.785C91.6516 129.721 91.632 129.186 91.5039 129.102C90.9238 128.721 79.2963 129.155 77.6367 128.906ZM97.3633 128.906C96.965 129.069 96.965 129.72 97.3633 129.883C97.7229 130.03 104.147 129.957 104.297 129.59C104.387 129.37 104.218 128.993 104.004 128.906C103.696 128.782 97.6707 128.781 97.3633 128.906ZM104.59 132.422C104.248 132.537 103.87 133.189 104.395 133.398C105.09 133.258 108.739 133.707 108.984 133.105C109.375 132.149 105.083 132.256 104.59 132.422ZM91.3086 132.812C90.899 132.942 90.7744 133.473 91.1133 133.789C92.1012 133.631 98.1832 134.119 98.4375 133.496C98.5273 133.276 98.3584 132.899 98.1445 132.812C97.8277 132.684 91.6344 132.709 91.3086 132.812ZM60.6445 136.328C59.8383 136.729 59.6813 137.077 60.4492 137.695C62.0121 137.448 76.5959 138.218 76.7578 137.207C76.8121 136.868 76.7205 136.723 76.4648 136.523L60.6445 136.328ZM79.5898 136.719C79.1803 136.849 79.0557 137.379 79.3945 137.695C80.1328 137.555 84.1592 138.003 84.375 137.402C84.7008 136.496 80.1068 136.555 79.5898 136.719ZM85.6445 136.719C85.2463 136.881 85.2463 137.532 85.6445 137.695C86.0709 137.87 94.1766 137.803 91.5039 136.719C91.2324 136.609 85.9158 136.608 85.6445 136.719ZM98.3398 136.719C95.8111 137.512 102.815 138.263 103.125 137.402C103.451 136.496 98.8605 136.555 98.3398 136.719ZM92.4805 140.625C92.0822 140.788 92.0822 141.439 92.4805 141.602C92.893 141.77 101.24 141.722 98.5352 140.625C98.2547 140.511 92.7607 140.511 92.4805 140.625ZM59.082 141.211C56.7092 141.955 63.0207 142.884 63.0859 141.699C63.1217 141.05 59.5582 141.062 59.082 141.211ZM65.5273 141.211C65.4102 141.248 65.1926 141.601 65.0391 141.699C65.0391 142.487 72.6805 142.313 72.8516 141.895C72.9414 141.674 72.7725 141.297 72.5586 141.211C72.2328 141.079 65.8627 141.106 65.5273 141.211ZM78.8086 141.211C78.4104 141.374 78.4104 142.025 78.8086 142.188C79.175 142.337 86.5672 142.266 86.7188 141.895C86.8086 141.674 86.6395 141.297 86.4258 141.211C86.0727 141.068 79.1611 141.067 78.8086 141.211ZM59.8633 144.922C59.5893 145.055 59.4602 145.573 59.5703 145.801C59.6918 146.052 64.3492 146.043 65.0391 145.605C65.1732 145.1 60.1051 144.804 59.8633 144.922ZM70.2148 145.117C69.8172 145.281 69.8068 145.851 70.2148 146.094C72.7707 146.37 72.2584 144.277 70.2148 145.117ZM78.418 145.117C78.0762 145.232 77.6984 145.885 78.2227 146.094C79.177 145.94 85.1299 146.418 85.3516 145.801C85.6861 144.869 79.0098 144.918 78.418 145.117ZM91.3086 145.117C89.3879 145.902 93.9916 146.643 94.3359 145.801C94.7146 144.875 91.6605 144.973 91.3086 145.117ZM59.8633 149.023C59.465 149.186 59.465 149.837 59.8633 150C60.2211 150.146 66.4516 150.074 66.6016 149.707C66.6914 149.487 66.5225 149.11 66.3086 149.023C66.01 148.902 60.1615 148.902 59.8633 149.023ZM67.4805 149.023C66.8076 149.115 66.9395 150.412 67.8711 150C68.5172 149.715 68.0221 148.95 67.4805 149.023ZM74.707 149.023C74.5479 149.128 74.5479 149.7 74.707 149.805C74.9887 149.99 80.6613 149.874 81.4453 149.512C81.617 148.859 74.9969 148.833 74.707 149.023ZM89.1602 149.023C88.8916 149.05 86.0451 149.508 87.4023 150C87.6961 150.106 93.3531 150.09 93.6523 150C96.5285 149.136 89.7182 148.969 89.1602 149.023ZM93.0664 152.734C92.7047 152.892 92.8635 153.54 93.2617 153.711C95.4543 153.987 94.4469 152.131 93.0664 152.734ZM59.4727 152.93C57.6725 153.665 61.7561 154.477 62.1094 153.613C62.477 152.714 59.8273 152.785 59.4727 152.93ZM82.1289 152.93C81.7844 153.046 81.415 153.671 81.9336 153.906C82.233 154.025 88.0703 153.999 88.3789 153.906C88.9977 153.72 88.8223 153.069 88.3789 152.93C88.0807 152.836 82.425 152.83 82.1289 152.93ZM68.0664 153.125C67.9072 153.23 67.9072 153.802 68.0664 153.906C68.3807 154.113 75.4902 153.977 75.5859 153.613C75.6072 153.262 75.382 153.195 75.0977 153.125C74.6764 153.022 68.3602 152.932 68.0664 153.125ZM89.3555 156.641C88.16 158.167 93.8949 157.785 93.9453 157.129C94.0168 156.2 90.0846 156.821 89.3555 156.641ZM60.8398 156.836C60.4416 156.999 60.4416 157.65 60.8398 157.812C61.1834 157.953 67.9096 157.929 68.2617 157.812C68.673 157.676 69.0439 157.054 68.2617 156.836C67.892 156.733 61.1834 156.696 60.8398 156.836ZM75.0977 156.836C74.8676 156.982 74.9682 157.662 75.293 157.812C75.6254 157.967 82.4768 157.888 82.6172 157.52C82.6639 157.397 82.6529 156.918 82.5195 156.836C82.2033 156.642 75.4111 156.637 75.0977 156.836Z" fill="#FDFDFD"/>
<path d="M128.418 89.6484H143.652C143.786 89.8285 144.232 90.0777 144.141 90.332C143.86 91.1152 130.13 90.0959 128.418 90.4297V89.6484Z" fill="#030302"/>
<path d="M112.402 91.4062C115.162 90.1818 115.281 94.6369 112.402 93.3594C111.961 93.1633 111.961 91.6021 112.402 91.4062Z" fill="#EDECED"/>
<path d="M145.02 93.3594C145.495 93.1992 149.538 93.1566 149.219 94.043C149.006 94.6353 145.503 94.2021 144.824 94.3359C144.3 94.1269 144.678 93.4746 145.02 93.3594Z" fill="#050403"/>
<path d="M129.59 93.5547C130.576 93.1711 130.616 94.4453 129.98 94.5313C129.527 94.5926 129.009 93.7805 129.59 93.5547Z" fill="#040303"/>
<path d="M131.348 93.5547C131.683 93.4494 138.053 93.4226 138.379 93.5547C138.593 93.6412 138.762 94.0181 138.672 94.2383C138.501 94.6572 130.859 94.8312 130.859 94.0429C131.013 93.9449 131.23 93.5914 131.348 93.5547Z" fill="#0A0909"/>
<path d="M137.402 97.4609L148.242 97.9492C146.961 98.2262 137.855 98.5402 137.402 98.2422C137.243 98.1375 137.243 97.5656 137.402 97.4609Z" fill="#030201"/>
<path d="M110.449 101.172L131.738 101.367C131.9 101.581 132.252 101.715 132.227 102.051C132.141 103.176 111.434 102.201 109.668 102.539C108.611 101.686 109.602 101.48 110.449 101.172Z" fill="#020101"/>
<path d="M136.816 101.562H137.988L138.477 102.051C137.82 103.295 135.77 101.989 136.816 101.562Z" fill="#030303"/>
<path d="M144.043 101.562C144.803 101.723 148.878 101.151 148.828 102.051C148.793 102.695 142.847 103.107 144.043 101.562Z" fill="#050404"/>
<path d="M95.8007 103.32C97.8609 102.403 98.1113 105.136 97.3632 105.469C95.3031 106.387 95.0527 103.654 95.8007 103.32Z" fill="#EEEDEE"/>
<path d="M141.895 105.078C142.806 105.08 144.769 104.763 144.238 106.055L137.695 105.762C137.549 105.205 141.331 105.077 141.895 105.078Z" fill="#040303"/>
<path d="M109.863 105.469C110.153 105.351 115.824 105.351 116.113 105.469C118.845 106.576 110.264 106.609 109.863 106.445C109.465 106.282 109.465 105.631 109.863 105.469Z" fill="#040303"/>
<path d="M121.582 105.469C122.129 105.418 122.431 106.373 121.777 106.445C121.108 106.519 121.024 105.521 121.582 105.469Z" fill="#0E0D0E"/>
<path d="M123.926 105.469C124.314 105.31 131.935 105.311 132.324 105.469C132.538 105.555 132.707 105.932 132.617 106.152C132.453 106.555 124.328 106.61 123.926 106.445C123.528 106.283 123.528 105.631 123.926 105.469Z" fill="#040303"/>
<path d="M87.0117 106.836L104.199 107.227C104.595 107.442 104.579 108.888 104.492 109.082C104.132 109.889 88.7861 109.413 86.8164 109.57L87.0117 106.836Z" fill="#F6F6F6"/>
<path d="M139.16 108.789C140.023 108.605 141.446 109.052 140.332 109.766C139.423 109.801 138.245 109.964 139.16 108.789Z" fill="#020202"/>
<path d="M113.184 109.375C113.491 109.249 119.516 109.25 119.824 109.375C120.038 109.462 120.207 109.838 120.117 110.059C119.967 110.426 113.543 110.499 113.184 110.352C112.785 110.189 112.785 109.538 113.184 109.375Z" fill="#080707"/>
<path d="M126.465 109.375C126.782 109.249 132.973 109.277 133.301 109.375C133.92 109.561 133.744 110.213 133.301 110.352C132.737 110.529 123.822 110.427 126.465 109.375Z" fill="#080707"/>
<path d="M133.301 112.695C133.463 112.629 136.667 112.603 136.816 112.695C139.156 114.146 130.533 113.826 133.301 112.695Z" fill="#060606"/>
<path d="M93.6524 113.281H114.355C114.566 113.437 114.758 113.696 114.648 113.965C114.252 114.937 95.9401 114.175 93.6524 114.453C93.1561 113.952 93.0705 113.697 93.6524 113.281Z" fill="#020201"/>
<path d="M120.605 113.281C120.913 113.185 126.752 113.16 127.051 113.281C129.83 114.408 121.035 114.393 120.605 114.258C120.092 114.097 120.093 113.442 120.605 113.281Z" fill="#070707"/>
<path d="M79.7852 113.477C79.8689 113.417 81.7438 113.445 81.8359 113.574C81.9078 113.675 81.9445 115.446 81.543 115.625C79.475 116.547 79.335 113.796 79.7852 113.477Z" fill="#F1F2F2"/>
<path d="M127.246 116.602C130.454 115.521 133.085 118.32 127.051 117.578C126.527 117.37 126.904 116.717 127.246 116.602Z" fill="#030303"/>
<path d="M92.8711 117.187C93.21 117.049 95.8985 117.032 95.8985 117.676C95.8985 118.83 90.9311 117.98 92.8711 117.187Z" fill="#040404"/>
<path d="M101.66 117.188C101.977 117.087 107.993 117.063 108.301 117.188C111.105 118.323 101.579 118.303 101.465 118.164C101.126 117.848 101.251 117.317 101.66 117.188Z" fill="#080807"/>
<path d="M114.16 117.188C114.432 117.015 120.307 117.066 120.605 117.188C120.819 117.274 120.988 117.651 120.898 117.871C120.744 118.248 114.652 118.302 114.355 118.164C114.03 118.013 113.93 117.333 114.16 117.188Z" fill="#050405"/>
<path d="M120.801 120.898C121.193 120.762 125.766 120.703 125.586 121.387C125.401 122.139 118.781 121.603 120.801 120.898Z" fill="#030201"/>
<path d="M100.488 121.094C100.88 120.934 102.461 121.011 102.148 121.777C101.771 122.703 99.0813 121.668 100.488 121.094Z" fill="#060505"/>
<path d="M108.105 121.094C109.017 121.283 114.7 120.643 114.648 121.582C114.617 122.162 106.984 122.75 108.105 121.094Z" fill="#080707"/>
<path d="M77.0508 124.414H97.3633C97.5246 124.628 97.8774 124.762 97.8516 125.098C97.7721 126.135 78.7014 125.316 77.0508 125.586C76.4371 125.084 76.4262 124.923 77.0508 124.414Z" fill="#020101"/>
<path d="M115.918 124.805C116.13 124.731 120.222 124.681 120.41 124.805C122.515 126.186 113.622 125.605 115.918 124.805Z" fill="#030303"/>
<path d="M102.637 125C102.927 124.809 109.547 124.836 109.375 125.488C108.591 125.851 102.918 125.967 102.637 125.781C102.478 125.677 102.478 125.105 102.637 125Z" fill="#020102"/>
<path d="M63.7695 125.781C65.3808 124.638 66.2351 127.428 65.5273 127.93C63.916 129.073 63.0617 126.283 63.7695 125.781Z" fill="#F0EFF0"/>
<path d="M111.426 128.32C111.83 128.167 115.624 128.052 115.234 129.004C114.88 129.871 109.403 129.088 111.426 128.32Z" fill="#030302"/>
<path d="M77.6367 128.906C79.2963 129.155 90.9238 128.721 91.5039 129.102C91.6321 129.186 91.6516 129.721 91.6016 129.785C91.1738 130.337 78.2801 130.154 77.6367 129.883C77.4862 129.819 77.1699 129.084 77.6367 128.906Z" fill="#020201"/>
<path d="M97.3633 128.906C97.6707 128.781 103.696 128.782 104.004 128.906C104.218 128.993 104.387 129.37 104.297 129.59C104.147 129.957 97.7228 130.03 97.3633 129.883C96.965 129.72 96.965 129.069 97.3633 128.906Z" fill="#060505"/>
<path d="M104.59 132.422C105.083 132.256 109.375 132.149 108.984 133.105C108.739 133.707 105.09 133.258 104.395 133.398C103.87 133.189 104.248 132.537 104.59 132.422Z" fill="#080807"/>
<path d="M91.3086 132.813C91.6344 132.709 97.8277 132.684 98.1445 132.813C98.3584 132.899 98.5273 133.276 98.4375 133.496C98.1832 134.119 92.1012 133.631 91.1133 133.789C90.7744 133.473 90.899 132.942 91.3086 132.813Z" fill="#060505"/>
<path d="M60.6446 136.328L76.4649 136.523C76.7205 136.723 76.8121 136.868 76.7578 137.207C76.5959 138.218 62.0121 137.448 60.4492 137.695C59.6813 137.077 59.8383 136.729 60.6446 136.328Z" fill="#020101"/>
<path d="M79.5898 136.719C80.1068 136.555 84.7008 136.496 84.375 137.402C84.1592 138.003 80.1328 137.555 79.3945 137.695C79.0557 137.379 79.1803 136.849 79.5898 136.719Z" fill="#050403"/>
<path d="M85.6445 136.719C85.9158 136.608 91.2324 136.609 91.5039 136.719C94.1765 137.803 86.0709 137.87 85.6445 137.695C85.2463 137.532 85.2463 136.881 85.6445 136.719Z" fill="#060606"/>
<path d="M98.3399 136.719C98.8606 136.555 103.451 136.496 103.125 137.402C102.815 138.263 95.8112 137.512 98.3399 136.719Z" fill="#060505"/>
<path d="M92.4804 140.625C92.7607 140.511 98.2547 140.511 98.5351 140.625C101.24 141.722 92.8929 141.77 92.4804 141.602C92.0822 141.439 92.0822 140.788 92.4804 140.625Z" fill="#040304"/>
<path d="M59.082 141.211C59.5582 141.062 63.1216 141.05 63.0859 141.699C63.0207 142.884 56.7091 141.955 59.082 141.211Z" fill="#060605"/>
<path d="M65.5273 141.211C65.8627 141.106 72.2328 141.079 72.5586 141.211C72.7725 141.297 72.9414 141.674 72.8516 141.895C72.6805 142.313 65.0391 142.487 65.0391 141.699C65.1926 141.601 65.4102 141.248 65.5273 141.211Z" fill="#060505"/>
<path d="M78.8086 141.211C79.1611 141.067 86.0726 141.068 86.4258 141.211C86.6394 141.297 86.8086 141.674 86.7187 141.895C86.5672 142.266 79.175 142.337 78.8086 142.188C78.4103 142.025 78.4103 141.374 78.8086 141.211Z" fill="#020202"/>
<path d="M59.8633 144.922C60.1051 144.804 65.1733 145.1 65.0391 145.605C64.3492 146.043 59.6918 146.052 59.5703 145.801C59.4602 145.573 59.5893 145.055 59.8633 144.922Z" fill="#030303"/>
<path d="M70.2149 145.117C72.2584 144.277 72.7707 146.37 70.2149 146.094C69.8068 145.851 69.8172 145.281 70.2149 145.117Z" fill="#080707"/>
<path d="M78.4179 145.117C79.0097 144.918 85.6861 144.869 85.3515 145.801C85.1299 146.418 79.1769 145.94 78.2226 146.094C77.6984 145.885 78.0761 145.232 78.4179 145.117Z" fill="#030303"/>
<path d="M91.3086 145.117C91.6605 144.973 94.7146 144.875 94.3359 145.801C93.9916 146.643 89.3879 145.902 91.3086 145.117Z" fill="#090808"/>
<path d="M59.8633 149.023C60.1615 148.902 66.0099 148.902 66.3086 149.023C66.5224 149.11 66.6914 149.487 66.6015 149.707C66.4515 150.074 60.2211 150.146 59.8633 150C59.465 149.837 59.465 149.186 59.8633 149.023Z" fill="#090808"/>
<path d="M67.4805 149.023C68.0221 148.95 68.5172 149.715 67.8711 150C66.9395 150.412 66.8076 149.115 67.4805 149.023Z" fill="#050405"/>
<path d="M74.707 149.023C74.9969 148.833 81.617 148.859 81.4453 149.512C80.6613 149.874 74.9887 149.99 74.707 149.805C74.5479 149.7 74.5479 149.128 74.707 149.023Z" fill="#020101"/>
<path d="M89.1602 149.023C89.7182 148.969 96.5285 149.136 93.6524 150C93.3531 150.09 87.6961 150.106 87.4024 150C86.0451 149.508 88.8916 149.05 89.1602 149.023Z" fill="#050404"/>
<path d="M93.0664 152.734C94.4469 152.131 95.4543 153.987 93.2617 153.711C92.8635 153.54 92.7047 152.892 93.0664 152.734Z" fill="#080607"/>
<path d="M59.4726 152.93C59.8273 152.785 62.4769 152.714 62.1094 153.613C61.756 154.477 57.6724 153.665 59.4726 152.93Z" fill="#090807"/>
<path d="M82.1289 152.93C82.425 152.83 88.0806 152.836 88.3789 152.93C88.8222 153.069 88.9976 153.72 88.3789 153.906C88.0703 153.999 82.233 154.025 81.9336 153.906C81.415 153.671 81.7843 153.046 82.1289 152.93Z" fill="#060606"/>
<path d="M68.0664 153.125C68.3602 152.932 74.6764 153.022 75.0977 153.125C75.382 153.195 75.6072 153.262 75.5859 153.613C75.4902 153.977 68.3807 154.113 68.0664 153.906C67.9072 153.802 67.9072 153.23 68.0664 153.125Z" fill="#030203"/>
<path d="M89.3555 156.641C90.0846 156.821 94.0168 156.2 93.9453 157.129C93.8949 157.785 88.16 158.167 89.3555 156.641Z" fill="#030303"/>
<path d="M60.8398 156.836C61.1834 156.696 67.892 156.733 68.2617 156.836C69.0439 157.054 68.673 157.676 68.2617 157.813C67.9095 157.929 61.1834 157.953 60.8398 157.813C60.4416 157.65 60.4416 156.999 60.8398 156.836Z" fill="#050403"/>
<path d="M75.0976 156.836C75.4111 156.637 82.2033 156.642 82.5195 156.836C82.6529 156.918 82.6638 157.397 82.6172 157.52C82.4767 157.888 75.6254 157.967 75.2929 157.813C74.9681 157.662 74.8676 156.982 75.0976 156.836Z" fill="#050504"/>
</svg>
