<svg width="800" height="800" viewBox="0 0 800 800" fill="none" xmlns="http://www.w3.org/2000/svg">
<g clip-path="url(#clip0_2115_3)">
<path d="M166.506 67.3297H118.483C111.689 67.3297 106.181 72.836 106.181 79.6313C106.181 86.425 111.689 91.9328 118.483 91.9328H166.506C173.3 91.9328 178.808 86.425 178.808 79.6313C178.808 72.8375 173.3 67.3297 166.506 67.3297Z" fill="#95FFF8"/>
<path d="M208.011 38.1281L173.487 3.60315C168.683 -1.20154 160.894 -1.20154 156.091 3.60315C151.286 8.40784 151.286 16.1969 156.091 21L190.614 55.525C193.016 57.9282 196.164 59.1282 199.312 59.1282C202.461 59.1282 205.609 57.9282 208.011 55.525C212.816 50.7203 212.816 42.9328 208.011 38.1281Z" fill="#95FFF8"/>
<path d="M208.013 103.741C203.208 98.9359 195.419 98.9359 190.616 103.741L156.089 138.262C151.284 143.067 151.284 150.856 156.089 155.659C158.491 158.062 161.639 159.262 164.788 159.262C167.936 159.262 171.084 158.064 173.488 155.661L208.013 121.136C212.817 116.333 212.817 108.544 208.013 103.741Z" fill="#95FFF8"/>
<path d="M581.141 472.503H370.791C363.997 472.503 358.489 478.011 358.489 484.805C358.489 491.598 363.997 497.106 370.791 497.106H581.141C587.934 497.106 593.442 491.598 593.442 484.805C593.442 478.011 587.934 472.503 581.141 472.503Z" fill="#95FFF8"/>
<path d="M643.602 108.748L632.936 92.8594C629.15 87.2187 621.506 85.714 615.866 89.5C610.225 93.2875 608.72 100.93 612.508 106.57L623.172 122.459C628.18 129.919 628.644 139.106 624.417 147.034C620.191 154.962 612.302 159.695 603.319 159.695H562.5C537.93 159.695 517.567 178.052 514.409 201.773H452.999V125.066C452.999 118.272 447.491 112.764 440.697 112.764H413.828H356.175H335.661V111.145V48.1219V46.5015H559.441C567.424 46.5015 574.847 50.4578 579.295 57.0875L584.563 64.9328C588.349 70.5734 595.992 72.0781 601.633 68.2906C607.274 64.5031 608.777 56.8609 604.991 51.2203L599.725 43.375C590.699 29.9265 575.639 21.8969 559.441 21.8969H323.358C316.564 21.8969 311.056 27.4047 311.056 34.1984V35.8187H266.105C259.311 35.8187 253.803 41.3265 253.803 48.1203V111.142C253.803 117.936 259.311 123.444 266.105 123.444H311.056V125.062C311.056 131.856 316.564 137.364 323.358 137.364H333.622C322.649 152.336 307.045 168.519 287.831 174.889C278.163 178.095 270.319 184.875 265.75 193.98C261.18 203.084 260.428 213.423 263.636 223.094C268.82 238.731 283.367 249.237 299.833 249.237C303.911 249.237 307.952 248.583 311.839 247.291C341.817 237.35 368.847 216.878 392.181 186.444C406.691 167.516 416.469 148.845 421.819 137.362H428.4V201.773H403.556C396.763 201.773 391.255 207.281 391.255 214.075V266.12H380.98C375.62 266.12 370.878 269.587 369.256 274.695L304.686 477.802L285.697 494.405C263.005 514.245 253.313 544.77 260.402 574.066L275.814 637.764C277.177 643.397 282.211 647.177 287.763 647.177C288.719 647.178 289.694 647.066 290.664 646.83C297.267 645.23 301.327 638.584 299.728 631.978L284.316 568.278C279.389 547.922 286.125 526.712 301.894 512.927L323.469 494.061C325.159 492.581 326.413 490.669 327.094 488.527L389.98 290.722H403.558H548.381H561.959L582.341 354.827C584.399 361.303 591.317 364.881 597.792 362.823C604.267 360.764 607.847 353.847 605.789 347.372L582.683 274.692C581.059 269.586 576.317 266.117 570.959 266.117H560.684V214.072C560.684 207.278 555.177 201.77 548.383 201.77H539.502C542.324 191.708 551.555 184.297 562.506 184.297H603.325C621.283 184.297 637.686 174.453 646.134 158.608C654.578 142.764 653.611 123.658 643.602 108.748ZM311.055 98.8422H278.405V60.425H311.055V98.8422ZM372.655 171.478C352.374 197.93 329.308 215.581 304.091 223.942C302.703 224.403 301.269 224.636 299.831 224.636C293.991 224.636 288.83 220.906 286.988 215.353C285.849 211.922 286.117 208.253 287.739 205.02C289.361 201.789 292.145 199.383 295.577 198.244C326.597 187.958 349.022 160.656 363.213 137.364H394.372C389.259 147.08 382.053 159.219 372.655 171.478ZM536.077 266.123H415.858V226.381H440.7H526.291H536.077V266.123Z" fill="#95FFF8"/>
<path d="M666.241 494.409L647.252 477.805L621.43 396.586C619.37 390.111 612.458 386.533 605.978 388.589C599.505 390.648 595.923 397.566 597.981 404.041L624.842 488.533C625.523 490.673 626.778 492.587 628.467 494.067L650.042 512.933C665.809 526.719 672.544 547.928 667.62 568.284L617.513 775.395H334.419L311.627 681.192C310.028 674.589 303.38 670.53 296.777 672.128C290.173 673.728 286.114 680.373 287.713 686.98L312.78 790.592C314.117 796.114 319.058 800.001 324.738 800.001H627.192C632.872 800.001 637.814 796.112 639.15 790.592L691.534 574.07C698.623 544.773 688.931 514.248 666.241 494.409Z" fill="#95FFF8"/>
</g>
<defs>
<clipPath id="clip0_2115_3">
<rect width="800" height="800" fill="white"/>
</clipPath>
</defs>
</svg>
