<svg width="800" height="800" viewBox="0 0 800 800" fill="none" xmlns="http://www.w3.org/2000/svg">
<path d="M332.631 774.738H63.1578C42.2625 774.738 25.2625 757.738 25.2625 736.842C25.2625 715.947 42.2609 698.947 63.1578 698.947H147.956C155.648 698.947 162.873 695.945 168.302 690.499C173.837 684.942 176.872 677.523 176.844 669.65V669.474C176.844 648.58 193.842 631.578 214.739 631.578H265.266C272.242 631.578 277.897 625.925 277.897 618.947C277.897 611.969 272.241 606.316 265.266 606.316H214.739C179.912 606.316 151.581 634.647 151.581 669.474V669.694C151.586 671.25 150.848 672.223 150.408 672.667C149.734 673.342 148.911 673.684 147.958 673.684H63.1578C28.3313 673.684 0 702.016 0 736.842C0 771.669 28.3313 800 63.1578 800H332.631C339.608 800 345.263 794.347 345.263 787.369C345.263 780.391 339.608 774.738 332.631 774.738Z" fill="#3F3F3F"/>
<path d="M753.684 185.262H696.102C691.364 175.314 681.208 168.42 669.474 168.42H585.263C573.528 168.42 563.374 175.314 558.634 185.262H501.052C494.075 185.262 488.42 190.917 488.42 197.894C488.42 204.87 494.077 210.525 501.052 210.525H555.789V213.969C555.789 238.364 573.745 258.511 597.563 260.83C600.499 261.116 603.425 261.125 606.316 260.859V314.98C606.316 340.495 625.924 361.181 650.956 362.072C663.628 362.497 675.667 357.922 684.794 349.116C693.92 340.308 698.949 328.47 698.949 315.787V311.577H739.906L717.669 567.327C717.064 574.275 722.21 580.402 729.158 581.005C729.53 581.037 729.9 581.052 730.267 581.052C736.749 581.052 742.266 576.091 742.836 569.512L765.395 310.075C785.281 304.878 800 286.758 800 265.262V231.578C800 206.041 779.224 185.262 753.684 185.262ZM673.683 197.895V315.792C673.683 321.558 671.397 326.937 667.247 330.944C663.1 334.945 657.641 336.997 651.85 336.831C640.672 336.433 631.577 326.631 631.577 314.984V243.88C631.577 239.362 629.167 235.192 625.255 232.936C623.302 231.811 621.124 231.248 618.945 231.248C616.759 231.248 614.574 231.816 612.616 232.95C608.78 235.172 604.419 236.122 600.008 235.691C589.378 234.655 581.052 225.116 581.052 213.973V197.897C581.052 195.575 582.941 193.686 585.263 193.686H669.474C671.794 193.686 673.684 195.573 673.684 197.897L673.683 197.895ZM774.738 265.262C774.738 276.839 765.347 286.262 753.781 286.316C753.7 286.316 753.622 286.316 753.539 286.316H698.949V210.527H753.686C765.295 210.527 774.739 219.97 774.739 231.58V265.262H774.738Z" fill="#3F3F3F"/>
<path d="M568.42 311.58C575.397 311.58 581.052 305.927 581.052 298.948C581.052 291.97 575.395 286.317 568.42 286.317H501.052C494.075 286.317 488.42 291.97 488.42 298.948C488.42 305.927 494.077 311.58 501.052 311.58H568.42Z" fill="#3F3F3F"/>
<path d="M779.895 645.755C754.298 602.048 706.836 572.631 652.631 572.631H551.578C539.969 572.631 530.525 563.188 530.525 551.578V534.736C530.525 530.214 529.863 525.733 528.578 521.438C539.97 512.991 547.367 499.448 547.367 484.209C547.367 458.672 526.591 437.894 501.052 437.894H480V433.683C480 421.947 473.108 411.792 463.158 407.053V46.3156C463.158 20.7781 442.381 0 416.842 0C391.303 0 370.527 20.7781 370.527 46.3156V185.263H214.738C189.198 185.263 168.422 206.041 168.422 231.578V265.263C168.422 286.756 183.141 304.877 203.025 310.08L225.584 569.516C226.189 576.469 232.308 581.641 239.264 581.005C246.214 580.402 251.358 574.277 250.753 567.327L228.516 311.58H370.527V407.056C360.577 411.795 353.684 421.95 353.684 433.686V437.897H332.631C307.092 437.897 286.316 458.675 286.316 484.212C286.316 499.452 293.712 512.994 305.105 521.441C303.82 525.734 303.158 530.216 303.158 534.739V652.634C303.158 733.894 369.267 800.003 450.527 800.003H770.527C786.778 800.003 800 786.78 800 770.53V720C800 693.406 792.917 668.434 780.544 646.872C780.347 646.487 780.13 646.116 779.895 645.755ZM395.789 46.3156C395.789 34.7063 405.233 25.2625 416.842 25.2625C428.452 25.2625 437.895 34.7063 437.895 46.3156V404.211H395.791V46.3156H395.789ZM214.883 286.316C214.802 286.317 214.719 286.317 214.641 286.316C203.077 286.264 193.684 276.841 193.684 265.263V231.578C193.684 219.969 203.128 210.525 214.738 210.525H370.527V286.314H214.883V286.316ZM774.737 770.527C774.737 772.848 772.848 774.738 770.527 774.738H585.262C517.933 774.738 463.158 719.962 463.158 652.633V568.422C463.158 561.444 457.502 555.791 450.527 555.791C443.55 555.791 437.895 561.444 437.895 568.422V652.633C437.895 702.661 462.953 746.947 501.177 773.598C441.731 765.423 395.791 714.291 395.791 652.633V568.422C395.791 561.444 390.134 555.791 383.159 555.791C376.183 555.791 370.528 561.444 370.528 568.422V652.633C370.528 702.661 395.586 746.947 433.809 773.602C374.364 765.427 328.423 714.294 328.423 652.636V534.741C328.423 533.269 328.578 531.806 328.878 530.378C330.116 530.48 331.37 530.53 332.634 530.53H433.687C440.664 530.53 446.319 524.877 446.319 517.898C446.319 510.92 440.662 505.267 433.687 505.267H332.634C321.025 505.267 311.581 495.823 311.581 484.214C311.581 472.605 321.025 463.161 332.634 463.161H366.319C373.295 463.161 378.95 457.508 378.95 450.53V433.687C378.95 431.366 380.839 429.477 383.161 429.477H450.53C452.85 429.477 454.741 431.364 454.741 433.687V450.53C454.741 457.508 460.397 463.161 467.372 463.161H501.056C512.666 463.161 522.109 472.605 522.109 484.214C522.109 495.823 512.666 505.267 501.056 505.267H484.214C477.237 505.267 471.583 510.92 471.583 517.898C471.583 524.877 477.239 530.53 484.214 530.53H501.056C502.319 530.53 503.572 530.48 504.812 530.378C505.114 531.806 505.267 533.269 505.267 534.741V551.583C505.267 577.12 526.044 597.898 551.583 597.898H652.636C689.391 597.898 722.406 614.225 744.811 640.003H585.262C564.55 640.003 544.095 634.727 526.108 624.745C520.008 621.363 512.317 623.559 508.934 629.661C505.548 635.759 507.75 643.448 513.85 646.833C535.578 658.891 560.272 665.263 585.262 665.263H761.769C768.264 678.163 772.541 692.369 774.089 707.367H585.264C564.553 707.367 544.1 702.092 526.114 692.111C520.013 688.723 512.325 690.93 508.941 697.028C505.555 703.128 507.756 710.817 513.856 714.2C535.581 726.256 560.273 732.627 585.262 732.627H774.736V770.527H774.737Z" fill="#3F3F3F"/>
</svg>
